<svg width="375" height="915" viewBox="0 0 375 915" fill="none" xmlns="http://www.w3.org/2000/svg">
<path fill-rule="evenodd" clip-rule="evenodd" d="M1026.28 99.2471C1026.28 99.2429 1026.28 99.2398 1025.38 98.6953C1024.48 98.1509 1024.48 98.152 1024.47 98.1562L1024.46 98.1731L1024.42 98.2417C1024.38 98.3039 1024.33 98.3967 1024.25 98.5191C1024.1 98.766 1023.88 99.1332 1023.58 99.6196C1022.97 100.592 1022.07 102.037 1020.87 103.923C1018.47 107.694 1014.87 113.228 1010.11 120.274C1000.59 134.364 986.392 154.499 967.706 178.665C930.333 226.996 875.008 291.437 803.206 355.877C659.592 484.765 450.142 613.573 186.621 613.573V615.683C450.859 615.683 660.79 486.525 804.616 357.447C876.533 292.903 931.944 228.362 969.375 179.955C988.092 155.752 1002.32 135.58 1011.86 121.455C1016.63 114.393 1020.24 108.843 1022.65 105.056C1023.86 103.164 1024.76 101.711 1025.37 100.731C1025.67 100.241 1025.9 99.8696 1026.05 99.6196C1026.13 99.494 1026.19 99.4001 1026.23 99.3368L1026.27 99.2651L1026.28 99.2471ZM1026.18 254.481C1026.18 254.477 1026.18 254.476 1025.38 253.792C1024.58 253.108 1024.58 253.109 1024.57 253.111L1024.56 253.123L1024.52 253.171L1024.45 253.257L1024.35 253.366C1024.29 253.441 1024.21 253.531 1024.12 253.637L1023.97 253.805C1023.89 253.908 1023.79 254.021 1023.68 254.144C1023.08 254.831 1022.18 255.852 1020.98 257.186C1018.58 259.852 1014.98 263.766 1010.22 268.749C1000.7 278.716 986.511 292.959 967.829 310.054C930.463 344.243 875.145 389.836 803.346 435.429C659.746 526.616 450.25 617.793 186.621 617.793V619.903C450.752 619.903 660.636 528.551 804.477 437.21C876.397 391.54 931.813 345.868 969.253 311.61C987.973 294.481 1002.2 280.204 1011.75 270.206C1016.52 265.208 1020.13 261.278 1022.54 258.597C1023.75 257.256 1024.66 256.228 1025.27 255.534C1025.57 255.186 1025.8 254.923 1025.95 254.745C1026.03 254.657 1026.09 254.59 1026.12 254.545L1026.17 254.494L1026.18 254.481ZM1025.38 361.409C1026.06 362.217 1026.06 362.219 1026.06 362.221L1026.04 362.23L1026 362.267L1025.89 362.362L1025.83 362.411C1025.67 362.538 1025.45 362.727 1025.14 362.976C1024.53 363.474 1023.62 364.212 1022.42 365.174C1020 367.096 1016.4 369.913 1011.62 373.496C1002.07 380.663 987.841 390.898 969.119 403.176C931.678 427.733 876.263 460.467 804.348 493.199C660.517 558.664 450.678 624.123 186.621 624.123V622.013C450.324 622.013 659.865 556.643 803.473 491.279C875.278 458.597 930.599 425.916 967.962 401.412C986.644 389.159 1000.84 378.951 1010.35 371.809C1015.11 368.238 1018.7 365.433 1021.1 363.523C1022.3 362.568 1023.2 361.836 1023.8 361.344C1023.93 361.238 1024.05 361.144 1024.15 361.06C1024.28 360.949 1024.39 360.859 1024.48 360.787C1024.55 360.726 1024.61 360.678 1024.65 360.648L1024.69 360.613L1024.7 360.604C1024.7 360.604 1024.7 360.603 1024.72 360.628C1024.73 360.639 1024.75 360.656 1024.77 360.681C1024.81 360.728 1024.87 360.802 1024.97 360.921L1025.38 361.409ZM1025.83 479.477C1025.83 479.477 1025.83 479.477 1025.83 479.475C1025.83 479.472 1025.83 479.468 1025.83 479.459C1025.82 479.441 1025.8 479.405 1025.77 479.331C1025.71 479.204 1025.59 478.967 1025.38 478.523C1025.18 478.092 1025.06 477.857 1025 477.728C1024.97 477.668 1024.95 477.631 1024.94 477.608C1024.93 477.586 1024.93 477.577 1024.92 477.574C1024.92 477.572 1024.92 477.572 1024.92 477.572L1024.91 477.577L1024.87 477.598L1024.7 477.677C1024.55 477.747 1024.33 477.853 1024.03 477.993C1023.43 478.273 1022.52 478.69 1021.32 479.233C1018.92 480.319 1015.33 481.914 1010.57 483.945C1001.05 488.007 986.858 493.812 968.172 500.779C930.801 514.714 875.468 533.298 803.646 551.884C660.002 589.056 450.402 626.233 186.621 626.233V628.344C450.6 628.344 660.38 591.138 804.175 553.927C876.073 535.322 931.475 516.714 968.909 502.756C987.627 495.776 1001.85 489.96 1011.4 485.886C1016.18 483.849 1019.78 482.247 1022.19 481.155C1023.4 480.609 1024.31 480.189 1024.92 479.906C1025.22 479.765 1025.45 479.657 1025.6 479.585L1025.78 479.503L1025.82 479.482L1025.83 479.477ZM1025.38 572.425C1025.52 573.179 1025.56 573.385 1025.57 573.441C1025.58 573.462 1025.57 573.462 1025.57 573.462L1025.56 573.464L1025.52 573.472L1025.35 573.505C1025.2 573.533 1024.97 573.576 1024.66 573.632L1024.38 573.684L1024.03 573.749C1023.84 573.784 1023.63 573.823 1023.4 573.864C1022.97 573.941 1022.49 574.028 1021.95 574.126C1019.54 574.56 1015.93 575.195 1011.16 576.003C1001.62 577.621 987.404 579.929 968.695 582.7C931.278 588.241 875.895 595.629 804.019 603.017C660.266 617.791 450.54 632.564 186.621 632.564V630.454C450.462 630.454 660.115 615.685 803.802 600.917C875.647 593.534 930.999 586.15 968.386 580.613C987.08 577.845 1001.28 575.538 1010.81 573.923C1015.57 573.116 1019.17 572.482 1021.57 572.05C1022.77 571.834 1023.68 571.668 1024.28 571.556C1024.58 571.501 1024.81 571.459 1024.96 571.431L1025.13 571.399L1025.17 571.391L1025.18 571.389C1025.18 571.389 1025.18 571.389 1025.19 571.409C1025.19 571.429 1025.2 571.467 1025.21 571.541L1025.24 571.708C1025.27 571.861 1025.32 572.089 1025.38 572.425ZM1025.37 629.399C1025.37 629.399 1025.37 629.399 1025.38 630.454C1025.39 631.509 1025.39 631.509 1025.39 631.509H1025.37H1025.36L1025.33 631.51H1025.3H1025.26H1025.21L1025.16 631.511H1025.1L1025.03 631.512H1024.96L1024.88 631.513H1024.79L1024.69 631.514L1024.59 631.515L1024.48 631.516H1024.36L1024.24 631.517L1024.11 631.518L1023.97 631.519L1023.83 631.52L1023.67 631.522L1023.51 631.524L1023.35 631.525L1023.18 631.526L1023 631.527L1022.81 631.529L1022.61 631.53L1022.41 631.531L1022.2 631.533L1021.99 631.534L1021.77 631.536L1021.54 631.538L1021.3 631.539L1021.06 631.542L1020.81 631.544L1020.55 631.546L1020.29 631.548L1020.02 631.55L1019.74 631.552L1019.45 631.554L1019.16 631.556L1018.86 631.558L1018.56 631.561L1018.25 631.563L1017.93 631.565L1017.6 631.568L1017.27 631.57L1016.93 631.573L1016.58 631.575L1016.22 631.579L1015.86 631.581L1015.5 631.584L1015.12 631.587L1014.74 631.589L1014.35 631.592L1013.96 631.595L1013.55 631.599L1013.14 631.602L1012.73 631.605L1012.3 631.608L1011.87 631.611L1011.44 631.614L1010.99 631.618L1010.54 631.621L1010.09 631.625L1009.62 631.628L1009.15 631.631L1008.67 631.635L1008.19 631.639L1007.7 631.643L1007.2 631.646L1006.7 631.65L1006.18 631.654L1005.67 631.658L1005.14 631.662L1004.61 631.666L1004.07 631.67L1003.52 631.675L1002.97 631.678L1002.41 631.682L1001.84 631.687L1001.27 631.691L1000.69 631.696L1000.11 631.7L999.512 631.704L998.912 631.709L998.306 631.714L997.692 631.718L997.072 631.723L996.445 631.727L995.811 631.733L995.171 631.737L994.524 631.742L993.87 631.747L993.209 631.752L992.542 631.757L991.868 631.762L991.187 631.767L990.5 631.773L989.806 631.778L989.105 631.783L988.397 631.788L987.683 631.794L986.962 631.799L986.235 631.804L985.501 631.81L984.76 631.816L984.012 631.821L983.258 631.827L982.497 631.833L981.73 631.838L980.956 631.844L980.175 631.851L979.387 631.856L978.593 631.862L977.793 631.869L976.985 631.874L976.171 631.88L975.351 631.887L974.524 631.893L973.69 631.899L972.85 631.906L972.003 631.912L971.149 631.918L970.289 631.925L969.422 631.931L968.549 631.938L967.669 631.945L966.782 631.951L965.889 631.958L964.99 631.965L964.084 631.972L963.171 631.978L962.252 631.986L961.326 631.992L960.393 631.999L959.454 632.007L958.509 632.014L957.557 632.021L956.598 632.028L955.633 632.035L954.662 632.043L953.684 632.05L952.699 632.057L951.708 632.065L950.71 632.072L949.706 632.081L948.696 632.088L947.678 632.095L946.655 632.103L945.625 632.111L944.588 632.119L943.545 632.127L942.496 632.135L941.44 632.143L940.377 632.15L939.309 632.159L938.233 632.167L937.152 632.175L936.063 632.183L934.969 632.191L933.868 632.2L932.76 632.208L931.646 632.217L930.526 632.225L929.399 632.234L928.266 632.242L927.126 632.251L925.98 632.259L924.828 632.267L923.669 632.277L922.504 632.285L921.332 632.294L920.154 632.303L918.97 632.312L917.779 632.321L916.581 632.33L915.379 632.339L914.168 632.349L912.952 632.357L911.729 632.367L910.501 632.376L909.266 632.386L908.024 632.395L906.776 632.405L905.521 632.414L904.261 632.424L902.995 632.433L901.721 632.443L900.441 632.452L899.155 632.462L897.863 632.471L896.565 632.482L895.26 632.491L893.949 632.501L892.631 632.511L891.308 632.521L889.977 632.531L888.642 632.541L887.299 632.551L885.95 632.562L884.595 632.571L883.234 632.582L881.866 632.592L880.493 632.603L879.113 632.614L877.726 632.623L876.334 632.634L874.935 632.644L873.529 632.655L872.119 632.666L870.701 632.677L869.277 632.687L867.847 632.698L866.411 632.708L864.969 632.72L863.52 632.731L862.065 632.741L860.604 632.753L859.137 632.763L857.663 632.775L856.184 632.787L854.699 632.797L853.207 632.809L851.709 632.82L850.204 632.831L848.694 632.842L847.177 632.854L845.655 632.866L844.126 632.877L842.591 632.889L841.05 632.901L839.503 632.912L837.949 632.924L836.39 632.935L834.824 632.947L833.252 632.96L831.675 632.971L830.09 632.983L828.5 632.995L826.904 633.007L825.302 633.019L823.693 633.031L822.079 633.043L820.458 633.056L818.832 633.068L817.199 633.08L815.56 633.093L813.915 633.105L812.264 633.118L810.607 633.131L808.945 633.142L807.276 633.155L805.6 633.167L803.919 633.18L802.231 633.193L800.538 633.206L798.838 633.219L797.134 633.232L795.422 633.244L793.705 633.257L791.982 633.271L790.253 633.284L788.517 633.297L786.775 633.31L785.028 633.324L783.274 633.336L781.515 633.35L779.75 633.363L777.978 633.376L776.201 633.39L774.417 633.403L772.629 633.416L770.833 633.43L769.032 633.444L767.225 633.458L765.412 633.471L763.593 633.485L761.767 633.499L759.937 633.512L758.1 633.526L756.257 633.54L754.408 633.555L752.554 633.568L750.694 633.582L748.827 633.596L746.955 633.611L745.077 633.624L743.192 633.639L741.302 633.653L739.406 633.668L737.505 633.681L735.596 633.696L733.683 633.711L731.763 633.726L729.838 633.739L727.907 633.754L725.97 633.769L724.026 633.784L722.078 633.798L720.123 633.813L718.162 633.828L716.196 633.843L714.224 633.857L712.246 633.872L710.262 633.887L708.272 633.903L706.277 633.918L704.276 633.932L702.268 633.948L700.255 633.963L698.237 633.978L696.212 633.994L694.182 634.008L692.146 634.024L690.104 634.04L688.057 634.055L686.003 634.071L683.943 634.086L681.878 634.101L679.807 634.117L677.731 634.133L675.648 634.149L673.56 634.164L671.467 634.18L669.368 634.196L667.262 634.212L665.151 634.228L663.034 634.244L660.911 634.259L658.783 634.276L656.65 634.292L654.511 634.308L652.365 634.325L650.213 634.341L648.057 634.357L645.894 634.373L643.726 634.389L641.552 634.406L639.373 634.422L637.188 634.439L634.996 634.456L632.8 634.472L630.598 634.488L628.39 634.505L626.176 634.522L623.958 634.539L621.732 634.556L619.502 634.573L617.265 634.59L615.023 634.607L612.776 634.623L610.524 634.64L608.265 634.657L606.001 634.674L603.73 634.691L601.455 634.709L599.173 634.726L596.887 634.743L594.595 634.761L592.297 634.777L589.994 634.795L587.684 634.812L585.369 634.83L583.049 634.847L580.723 634.865L578.391 634.883L576.054 634.9L573.712 634.918L571.364 634.936L569.01 634.954L566.651 634.972L564.286 634.99L561.916 635.008L559.54 635.025L557.158 635.043L554.771 635.061L552.379 635.079L549.981 635.097L547.578 635.115L545.168 635.133L542.754 635.152L540.334 635.17L537.908 635.188L535.477 635.207L533.04 635.225L530.599 635.244L528.151 635.262L525.698 635.281L523.24 635.299L520.775 635.318L518.307 635.337L515.831 635.355L513.351 635.374L510.865 635.393L508.374 635.412L505.878 635.43L503.376 635.449L500.868 635.468L498.355 635.486L495.836 635.505L493.313 635.524L490.784 635.543L488.249 635.562L485.709 635.583L483.163 635.601L480.612 635.62L478.057 635.639L475.494 635.66L472.927 635.679L470.355 635.699L467.777 635.718L465.193 635.737L462.605 635.757L460.011 635.776L457.411 635.796L454.808 635.816L452.197 635.835L449.582 635.855L446.961 635.875L444.335 635.895L441.704 635.914L439.066 635.934L436.425 635.954L433.777 635.974L431.124 635.994L428.466 636.014L425.803 636.034L423.134 636.054L420.461 636.074L417.781 636.095L415.096 636.115L412.406 636.135L409.711 636.155L407.011 636.177L404.305 636.197L401.594 636.217L398.878 636.238L396.156 636.258L393.429 636.279L390.697 636.299L387.96 636.32L385.217 636.341L382.47 636.361L379.716 636.382L376.958 636.403L374.194 636.423L371.425 636.445L368.652 636.466L365.872 636.487L363.087 636.508L360.298 636.529L357.503 636.55L354.703 636.571L351.898 636.592L349.087 636.613L346.271 636.634L343.451 636.656L340.624 636.678L337.793 636.699L334.957 636.72L332.115 636.741L329.268 636.763L326.416 636.784L323.559 636.806L320.697 636.827L317.83 636.85L314.957 636.871L312.079 636.893L309.197 636.914L306.309 636.936L303.415 636.958L300.517 636.979L297.615 637.002L294.706 637.024L291.792 637.046L288.874 637.068L285.95 637.09L283.021 637.112L280.087 637.135L277.148 637.157L274.203 637.179L271.254 637.201L268.3 637.223L265.341 637.245L262.376 637.267L259.406 637.291L256.432 637.313L253.453 637.335L250.468 637.357L247.478 637.38L244.484 637.403L241.483 637.426L238.478 637.448L235.468 637.471L232.454 637.493L229.433 637.516L226.409 637.54L223.378 637.562L220.344 637.585L217.304 637.608L214.259 637.63L211.209 637.654L208.153 637.677L205.094 637.7L202.029 637.723L198.958 637.746L195.884 637.77L192.803 637.793L189.718 637.816L186.629 637.839L186.613 635.729L189.703 635.706L192.787 635.683L195.868 635.66L198.943 635.636L202.013 635.613L205.078 635.59L208.137 635.567L211.193 635.543L214.243 635.521L217.288 635.498L220.327 635.475L223.363 635.452L226.393 635.43L229.418 635.406L232.438 635.383L235.452 635.361L238.462 635.338L241.467 635.316L244.468 635.292L247.462 635.27L250.452 635.248L253.437 635.225L256.416 635.203L259.39 635.181L262.36 635.157L265.325 635.135L268.284 635.113L271.238 635.091L274.187 635.069L277.132 635.047L280.071 635.024L283.005 635.002L285.934 634.98L288.858 634.958L291.776 634.936L294.69 634.914L297.599 634.891L300.501 634.869L303.399 634.848L306.292 634.826L309.181 634.804L312.063 634.783L314.941 634.761L317.813 634.74L320.681 634.717L323.543 634.696L326.4 634.674L329.252 634.653L332.1 634.631L334.941 634.61L337.777 634.589L340.609 634.568L343.435 634.545L346.255 634.524L349.071 634.503L351.882 634.482L354.687 634.461L357.487 634.44L360.282 634.419L363.072 634.398L365.856 634.377L368.636 634.355L371.41 634.334L374.178 634.313L376.942 634.293L379.7 634.272L382.454 634.251L385.201 634.231L387.944 634.21L390.681 634.189L393.414 634.169L396.14 634.148L398.862 634.128L401.577 634.106L404.289 634.086L406.995 634.066L409.695 634.045L412.391 634.025L415.08 634.005L417.765 633.985L420.444 633.964L423.118 633.944L425.787 633.924L428.451 633.904L431.108 633.884L433.762 633.864L436.409 633.844L439.051 633.824L441.687 633.805L444.319 633.785L446.945 633.765L449.566 633.745L452.182 633.725L454.791 633.706L457.396 633.685L459.995 633.667L462.59 633.646L465.178 633.626L467.761 633.607L470.339 633.588L472.911 633.568L475.478 633.549L478.04 633.529L480.596 633.51L483.147 633.491L485.693 633.472L488.232 633.453L490.768 633.433L493.297 633.414L495.82 633.395L498.339 633.376L500.852 633.357L503.36 633.338L505.861 633.319L508.358 633.301L510.849 633.282L513.335 633.263L515.816 633.244L518.291 633.227L520.759 633.208L523.224 633.189L525.682 633.171L528.135 633.152L530.583 633.134L533.024 633.115L535.462 633.097L537.892 633.078L540.318 633.06L542.738 633.042L545.152 633.023L547.562 633.005L549.965 632.987L552.363 632.969L554.755 632.951L557.143 632.933L559.524 632.915L561.9 632.897L564.271 632.879L566.635 632.861L568.994 632.844L571.348 632.826L573.696 632.808L576.039 632.79L578.375 632.773L580.707 632.755L583.033 632.737L585.353 632.72L587.668 632.702L589.977 632.685L592.281 632.667L594.579 632.65L596.871 632.633L599.158 632.616L601.439 632.599L603.714 632.581L605.985 632.564L608.249 632.547L610.508 632.53L612.76 632.513L615.008 632.496L617.25 632.48L619.486 632.463L621.717 632.446L623.942 632.429L626.16 632.412L628.374 632.395L630.582 632.378L632.784 632.362L634.981 632.346L637.172 632.329L639.357 632.313L641.537 632.296L643.71 632.279L645.878 632.263L648.041 632.246L650.198 632.231L652.349 632.215L654.494 632.198L656.633 632.182L658.768 632.166L660.896 632.149L663.018 632.133L665.135 632.118L667.246 632.102L669.352 632.086L671.451 632.07L673.545 632.054L675.633 632.039L677.715 632.023L679.792 632.007L681.863 631.991L683.927 631.976L685.987 631.96L688.04 631.945L690.088 631.93L692.13 631.914L694.167 631.898L696.196 631.883L698.221 631.868L700.239 631.853L702.252 631.838L704.26 631.822L706.262 631.807L708.257 631.793L710.246 631.777L712.23 631.762L714.208 631.747L716.18 631.733L718.147 631.718L720.107 631.703L722.062 631.688L724.011 631.673L725.954 631.659L727.891 631.644L729.822 631.629L731.747 631.615L733.666 631.601L735.58 631.586L737.488 631.572L739.39 631.557L741.286 631.543L743.176 631.529L745.061 631.514L746.939 631.5L748.81 631.487L750.678 631.472L752.538 631.458L754.393 631.444L756.241 631.43L758.084 631.416L759.921 631.402L761.752 631.389L763.577 631.375L765.396 631.361L767.209 631.347L769.017 631.334L770.818 631.32L772.612 631.306L774.402 631.293L776.186 631.28L777.962 631.266L779.734 631.252L781.499 631.24L783.259 631.226L785.012 631.213L786.759 631.2L788.501 631.187L790.237 631.173L791.966 631.161L793.689 631.148L795.406 631.134L797.118 631.122L798.823 631.109L800.522 631.096L802.216 631.084L803.903 631.07L805.584 631.057L807.259 631.045L808.928 631.032L810.592 631.02L812.248 631.008L813.899 630.995L815.544 630.982L817.183 630.97L818.816 630.958L820.443 630.945L822.063 630.934L823.677 630.921L825.286 630.909L826.888 630.897L828.484 630.885L830.074 630.873L831.659 630.861L833.236 630.849L834.808 630.837L836.374 630.825L837.933 630.814L839.486 630.802L841.034 630.79L842.575 630.779L844.11 630.767L845.639 630.756L847.162 630.744L848.678 630.732L850.189 630.721L851.693 630.71L853.191 630.699L854.683 630.687L856.168 630.676L857.648 630.665L859.122 630.653L860.588 630.643L862.049 630.632L863.504 630.62L864.953 630.61L866.395 630.598L867.831 630.588L869.261 630.577L870.685 630.567L872.102 630.556L873.513 630.545L874.919 630.534L876.318 630.523L877.71 630.513L879.097 630.503L880.477 630.493L881.85 630.482L883.218 630.472L884.579 630.461L885.934 630.452L887.283 630.441L888.626 630.431L889.962 630.421L891.292 630.411L892.615 630.401L893.933 630.39L895.244 630.381L896.548 630.371L897.847 630.361L899.139 630.351L900.425 630.342L901.705 630.332L902.978 630.323L904.245 630.313L905.506 630.304L906.76 630.294L908.008 630.285L909.25 630.275L910.485 630.266L911.713 630.256L912.936 630.247L914.153 630.239L915.363 630.229L916.566 630.221L917.763 630.211L918.954 630.202L920.138 630.193L921.316 630.185L922.488 630.175L923.653 630.167L924.812 630.158L925.964 630.149L927.11 630.14L928.25 630.132L929.383 630.124L930.51 630.115L931.63 630.107L932.744 630.098L933.852 630.09L934.953 630.081L936.047 630.073L937.136 630.064L938.217 630.057L939.293 630.049L940.362 630.04L941.424 630.033L942.48 630.024L943.529 630.017L944.572 630.009L945.609 630.001L946.639 629.993L947.663 629.985L948.68 629.978L949.69 629.971L950.694 629.962L951.692 629.955L952.683 629.947L953.668 629.94L954.646 629.933L955.617 629.925L956.582 629.918L957.541 629.91L958.493 629.904L959.439 629.897L960.377 629.889L961.31 629.882L962.236 629.876L963.155 629.868L964.068 629.862L964.974 629.855L965.873 629.848L966.767 629.841L967.653 629.834L968.533 629.828L969.406 629.822L970.273 629.814L971.133 629.808L971.987 629.802L972.834 629.795L973.674 629.789L974.508 629.783L975.335 629.776L976.155 629.77L976.969 629.764L977.777 629.758L978.577 629.752L979.372 629.746L980.159 629.741L980.94 629.734L981.714 629.728L982.481 629.723L983.242 629.717L983.996 629.711L984.744 629.706L985.485 629.7L986.219 629.694L986.946 629.689L987.667 629.684L988.382 629.678L989.089 629.673L989.79 629.668L990.484 629.662L991.171 629.657L991.852 629.652L992.526 629.647L993.193 629.641L993.854 629.637L994.508 629.632L995.155 629.627L995.795 629.622L996.429 629.617L997.056 629.613L997.676 629.608L998.29 629.603L998.896 629.599L999.496 629.594L1000.09 629.59L1000.68 629.585L1001.26 629.581L1001.83 629.577L1002.39 629.573L1002.95 629.569L1003.51 629.564L1004.05 629.56L1004.59 629.556L1005.12 629.552L1005.65 629.547L1006.17 629.544L1006.68 629.54L1007.18 629.536L1007.68 629.533L1008.17 629.528L1008.66 629.525L1009.14 629.521L1009.61 629.518L1010.07 629.515L1010.53 629.511L1010.98 629.507L1011.42 629.504L1011.86 629.501L1012.29 629.498L1012.71 629.495L1013.13 629.492L1013.54 629.488L1013.94 629.485L1014.33 629.482L1014.72 629.479L1015.11 629.477L1015.48 629.474L1015.85 629.47L1016.21 629.468L1016.56 629.465L1016.91 629.463L1017.25 629.46L1017.58 629.458L1017.91 629.456L1018.23 629.453L1018.54 629.45L1018.85 629.448L1019.15 629.446L1019.44 629.444L1019.72 629.442L1020 629.44L1020.27 629.438L1020.54 629.436L1020.79 629.434L1021.04 629.431L1021.29 629.429L1021.52 629.428L1021.75 629.426L1021.97 629.425L1022.19 629.423L1022.4 629.421L1022.6 629.42L1022.79 629.419L1022.98 629.417L1023.16 629.416L1023.33 629.415L1023.5 629.413L1023.66 629.411L1023.81 629.41L1023.95 629.409L1024.09 629.408L1024.22 629.407H1024.35L1024.46 629.406L1024.57 629.405L1024.68 629.404L1024.77 629.403H1024.86L1024.94 629.402H1025.02L1025.09 629.401H1025.15L1025.2 629.4H1025.24H1025.28H1025.32L1025.34 629.399H1025.36H1025.37ZM1025.38 913.214C1026.06 912.407 1026.06 912.406 1026.06 912.404L1026.04 912.394L1026 912.357L1025.99 912.348L1025.9 912.271L1025.83 912.213L1025.7 912.105L1025.55 911.984C1025.43 911.888 1025.3 911.776 1025.14 911.647C1024.53 911.149 1023.62 910.412 1022.42 909.451C1020 907.527 1016.4 904.711 1011.62 901.127C1002.07 893.96 987.841 883.726 969.119 871.448C931.678 846.891 876.263 814.157 804.348 781.425C660.517 715.959 450.678 650.5 186.621 650.5V652.61C450.324 652.61 659.865 717.981 803.473 783.345C875.278 816.028 930.599 848.708 967.962 873.212C986.644 885.465 1000.84 895.672 1010.35 902.815C1015.11 906.386 1018.7 909.191 1021.1 911.101C1022.3 912.057 1023.2 912.788 1023.8 913.28C1024.1 913.527 1024.33 913.712 1024.48 913.837C1024.54 913.886 1024.59 913.926 1024.62 913.956L1024.65 913.976L1024.69 914.011L1024.7 914.019C1024.7 914.019 1024.7 914.02 1024.75 913.961C1024.82 913.879 1024.99 913.683 1025.38 913.214ZM1025.83 794.092C1025.83 794.093 1025.84 794.094 1025.38 795.046C1024.93 795.997 1024.92 795.997 1024.92 795.996L1024.91 795.991L1024.87 795.972L1024.7 795.892C1024.55 795.821 1024.33 795.716 1024.03 795.575C1023.78 795.46 1023.48 795.323 1023.14 795.163C1022.92 795.065 1022.69 794.958 1022.44 794.844C1022.1 794.69 1021.73 794.52 1021.32 794.337C1018.92 793.25 1015.33 791.655 1010.57 789.624C1001.05 785.563 986.858 779.758 968.172 772.79C930.801 758.854 875.468 740.27 803.646 721.684C660.002 684.513 450.402 647.335 186.621 647.335V645.225C450.6 645.225 660.38 682.43 804.175 719.641C876.073 738.247 931.475 756.854 968.909 770.813C987.627 777.792 1001.85 783.609 1011.4 787.683C1016.18 789.72 1019.78 791.321 1022.19 792.414C1023.4 792.96 1024.31 793.38 1024.92 793.662C1025.09 793.743 1025.24 793.811 1025.36 793.869C1025.46 793.914 1025.54 793.953 1025.6 793.984L1025.78 794.065L1025.82 794.087L1025.83 794.092ZM1025.38 700.089C1025.58 699.053 1025.58 699.052 1025.57 699.052L1025.56 699.05L1025.52 699.041L1025.35 699.009C1025.2 698.981 1024.97 698.938 1024.66 698.882C1024.06 698.77 1023.15 698.603 1021.95 698.387C1019.54 697.953 1015.93 697.318 1011.16 696.51C1001.62 694.894 987.404 692.584 968.695 689.813C931.278 684.272 875.895 676.885 804.019 669.497C660.266 654.723 450.54 639.949 186.621 639.949V642.06C450.462 642.06 660.115 656.829 803.802 671.596C875.647 678.98 930.999 686.363 968.386 691.9C987.08 694.669 1001.28 696.976 1010.81 698.591C1015.57 699.398 1019.17 700.032 1021.57 700.463C1022.3 700.594 1022.92 700.706 1023.42 700.799C1023.76 700.86 1024.04 700.913 1024.28 700.957C1024.58 701.013 1024.81 701.055 1024.96 701.083L1025.13 701.115L1025.17 701.123L1025.18 701.125C1025.18 701.125 1025.18 701.126 1025.38 700.089Z" fill="url(#paint0_linear_235_1074)"/>
<path fill-rule="evenodd" clip-rule="evenodd" d="M-650.996 99.2471C-650.999 99.2429 -651 99.2398 -650.097 98.6953C-649.193 98.1509 -649.192 98.152 -649.19 98.1562L-649.18 98.1731L-649.138 98.2417C-649.101 98.3039 -649.044 98.3967 -648.969 98.5191C-648.819 98.766 -648.593 99.1332 -648.291 99.6196C-647.689 100.592 -646.786 102.037 -645.585 103.923C-643.183 107.694 -639.59 113.228 -634.829 120.274C-625.305 134.364 -611.108 154.499 -592.422 178.665C-555.049 226.996 -499.724 291.437 -427.922 355.877C-284.308 484.765 -74.8582 613.573 188.663 613.573V615.683C-75.5745 615.683 -285.506 486.525 -429.332 357.447C-501.249 292.903 -556.66 228.362 -594.091 179.955C-612.808 155.752 -627.031 135.58 -636.577 121.455C-641.35 114.393 -644.954 108.843 -647.365 105.056C-648.571 103.164 -649.479 101.711 -650.085 100.731C-650.389 100.241 -650.617 99.8696 -650.77 99.6196C-650.846 99.494 -650.903 99.4001 -650.942 99.3368L-650.985 99.2651L-650.996 99.2471ZM-650.896 254.481C-650.899 254.477 -650.9 254.476 -650.097 253.792C-649.294 253.108 -649.293 253.109 -649.291 253.111L-649.281 253.123L-649.239 253.171L-649.166 253.257L-649.071 253.366C-649.007 253.441 -648.929 253.531 -648.837 253.637L-648.691 253.805C-648.602 253.908 -648.503 254.021 -648.395 254.144C-647.793 254.831 -646.891 255.852 -645.691 257.186C-643.291 259.852 -639.7 263.766 -634.94 268.749C-625.42 278.716 -611.227 292.959 -592.545 310.054C-555.179 344.243 -499.86 389.836 -428.062 435.429C-284.462 526.616 -74.9658 617.793 188.663 617.793V619.903C-75.468 619.903 -285.352 528.551 -429.193 437.21C-501.113 391.54 -556.529 345.868 -593.969 311.61C-612.689 294.481 -626.916 280.204 -636.466 270.206C-641.241 265.208 -644.846 261.278 -647.259 258.597C-648.466 257.256 -649.375 256.228 -649.982 255.534C-650.286 255.186 -650.515 254.923 -650.668 254.745C-650.744 254.657 -650.802 254.59 -650.841 254.545L-650.885 254.494L-650.896 254.481ZM-650.097 361.409C-650.776 362.217 -650.775 362.219 -650.772 362.221L-650.761 362.23L-650.717 362.267L-650.602 362.362L-650.543 362.411C-650.39 362.538 -650.161 362.727 -649.857 362.976C-649.249 363.474 -648.34 364.212 -647.132 365.174C-644.718 367.096 -641.112 369.913 -636.336 373.496C-626.785 380.663 -612.556 390.898 -593.835 403.176C-556.394 427.733 -500.979 460.467 -429.064 493.199C-285.233 558.664 -75.3941 624.123 188.663 624.123V622.013C-75.0396 622.013 -284.581 556.643 -428.189 491.279C-499.994 458.597 -555.315 425.916 -592.678 401.412C-611.36 389.159 -625.552 378.951 -635.07 371.809C-639.829 368.238 -643.419 365.433 -645.818 363.523C-647.018 362.568 -647.919 361.836 -648.52 361.344C-648.649 361.238 -648.764 361.144 -648.865 361.06C-649 360.949 -649.11 360.859 -649.195 360.787C-649.27 360.726 -649.326 360.678 -649.363 360.648L-649.405 360.613L-649.415 360.604C-649.415 360.604 -649.416 360.603 -649.437 360.628C-649.447 360.639 -649.461 360.656 -649.483 360.681C-649.522 360.728 -649.585 360.802 -649.685 360.921L-650.097 361.409ZM-650.548 479.477C-650.548 479.477 -650.549 479.477 -650.548 479.475C-650.547 479.472 -650.546 479.468 -650.542 479.459C-650.534 479.441 -650.517 479.405 -650.482 479.331C-650.422 479.204 -650.309 478.967 -650.097 478.523C-649.891 478.092 -649.778 477.857 -649.716 477.728C-649.687 477.668 -649.669 477.631 -649.658 477.608C-649.647 477.586 -649.642 477.577 -649.64 477.574C-649.639 477.572 -649.639 477.572 -649.639 477.572L-649.629 477.577L-649.587 477.598L-649.419 477.677C-649.269 477.747 -649.044 477.853 -648.743 477.993C-648.142 478.273 -647.24 478.69 -646.04 479.233C-643.64 480.319 -640.049 481.914 -635.289 483.945C-625.769 488.007 -611.574 493.812 -592.888 500.779C-555.517 514.714 -500.184 533.298 -428.362 551.884C-284.718 589.056 -75.1177 626.233 188.663 626.233V628.344C-75.3161 628.344 -285.096 591.138 -428.891 553.927C-500.789 535.322 -556.191 516.714 -593.625 502.756C-612.342 495.776 -626.568 489.96 -636.117 485.886C-640.891 483.849 -644.497 482.247 -646.91 481.155C-648.117 480.609 -649.026 480.189 -649.634 479.906C-649.938 479.765 -650.167 479.657 -650.32 479.585L-650.493 479.503L-650.537 479.482L-650.548 479.477ZM-650.097 572.425C-650.24 573.179 -650.278 573.385 -650.288 573.441C-650.291 573.462 -650.29 573.462 -650.29 573.462L-650.279 573.464L-650.236 573.472L-650.064 573.505C-649.911 573.533 -649.684 573.576 -649.38 573.632L-649.096 573.684L-648.747 573.749C-648.554 573.784 -648.343 573.823 -648.114 573.864C-647.691 573.941 -647.207 574.028 -646.662 574.126C-644.252 574.56 -640.65 575.195 -635.879 576.003C-626.337 577.621 -612.12 579.929 -593.411 582.7C-555.994 588.241 -500.611 595.629 -428.735 603.017C-284.982 617.791 -75.2559 632.564 188.663 632.564V630.454C-75.1778 630.454 -284.831 615.685 -428.518 600.917C-500.363 593.534 -555.714 586.15 -593.102 580.613C-611.796 577.845 -625.999 575.538 -635.527 573.923C-640.29 573.116 -643.885 572.482 -646.289 572.05C-647.49 571.834 -648.394 571.668 -648.997 571.556C-649.298 571.501 -649.524 571.459 -649.675 571.431L-649.844 571.399L-649.886 571.391L-649.897 571.389C-649.897 571.389 -649.898 571.389 -649.902 571.409C-649.906 571.429 -649.914 571.467 -649.928 571.541L-649.96 571.708C-649.99 571.861 -650.033 572.089 -650.097 572.425ZM-650.085 629.399C-650.088 629.399 -650.089 629.399 -650.097 630.454C-650.105 631.509 -650.104 631.509 -650.101 631.509H-650.091H-650.073L-650.048 631.51H-650.016H-649.977H-649.931L-649.877 631.511H-649.817L-649.75 631.512H-649.675L-649.594 631.513H-649.505L-649.409 631.514L-649.306 631.515L-649.197 631.516H-649.08L-648.956 631.517L-648.825 631.518L-648.687 631.519L-648.542 631.52L-648.39 631.522L-648.231 631.524L-648.064 631.525L-647.891 631.526L-647.711 631.527L-647.524 631.529L-647.33 631.53L-647.129 631.531L-646.921 631.533L-646.705 631.534L-646.483 631.536L-646.254 631.538L-646.018 631.539L-645.775 631.542L-645.525 631.544L-645.268 631.546L-645.004 631.548L-644.733 631.55L-644.455 631.552L-644.17 631.554L-643.879 631.556L-643.58 631.558L-643.274 631.561L-642.962 631.563L-642.642 631.565L-642.316 631.568L-641.982 631.57L-641.642 631.573L-641.295 631.575L-640.941 631.579L-640.58 631.581L-640.212 631.584L-639.837 631.587L-639.455 631.589L-639.067 631.592L-638.671 631.595L-638.269 631.599L-637.86 631.602L-637.444 631.605L-637.021 631.608L-636.591 631.611L-636.154 631.614L-635.711 631.618L-635.26 631.621L-634.803 631.625L-634.339 631.628L-633.868 631.631L-633.391 631.635L-632.906 631.639L-632.415 631.643L-631.916 631.646L-631.411 631.65L-630.9 631.654L-630.381 631.658L-629.856 631.662L-629.323 631.666L-628.784 631.67L-628.239 631.675L-627.686 631.678L-627.127 631.682L-626.56 631.687L-625.988 631.691L-625.408 631.696L-624.821 631.7L-624.228 631.704L-623.628 631.709L-623.022 631.714L-622.408 631.718L-621.788 631.723L-621.161 631.727L-620.527 631.733L-619.887 631.737L-619.24 631.742L-618.586 631.747L-617.925 631.752L-617.258 631.757L-616.584 631.762L-615.903 631.767L-615.216 631.773L-614.522 631.778L-613.821 631.783L-613.113 631.788L-612.399 631.794L-611.678 631.799L-610.951 631.804L-610.217 631.81L-609.476 631.816L-608.728 631.821L-607.974 631.827L-607.213 631.833L-606.446 631.838L-605.672 631.844L-604.891 631.851L-604.103 631.856L-603.309 631.862L-602.509 631.869L-601.701 631.874L-600.887 631.88L-600.067 631.887L-599.24 631.893L-598.406 631.899L-597.566 631.906L-596.719 631.912L-595.865 631.918L-595.005 631.925L-594.138 631.931L-593.265 631.938L-592.385 631.945L-591.498 631.951L-590.605 631.958L-589.706 631.965L-588.8 631.972L-587.887 631.978L-586.968 631.986L-586.042 631.992L-585.109 631.999L-584.17 632.007L-583.225 632.014L-582.273 632.021L-581.314 632.028L-580.349 632.035L-579.378 632.043L-578.4 632.05L-577.415 632.057L-576.424 632.065L-575.426 632.072L-574.422 632.081L-573.412 632.088L-572.394 632.095L-571.371 632.103L-570.341 632.111L-569.304 632.119L-568.261 632.127L-567.212 632.135L-566.156 632.143L-565.093 632.15L-564.025 632.159L-562.949 632.167L-561.867 632.175L-560.779 632.183L-559.685 632.191L-558.583 632.2L-557.476 632.208L-556.362 632.217L-555.242 632.225L-554.115 632.234L-552.982 632.242L-551.842 632.251L-550.696 632.259L-549.544 632.267L-548.385 632.277L-547.22 632.285L-546.048 632.294L-544.87 632.303L-543.686 632.312L-542.495 632.321L-541.297 632.33L-540.095 632.339L-538.884 632.349L-537.668 632.357L-536.445 632.367L-535.217 632.376L-533.982 632.386L-532.74 632.395L-531.492 632.405L-530.237 632.414L-528.977 632.424L-527.71 632.433L-526.437 632.443L-525.157 632.452L-523.871 632.462L-522.579 632.471L-521.281 632.482L-519.976 632.491L-518.665 632.501L-517.347 632.511L-516.024 632.521L-514.693 632.531L-513.358 632.541L-512.015 632.551L-510.666 632.562L-509.31 632.571L-507.949 632.582L-506.582 632.592L-505.208 632.603L-503.828 632.614L-502.442 632.623L-501.049 632.634L-499.651 632.644L-498.245 632.655L-496.835 632.666L-495.417 632.677L-493.993 632.687L-492.563 632.698L-491.127 632.708L-489.685 632.72L-488.236 632.731L-486.781 632.741L-485.32 632.753L-483.853 632.763L-482.379 632.775L-480.9 632.787L-479.415 632.797L-477.923 632.809L-476.425 632.82L-474.92 632.831L-473.409 632.842L-471.893 632.854L-470.371 632.866L-468.842 632.877L-467.307 632.889L-465.766 632.901L-464.219 632.912L-462.665 632.924L-461.106 632.935L-459.54 632.947L-457.968 632.96L-456.391 632.971L-454.806 632.983L-453.216 632.995L-451.62 633.007L-450.018 633.019L-448.409 633.031L-446.795 633.043L-445.174 633.056L-443.547 633.068L-441.915 633.08L-440.276 633.093L-438.631 633.105L-436.98 633.118L-435.323 633.131L-433.661 633.142L-431.992 633.155L-430.316 633.167L-428.634 633.18L-426.947 633.193L-425.254 633.206L-423.554 633.219L-421.849 633.232L-420.138 633.244L-418.421 633.257L-416.698 633.271L-414.968 633.284L-413.233 633.297L-411.491 633.31L-409.744 633.324L-407.99 633.336L-406.231 633.35L-404.465 633.363L-402.694 633.376L-400.917 633.39L-399.133 633.403L-397.345 633.416L-395.549 633.43L-393.748 633.444L-391.941 633.458L-390.127 633.471L-388.309 633.485L-386.483 633.499L-384.653 633.512L-382.816 633.526L-380.973 633.54L-379.124 633.555L-377.27 633.568L-375.41 633.582L-373.543 633.596L-371.671 633.611L-369.793 633.624L-367.908 633.639L-366.018 633.653L-364.122 633.668L-362.22 633.681L-360.312 633.696L-358.399 633.711L-356.479 633.726L-354.553 633.739L-352.623 633.754L-350.686 633.769L-348.742 633.784L-346.794 633.798L-344.839 633.813L-342.878 633.828L-340.912 633.843L-338.94 633.857L-336.962 633.872L-334.978 633.887L-332.988 633.903L-330.993 633.918L-328.992 633.932L-326.984 633.948L-324.971 633.963L-322.953 633.978L-320.928 633.994L-318.898 634.008L-316.862 634.024L-314.819 634.04L-312.773 634.055L-310.719 634.071L-308.659 634.086L-306.594 634.101L-304.523 634.117L-302.447 634.133L-300.364 634.149L-298.276 634.164L-296.183 634.18L-294.084 634.196L-291.978 634.212L-289.867 634.228L-287.75 634.244L-285.627 634.259L-283.499 634.276L-281.366 634.292L-279.227 634.308L-277.081 634.325L-274.929 634.341L-272.773 634.357L-270.61 634.373L-268.442 634.389L-266.268 634.406L-264.089 634.422L-261.904 634.439L-259.712 634.456L-257.516 634.472L-255.314 634.488L-253.106 634.505L-250.892 634.522L-248.673 634.539L-246.448 634.556L-244.218 634.573L-241.981 634.59L-239.739 634.607L-237.492 634.623L-235.24 634.64L-232.981 634.657L-230.717 634.674L-228.446 634.691L-226.17 634.709L-223.889 634.726L-221.603 634.743L-219.311 634.761L-217.013 634.777L-214.71 634.795L-212.4 634.812L-210.085 634.83L-207.765 634.847L-205.439 634.865L-203.107 634.883L-200.77 634.9L-198.428 634.918L-196.08 634.936L-193.726 634.954L-191.367 634.972L-189.002 634.99L-186.632 635.008L-184.256 635.025L-181.874 635.043L-179.487 635.061L-177.095 635.079L-174.697 635.097L-172.294 635.115L-169.884 635.133L-167.47 635.152L-165.05 635.17L-162.624 635.188L-160.193 635.207L-157.756 635.225L-155.315 635.244L-152.867 635.262L-150.414 635.281L-147.956 635.299L-145.491 635.318L-143.022 635.337L-140.547 635.355L-138.067 635.374L-135.581 635.393L-133.09 635.412L-130.594 635.43L-128.091 635.449L-125.584 635.468L-123.071 635.486L-120.552 635.505L-118.028 635.524L-115.5 635.543L-112.965 635.562L-110.425 635.583L-107.879 635.601L-105.328 635.62L-102.773 635.639L-100.21 635.66L-97.6429 635.679L-95.0707 635.699L-92.4932 635.718L-89.9094 635.737L-87.3214 635.757L-84.7271 635.776L-82.1274 635.796L-79.5236 635.816L-76.9134 635.835L-74.2979 635.855L-71.6772 635.875L-69.0512 635.895L-66.4199 635.914L-63.7823 635.934L-61.1405 635.954L-58.4934 635.974L-55.8399 635.994L-53.1823 636.014L-50.5193 636.034L-47.8501 636.054L-45.1766 636.074L-42.4968 636.095L-39.8117 636.115L-37.1224 636.135L-34.4268 636.155L-31.7269 636.177L-29.0207 636.197L-26.3103 636.217L-23.5936 636.238L-20.8716 636.258L-18.1453 636.279L-15.4128 636.299L-12.676 636.32L-9.93285 636.341L-7.18551 636.361L-4.43186 636.382L-1.67396 636.403L1.09025 636.423L3.85864 636.445L6.63238 636.466L9.41243 636.487L12.1967 636.508L14.9862 636.529L17.781 636.55L20.5811 636.571L23.3865 636.592L26.1971 636.613L29.013 636.634L31.8331 636.656L34.6596 636.678L37.4913 636.699L40.3273 636.72L43.1686 636.741L46.0161 636.763L48.8679 636.784L51.7249 636.806L54.5873 636.827L57.4538 636.85L60.3267 636.871L63.2049 636.893L66.0872 636.914L68.9749 636.936L71.8689 636.958L74.7671 636.979L77.6695 637.002L80.5783 637.024L83.4923 637.046L86.4105 637.068L89.3341 637.09L92.2629 637.112L95.197 637.135L98.1363 637.157L101.081 637.179L104.03 637.201L106.984 637.223L109.943 637.245L112.908 637.267L115.878 637.291L118.852 637.313L121.832 637.335L124.816 637.357L127.806 637.38L130.801 637.403L133.801 637.426L136.806 637.448L139.816 637.471L142.83 637.493L145.851 637.516L148.876 637.54L151.906 637.562L154.94 637.585L157.981 637.608L161.025 637.63L164.076 637.654L167.131 637.677L170.191 637.7L173.255 637.723L176.326 637.746L179.4 637.77L182.481 637.793L185.566 637.816L188.655 637.839L188.671 635.729L185.582 635.706L182.497 635.683L179.416 635.66L176.341 635.636L173.271 635.613L170.206 635.59L167.147 635.567L164.091 635.543L161.041 635.521L157.996 635.498L154.957 635.475L151.921 635.452L148.891 635.43L145.866 635.406L142.846 635.383L139.832 635.361L136.822 635.338L133.817 635.316L130.816 635.292L127.822 635.27L124.832 635.248L121.847 635.225L118.868 635.203L115.894 635.181L112.924 635.157L109.959 635.135L107 635.113L104.046 635.091L101.097 635.069L98.1522 635.047L95.2128 635.024L92.2787 635.002L89.3499 634.98L86.4264 634.958L83.5081 634.936L80.5941 634.914L77.6854 634.891L74.7829 634.869L71.8848 634.848L68.9918 634.826L66.1031 634.804L63.2207 634.783L60.3426 634.761L57.4707 634.74L54.6031 634.717L51.7408 634.696L48.8837 634.674L46.0319 634.653L43.1844 634.631L40.3431 634.61L37.5072 634.589L34.6755 634.568L31.849 634.545L29.0288 634.524L26.213 634.503L23.4023 634.482L20.597 634.461L17.7968 634.44L15.002 634.419L12.2125 634.398L9.42821 634.377L6.64822 634.355L3.87448 634.334L1.10602 634.313L-1.65819 634.293L-4.41602 634.272L-7.16974 634.251L-9.91707 634.231L-12.6602 634.21L-15.3969 634.189L-18.1295 634.169L-20.8558 634.148L-23.5778 634.128L-26.2934 634.106L-29.0049 634.086L-31.7111 634.066L-34.4109 634.045L-37.1066 634.025L-39.7959 634.005L-42.481 633.985L-45.1598 633.964L-47.8343 633.944L-50.5025 633.924L-53.1665 633.904L-55.8241 633.884L-58.4776 633.864L-61.1246 633.844L-63.7665 633.824L-66.4031 633.805L-69.0354 633.785L-71.6614 633.765L-74.2821 633.745L-76.8976 633.725L-79.5067 633.706L-82.1116 633.685L-84.7112 633.667L-87.3056 633.646L-89.8936 633.626L-92.4774 633.607L-95.0549 633.588L-97.6271 633.568L-100.194 633.549L-102.756 633.529L-105.312 633.51L-107.863 633.491L-110.409 633.472L-112.948 633.453L-115.484 633.433L-118.013 633.414L-120.536 633.395L-123.055 633.376L-125.568 633.357L-128.076 633.338L-130.577 633.319L-133.074 633.301L-135.565 633.282L-138.051 633.263L-140.531 633.244L-143.007 633.227L-145.475 633.208L-147.94 633.189L-150.398 633.171L-152.851 633.152L-155.299 633.134L-157.74 633.115L-160.177 633.097L-162.608 633.078L-165.034 633.06L-167.454 633.042L-169.868 633.023L-172.278 633.005L-174.681 632.987L-177.079 632.969L-179.471 632.951L-181.859 632.933L-184.24 632.915L-186.616 632.897L-188.986 632.879L-191.351 632.861L-193.71 632.844L-196.064 632.826L-198.412 632.808L-200.754 632.79L-203.091 632.773L-205.423 632.755L-207.749 632.737L-210.069 632.72L-212.384 632.702L-214.693 632.685L-216.997 632.667L-219.295 632.65L-221.587 632.633L-223.874 632.616L-226.155 632.599L-228.43 632.581L-230.701 632.564L-232.965 632.547L-235.224 632.53L-237.476 632.513L-239.724 632.496L-241.966 632.48L-244.202 632.463L-246.433 632.446L-248.658 632.429L-250.876 632.412L-253.09 632.395L-255.298 632.378L-257.5 632.362L-259.697 632.346L-261.888 632.329L-264.073 632.313L-266.253 632.296L-268.426 632.279L-270.594 632.263L-272.757 632.246L-274.913 632.231L-277.065 632.215L-279.21 632.198L-281.349 632.182L-283.484 632.166L-285.612 632.149L-287.734 632.133L-289.851 632.118L-291.962 632.102L-294.068 632.086L-296.167 632.07L-298.261 632.054L-300.348 632.039L-302.431 632.023L-304.507 632.007L-306.579 631.991L-308.643 631.976L-310.703 631.96L-312.756 631.945L-314.804 631.93L-316.846 631.914L-318.882 631.898L-320.912 631.883L-322.937 631.868L-324.955 631.853L-326.968 631.838L-328.976 631.822L-330.977 631.807L-332.973 631.793L-334.962 631.777L-336.946 631.762L-338.924 631.747L-340.896 631.733L-342.863 631.718L-344.823 631.703L-346.778 631.688L-348.726 631.673L-350.67 631.659L-352.607 631.644L-354.538 631.629L-356.463 631.615L-358.382 631.601L-360.296 631.586L-362.204 631.572L-364.106 631.557L-366.002 631.543L-367.892 631.529L-369.777 631.514L-371.655 631.5L-373.526 631.487L-375.394 631.472L-377.254 631.458L-379.109 631.444L-380.957 631.43L-382.8 631.416L-384.637 631.402L-386.467 631.389L-388.293 631.375L-390.112 631.361L-391.925 631.347L-393.733 631.334L-395.533 631.32L-397.328 631.306L-399.117 631.293L-400.902 631.28L-402.678 631.266L-404.45 631.252L-406.215 631.24L-407.975 631.226L-409.728 631.213L-411.475 631.2L-413.217 631.187L-414.953 631.173L-416.682 631.161L-418.405 631.148L-420.122 631.134L-421.834 631.122L-423.539 631.109L-425.238 631.096L-426.932 631.084L-428.619 631.07L-430.3 631.057L-431.975 631.045L-433.644 631.032L-435.308 631.02L-436.964 631.008L-438.615 630.995L-440.26 630.982L-441.898 630.97L-443.532 630.958L-445.159 630.945L-446.779 630.934L-448.393 630.921L-450.002 630.909L-451.604 630.897L-453.2 630.885L-454.79 630.873L-456.375 630.861L-457.952 630.849L-459.524 630.837L-461.09 630.825L-462.649 630.814L-464.202 630.802L-465.75 630.79L-467.291 630.779L-468.826 630.767L-470.355 630.756L-471.878 630.744L-473.394 630.732L-474.904 630.721L-476.409 630.71L-477.907 630.699L-479.399 630.687L-480.884 630.676L-482.364 630.665L-483.838 630.653L-485.304 630.643L-486.765 630.632L-488.22 630.62L-489.669 630.61L-491.111 630.598L-492.547 630.588L-493.976 630.577L-495.401 630.567L-496.818 630.556L-498.229 630.545L-499.635 630.534L-501.034 630.523L-502.426 630.513L-503.813 630.503L-505.193 630.493L-506.566 630.482L-507.934 630.472L-509.295 630.461L-510.65 630.452L-511.999 630.441L-513.342 630.431L-514.678 630.421L-516.008 630.411L-517.331 630.401L-518.649 630.39L-519.96 630.381L-521.264 630.371L-522.563 630.361L-523.855 630.351L-525.141 630.342L-526.421 630.332L-527.694 630.323L-528.961 630.313L-530.221 630.304L-531.476 630.294L-532.724 630.285L-533.966 630.275L-535.201 630.266L-536.429 630.256L-537.652 630.247L-538.869 630.239L-540.079 630.229L-541.281 630.221L-542.479 630.211L-543.67 630.202L-544.854 630.193L-546.032 630.185L-547.204 630.175L-548.369 630.167L-549.528 630.158L-550.68 630.149L-551.826 630.14L-552.966 630.132L-554.099 630.124L-555.226 630.115L-556.346 630.107L-557.46 630.098L-558.568 630.09L-559.669 630.081L-560.763 630.073L-561.852 630.064L-562.933 630.057L-564.009 630.049L-565.077 630.04L-566.14 630.033L-567.196 630.024L-568.245 630.017L-569.288 630.009L-570.325 630.001L-571.355 629.993L-572.379 629.985L-573.396 629.978L-574.406 629.971L-575.41 629.962L-576.408 629.955L-577.399 629.947L-578.384 629.94L-579.362 629.933L-580.333 629.925L-581.298 629.918L-582.257 629.91L-583.209 629.904L-584.154 629.897L-585.093 629.889L-586.026 629.882L-586.951 629.876L-587.871 629.868L-588.784 629.862L-589.69 629.855L-590.589 629.848L-591.482 629.841L-592.369 629.834L-593.249 629.828L-594.122 629.822L-594.989 629.814L-595.849 629.808L-596.703 629.802L-597.55 629.795L-598.39 629.789L-599.224 629.783L-600.051 629.776L-600.871 629.77L-601.685 629.764L-602.493 629.758L-603.293 629.752L-604.088 629.746L-604.875 629.741L-605.656 629.734L-606.43 629.728L-607.197 629.723L-607.958 629.717L-608.712 629.711L-609.46 629.706L-610.201 629.7L-610.935 629.694L-611.662 629.689L-612.383 629.684L-613.097 629.678L-613.805 629.673L-614.506 629.668L-615.2 629.662L-615.887 629.657L-616.568 629.652L-617.242 629.647L-617.909 629.641L-618.57 629.637L-619.224 629.632L-619.871 629.627L-620.511 629.622L-621.145 629.617L-621.772 629.613L-622.392 629.608L-623.006 629.603L-623.612 629.599L-624.212 629.594L-624.806 629.59L-625.392 629.585L-625.972 629.581L-626.545 629.577L-627.111 629.573L-627.67 629.569L-628.223 629.564L-628.768 629.56L-629.307 629.556L-629.84 629.552L-630.365 629.547L-630.884 629.544L-631.396 629.54L-631.9 629.536L-632.399 629.533L-632.89 629.528L-633.375 629.525L-633.852 629.521L-634.323 629.518L-634.787 629.515L-635.244 629.511L-635.695 629.507L-636.138 629.504L-636.575 629.501L-637.005 629.498L-637.428 629.495L-637.844 629.492L-638.253 629.488L-638.655 629.485L-639.051 629.482L-639.439 629.479L-639.821 629.477L-640.196 629.474L-640.564 629.47L-640.925 629.468L-641.279 629.465L-641.626 629.463L-641.966 629.46L-642.3 629.458L-642.626 629.456L-642.946 629.453L-643.258 629.45L-643.564 629.448L-643.863 629.446L-644.154 629.444L-644.439 629.442L-644.717 629.44L-644.988 629.438L-645.252 629.436L-645.509 629.434L-645.759 629.431L-646.002 629.429L-646.238 629.428L-646.467 629.426L-646.689 629.425L-646.905 629.423L-647.113 629.421L-647.314 629.42L-647.508 629.419L-647.695 629.417L-647.875 629.416L-648.049 629.415L-648.215 629.413L-648.374 629.411L-648.526 629.41L-648.671 629.409L-648.809 629.408L-648.94 629.407H-649.064L-649.181 629.406L-649.29 629.405L-649.393 629.404L-649.489 629.403H-649.578L-649.659 629.402H-649.734L-649.801 629.401H-649.861L-649.915 629.4H-649.961H-650H-650.032L-650.057 629.399H-650.075H-650.085ZM-650.097 913.214C-650.776 912.407 -650.775 912.406 -650.772 912.404L-650.761 912.394L-650.717 912.357L-650.706 912.348L-650.613 912.271L-650.543 912.213L-650.414 912.105L-650.267 911.984C-650.15 911.888 -650.014 911.776 -649.857 911.647C-649.249 911.149 -648.34 910.412 -647.132 909.451C-644.718 907.527 -641.112 904.711 -636.336 901.127C-626.785 893.96 -612.556 883.726 -593.835 871.448C-556.394 846.891 -500.979 814.157 -429.064 781.425C-285.233 715.959 -75.3941 650.5 188.663 650.5V652.61C-75.0396 652.61 -284.581 717.981 -428.189 783.345C-499.994 816.028 -555.315 848.708 -592.678 873.212C-611.36 885.465 -625.552 895.672 -635.07 902.815C-639.829 906.386 -643.419 909.191 -645.818 911.101C-647.018 912.057 -647.919 912.788 -648.52 913.28C-648.821 913.527 -649.046 913.712 -649.195 913.837C-649.256 913.886 -649.303 913.926 -649.339 913.956L-649.363 913.976L-649.405 914.011L-649.415 914.019C-649.415 914.019 -649.416 914.02 -649.467 913.961C-649.537 913.879 -649.703 913.683 -650.097 913.214ZM-650.548 794.092C-650.551 794.093 -650.552 794.094 -650.097 795.046C-649.642 795.997 -649.641 795.997 -649.639 795.996L-649.629 795.991L-649.587 795.972L-649.419 795.892C-649.269 795.821 -649.044 795.716 -648.743 795.575C-648.496 795.46 -648.199 795.323 -647.851 795.163C-647.639 795.065 -647.407 794.958 -647.157 794.844C-646.819 794.69 -646.447 794.52 -646.04 794.337C-643.64 793.25 -640.049 791.655 -635.289 789.624C-625.769 785.563 -611.574 779.758 -592.888 772.79C-555.517 758.854 -500.184 740.27 -428.362 721.684C-284.718 684.513 -75.1177 647.335 188.663 647.335V645.225C-75.3161 645.225 -285.096 682.43 -428.891 719.641C-500.789 738.247 -556.191 756.854 -593.625 770.813C-612.342 777.792 -626.568 783.609 -636.117 787.683C-640.891 789.72 -644.497 791.321 -646.91 792.414C-648.117 792.96 -649.026 793.38 -649.634 793.662C-649.805 793.743 -649.952 793.811 -650.075 793.869C-650.171 793.914 -650.253 793.953 -650.32 793.984L-650.493 794.065L-650.537 794.087L-650.548 794.092ZM-650.097 700.089C-650.294 699.053 -650.292 699.052 -650.29 699.052L-650.279 699.05L-650.236 699.041L-650.064 699.009C-649.911 698.981 -649.684 698.938 -649.38 698.882C-648.774 698.77 -647.867 698.603 -646.662 698.387C-644.252 697.953 -640.65 697.318 -635.879 696.51C-626.337 694.894 -612.12 692.584 -593.411 689.813C-555.994 684.272 -500.611 676.885 -428.735 669.497C-284.982 654.723 -75.2559 639.949 188.663 639.949V642.06C-75.1778 642.06 -284.831 656.829 -428.518 671.596C-500.363 678.98 -555.714 686.363 -593.102 691.9C-611.796 694.669 -625.999 696.976 -635.527 698.591C-640.29 699.398 -643.885 700.032 -646.289 700.463C-647.014 700.594 -647.631 700.706 -648.139 700.799C-648.472 700.86 -648.758 700.913 -648.997 700.957C-649.298 701.013 -649.524 701.055 -649.675 701.083L-649.844 701.115L-649.886 701.123L-649.897 701.125C-649.899 701.125 -649.9 701.126 -650.097 700.089Z" fill="url(#paint1_linear_235_1074)"/>
<rect x="129.515" y="576.433" width="109.505" height="108.34" rx="27.9588" fill="url(#paint2_linear_235_1074)"/>
<path fill-rule="evenodd" clip-rule="evenodd" d="M185.411 599.965C184.658 599.81 183.881 599.81 183.128 599.965C182.257 600.144 181.479 600.58 180.861 600.926L180.692 601.02L159.728 612.667C159.67 612.699 159.611 612.732 159.549 612.766C158.895 613.126 158.071 613.58 157.439 614.266C156.893 614.859 156.479 615.562 156.226 616.328C155.933 617.214 155.937 618.154 155.939 618.901C155.94 618.971 155.94 619.039 155.94 619.106V642.101C155.94 642.167 155.94 642.235 155.939 642.305C155.937 643.053 155.933 643.993 156.226 644.879C156.479 645.645 156.893 646.348 157.439 646.941C158.071 647.627 158.895 648.08 159.549 648.441C159.611 648.475 159.67 648.508 159.728 648.54L180.692 660.186L180.861 660.28C181.479 660.627 182.257 661.063 183.128 661.242C183.881 661.397 184.658 661.397 185.411 661.242C186.281 661.063 187.059 660.627 187.678 660.28L187.846 660.186L208.81 648.54C208.836 648.525 208.862 648.511 208.888 648.497C208.921 648.478 208.955 648.46 208.989 648.441C209.644 648.08 210.467 647.627 211.099 646.941C211.646 646.348 212.06 645.645 212.313 644.879C212.605 643.993 212.602 643.053 212.599 642.305C212.599 642.235 212.599 642.167 212.599 642.101V619.106C212.599 619.039 212.599 618.971 212.599 618.901C212.602 618.154 212.605 617.214 212.313 616.328C212.06 615.562 211.646 614.859 211.099 614.266C210.467 613.58 209.644 613.126 208.989 612.766L208.987 612.764C208.926 612.731 208.867 612.699 208.81 612.667L187.846 601.02L187.678 600.926C187.059 600.58 186.281 600.144 185.411 599.965ZM183.444 605.973C183.873 605.735 184.092 605.614 184.256 605.535L184.269 605.529L184.283 605.535C184.446 605.614 184.665 605.735 185.095 605.973L203.932 616.438L184.269 627.362L164.606 616.438L183.444 605.973ZM161.606 621.253L181.436 632.27L181.436 654.118L162.48 643.587C162.027 643.335 161.795 643.205 161.633 643.102L161.619 643.093L161.618 643.077C161.607 642.885 161.606 642.619 161.606 642.101V621.253Z" fill="white"/>
<g opacity="0.4">
<g opacity="0.6" filter="url(#filter0_f_235_1074)">
<circle cx="531.5" cy="243.129" r="60.5" fill="#0088FF"/>
</g>
</g>
<defs>
<filter id="filter0_f_235_1074" x="321" y="32.6289" width="421" height="421" filterUnits="userSpaceOnUse" color-interpolation-filters="sRGB">
<feFlood flood-opacity="0" result="BackgroundImageFix"/>
<feBlend mode="normal" in="SourceGraphic" in2="BackgroundImageFix" result="shape"/>
<feGaussianBlur stdDeviation="75" result="effect1_foregroundBlur_235_1074"/>
</filter>
<linearGradient id="paint0_linear_235_1074" x1="199.28" y1="495.388" x2="1010" y2="495.388" gradientUnits="userSpaceOnUse">
<stop offset="0.0182341" stop-color="#3290D9"/>
<stop offset="0.127609" stop-color="#328FD9"/>
<stop offset="0.563305" stop-color="#2BC8AB"/>
<stop offset="0.943305" stop-color="#2BC8AB"/>
</linearGradient>
<linearGradient id="paint1_linear_235_1074" x1="176.004" y1="495.388" x2="-634.714" y2="495.388" gradientUnits="userSpaceOnUse">
<stop offset="0.0182341" stop-color="#3290D9"/>
<stop offset="0.127609" stop-color="#328FD9"/>
<stop offset="0.563305" stop-color="#2BC8AB"/>
<stop offset="0.943305" stop-color="#2BC8AB"/>
</linearGradient>
<linearGradient id="paint2_linear_235_1074" x1="193.442" y1="729.867" x2="85.1083" y2="620.368" gradientUnits="userSpaceOnUse">
<stop stop-color="#2BC8AB"/>
<stop offset="1" stop-color="#328CDC"/>
</linearGradient>
</defs>
</svg>
