<svg width="1280" height="64" viewBox="0 0 1280 64" fill="none" xmlns="http://www.w3.org/2000/svg">
<g clip-path="url(#clip0_78_1212)">
<path d="M135.739 22.5923H140V41.1404H135.521L128.857 29.2127V41.1404H124.569V22.5923H129.048L135.739 34.6568V22.5923ZM107.69 22.0999C113.835 22.0999 117.468 26.7506 117.468 31.839C117.468 36.9274 113.808 41.5781 107.69 41.5781C101.518 41.5781 97.8852 36.9274 97.8852 31.839C97.8852 26.7779 101.545 22.0999 107.69 22.0999ZM113.126 31.8663C113.126 28.8297 111.049 25.9846 107.717 25.9846C104.331 25.9846 102.31 28.8297 102.31 31.8663C102.31 34.903 104.358 37.7481 107.717 37.7481C111.049 37.7208 113.126 34.903 113.126 31.8663ZM38.5369 26.2855V22.5923H51.2095V26.2855H47.0035V41.113H42.7155V26.2855H38.5369ZM83.9293 30.2523H90.9482V33.6172H83.9566V37.6934H90.9482V41.1404H79.6684V22.5923H90.9482V26.0393H83.9566V30.2523H83.9293ZM65.6301 22.5923C69.7269 22.5923 72.3758 25.6836 72.3758 29.2948C72.3758 31.8937 71.0108 34.1917 68.689 35.286L72.4031 41.1404H67.4327L64.1553 35.9973H62.1342V41.1404H57.8462V22.5923H65.6301ZM68.0336 29.2948C68.0336 27.5713 66.8592 26.094 65.0839 26.094H62.1615V32.4956H65.0839C66.8865 32.4956 68.0336 31.0183 68.0336 29.2948ZM30.1522 38.8698H23.5701L22.8599 41.113H18.2988L24.9083 22.5649H28.8412L35.5326 41.113H30.8896L30.1522 38.8698ZM26.8748 27.8722L24.6079 35.5049H29.1143L26.8748 27.8722ZM7.75656 22.5923C11.8533 22.5923 14.5025 25.6836 14.5025 29.2948C14.5025 32.9059 11.8533 35.9973 7.75656 35.9973H4.28794V41.1404H0V22.5923H7.75656ZM10.1873 29.2948C10.1873 27.5713 9.01285 26.094 7.23758 26.094H4.28794V32.4956H7.21028C9.01285 32.4956 10.1873 31.0183 10.1873 29.2948Z" fill="black"/>
</g>
<g clip-path="url(#clip1_78_1212)">
<path d="M262.117 20.8277C262.117 22.4022 260.848 23.6705 259.273 23.6705C257.699 23.6705 256.431 22.4022 256.431 20.8277C256.431 19.2532 257.655 17.9848 259.273 17.9848C260.892 18.0286 262.117 19.2969 262.117 20.8277ZM250.395 26.5571C250.395 26.8195 250.395 27.2569 250.395 27.2569C250.395 27.2569 249.039 25.5075 246.153 25.5075C241.385 25.5075 237.668 29.1376 237.668 34.1672C237.668 39.1532 241.342 42.8271 246.153 42.8271C249.083 42.8271 250.395 41.0339 250.395 41.0339V41.7774C250.395 42.1273 250.658 42.3897 251.007 42.3897H254.55V25.9448C254.55 25.9448 251.314 25.9448 251.007 25.9448C250.658 25.9448 250.395 26.251 250.395 26.5571ZM250.395 37.0976C249.739 38.0598 248.427 38.8908 246.852 38.8908C244.053 38.8908 241.91 37.1413 241.91 34.1672C241.91 31.1932 244.053 29.4438 246.852 29.4438C248.383 29.4438 249.783 30.3185 250.395 31.237V37.0976ZM257.174 25.9448H261.373V42.3897H257.174V25.9448ZM319.892 25.5075C317.006 25.5075 315.65 27.2569 315.65 27.2569V18.0286H311.451V42.3897C311.451 42.3897 314.687 42.3897 314.993 42.3897C315.343 42.3897 315.606 42.0835 315.606 41.7774V41.0339C315.606 41.0339 316.962 42.8271 319.849 42.8271C324.616 42.8271 328.333 39.1532 328.333 34.1672C328.333 29.1813 324.616 25.5075 319.892 25.5075ZM319.193 38.8471C317.574 38.8471 316.306 38.016 315.65 37.0539V31.1932C316.306 30.3185 317.705 29.4 319.193 29.4C321.991 29.4 324.135 31.1495 324.135 34.1235C324.135 37.0976 321.991 38.8471 319.193 38.8471ZM309.265 32.6365V42.4335H305.065V33.1176C305.065 30.4059 304.191 29.3125 301.829 29.3125C300.561 29.3125 299.248 29.9686 298.417 30.9308V42.3897H294.219V25.9448H297.543C297.893 25.9448 298.155 26.251 298.155 26.5571V27.2569C299.38 25.9886 300.998 25.5075 302.616 25.5075C304.453 25.5075 305.984 26.0323 307.209 27.082C308.695 28.3066 309.265 29.8811 309.265 32.6365ZM284.028 25.5075C281.142 25.5075 279.786 27.2569 279.786 27.2569V18.0286H275.588V42.3897C275.588 42.3897 278.824 42.3897 279.13 42.3897C279.48 42.3897 279.742 42.0835 279.742 41.7774V41.0339C279.742 41.0339 281.098 42.8271 283.985 42.8271C288.752 42.8271 292.469 39.1532 292.469 34.1672C292.513 29.1813 288.796 25.5075 284.028 25.5075ZM283.329 38.8471C281.71 38.8471 280.442 38.016 279.786 37.0539V31.1932C280.442 30.3185 281.841 29.4 283.329 29.4C286.127 29.4 288.271 31.1495 288.271 34.1235C288.271 37.0976 286.127 38.8471 283.329 38.8471ZM271.957 25.5075C273.226 25.5075 273.882 25.7261 273.882 25.7261V29.6187C273.882 29.6187 270.382 28.4378 268.196 30.9308V42.4335H263.997V25.9448C263.997 25.9448 267.234 25.9448 267.54 25.9448C267.89 25.9448 268.152 26.251 268.152 26.5571V27.2569C268.94 26.3384 270.645 25.5075 271.957 25.5075ZM228.352 40.9026C228.133 40.3778 227.915 39.8092 227.696 39.3281C227.346 38.5409 226.996 37.7974 226.69 37.0976L226.646 37.0539C223.628 30.4934 220.392 23.8455 216.981 17.285L216.849 17.0226C216.499 16.3666 216.15 15.6668 215.8 14.967C215.362 14.1798 214.925 13.3488 214.225 12.5615C212.826 10.8121 210.814 9.84985 208.671 9.84985C206.484 9.84985 204.516 10.8121 203.072 12.474C202.416 13.2613 201.935 14.0923 201.498 14.8795C201.148 15.5793 200.798 16.2791 200.448 16.9351L200.317 17.1975C196.949 23.758 193.669 30.4059 190.651 36.9664L190.608 37.0539C190.301 37.7537 189.951 38.4971 189.602 39.2844C189.383 39.7655 189.164 40.2903 188.946 40.8589C188.377 42.4771 188.202 44.008 188.421 45.5825C188.902 48.8627 191.089 51.6181 194.106 52.8427C195.244 53.3238 196.424 53.5425 197.649 53.5425C197.999 53.5425 198.436 53.4987 198.786 53.455C200.23 53.28 201.717 52.7989 203.16 51.9679C204.953 50.962 206.659 49.5187 208.583 47.4193C210.508 49.5187 212.257 50.962 214.006 51.9679C215.45 52.7989 216.937 53.28 218.38 53.455C218.73 53.4987 219.167 53.5425 219.517 53.5425C220.742 53.5425 221.966 53.3238 223.06 52.8427C226.121 51.6181 228.265 48.8189 228.746 45.5825C229.095 44.0516 228.921 42.5209 228.352 40.9026ZM208.627 43.1769C206.265 40.2029 204.734 37.4037 204.21 35.042C203.991 34.036 203.947 33.1613 204.078 32.3741C204.166 31.6743 204.428 31.062 204.778 30.5372C205.609 29.3563 207.009 28.6127 208.627 28.6127C210.245 28.6127 211.688 29.3125 212.476 30.5372C212.826 31.062 213.088 31.6743 213.175 32.3741C213.307 33.1613 213.263 34.0798 213.044 35.042C212.519 37.36 210.989 40.1592 208.627 43.1769ZM226.078 45.2325C225.772 47.5068 224.241 49.475 222.098 50.3497C221.048 50.787 219.911 50.9183 218.774 50.787C217.68 50.6559 216.587 50.3059 215.45 49.6499C213.875 48.7752 212.301 47.4193 210.464 45.4075C213.35 41.8648 215.1 38.6284 215.756 35.7417C216.062 34.386 216.106 33.1613 215.975 32.0242C215.8 30.9308 215.406 29.9248 214.794 29.0501C213.438 27.082 211.164 25.9448 208.627 25.9448C206.09 25.9448 203.816 27.1257 202.46 29.0501C201.848 29.9248 201.454 30.9308 201.279 32.0242C201.104 33.1613 201.148 34.4297 201.498 35.7417C202.154 38.6284 203.947 41.9086 206.79 45.4512C204.997 47.4631 203.379 48.8189 201.804 49.6936C200.667 50.3497 199.573 50.6996 198.48 50.8308C197.299 50.962 196.162 50.787 195.156 50.3934C193.013 49.5187 191.482 47.5506 191.176 45.2763C191.045 44.1829 191.132 43.0895 191.57 41.8648C191.701 41.4275 191.92 40.9901 192.138 40.4653C192.444 39.7655 192.794 39.022 193.144 38.2785L193.188 38.191C196.206 31.6743 199.442 25.0263 202.81 18.5534L202.941 18.2909C203.291 17.6349 203.641 16.9351 203.991 16.2791C204.341 15.5793 204.734 14.9233 205.215 14.3547C206.134 13.305 207.359 12.7365 208.714 12.7365C210.07 12.7365 211.295 13.305 212.213 14.3547C212.694 14.9233 213.088 15.5793 213.438 16.2791C213.788 16.9351 214.138 17.6349 214.488 18.2909L214.619 18.5534C217.943 25.0701 221.179 31.718 224.197 38.2347V38.2785C224.547 38.9783 224.853 39.7655 225.203 40.4653C225.422 40.9901 225.64 41.4275 225.772 41.8648C226.121 43.002 226.253 44.0954 226.078 45.2325Z" fill="black"/>
</g>
<g clip-path="url(#clip2_78_1212)">
<path fill-rule="evenodd" clip-rule="evenodd" d="M404.508 44.6183C402.102 47.0244 398.418 47.0244 391.79 47.0244C385.163 47.0244 381.479 47.023 379.072 44.6183C376.667 42.2121 376.667 38.5273 376.667 31.9C376.667 25.2742 376.667 21.5879 379.072 19.1832C381.479 16.7756 385.163 16.7756 391.79 16.7756C398.418 16.7756 402.102 16.7756 404.508 19.1832C406.916 21.5893 406.916 25.2727 406.916 31.9C406.916 38.5273 406.916 42.2121 404.508 44.6183ZM393.236 29.9572L384.107 29.9393L384.105 32.1874L392.722 32.2039L392.215 34.4478L384.105 34.4313V36.678L391.707 36.6944H391.695C391.401 37.8274 392.23 38.9508 393.368 38.9508H394.947L395.818 36.6944H391.707L392.215 34.4505L397.382 34.4602L398.183 32.2135L392.733 32.2039L393.243 29.9572L400.621 29.9215L401.535 27.6845L393.753 27.7106L393.236 29.9572ZM392.424 25.4557L384.107 25.4378L384.105 27.6858L393.752 27.7024L393.838 27.3105C394.054 26.3645 393.364 25.4557 392.424 25.4557Z" fill="black"/>
<path d="M430.437 40.6437H434.303L434.677 38.3317H435.381C435.943 40.0311 437.465 40.8794 439.036 40.8794C442.291 40.8794 444.284 38.7573 444.284 34.2296C444.284 30.2433 442.643 27.5798 439.128 27.5798C437.443 27.5798 435.943 28.5927 435.381 30.101H434.677L434.912 26.564V22.9558H430.437V40.6437ZM434.912 34.63V33.8515C434.912 32.1995 435.826 31.1865 437.419 31.1865C438.802 31.1865 439.738 31.8004 439.738 33.3799V35.1016C439.738 36.3993 439.106 37.2713 437.441 37.2713C435.78 37.2713 434.912 36.257 434.912 34.63ZM445.454 34.2519C445.454 38.2382 448.055 40.8794 452.014 40.8794C455.295 40.8794 457.706 39.134 458.036 36.4467H453.772C453.654 37.1764 452.905 37.6006 451.874 37.6006C450.819 37.6006 449.951 36.942 449.951 35.95V35.29H457.895C458.036 34.7961 458.081 34.111 458.081 33.4511C458.081 29.6308 455.341 27.5783 451.874 27.5783C448.266 27.5783 445.454 29.9838 445.454 34.2519ZM449.951 32.6013V32.3432C449.951 31.4935 450.748 30.8795 451.827 30.8795C452.905 30.8795 453.608 31.4935 453.608 32.3432V32.6013H449.951ZM468.514 27.743C467.085 27.743 465.983 28.569 465.632 30.62H464.929L464.39 27.8141H458.509V31.4223H460.455V40.6437H464.929V35.4086C464.929 32.7199 466.593 31.9651 468.489 31.9651C468.749 31.9651 469.007 31.9888 469.287 32.0125V27.8141C469.033 27.7625 468.773 27.7388 468.514 27.743ZM470.476 27.8141V44.5825H474.951V41.8938L474.716 38.3554H475.419C475.981 39.8651 477.482 40.8794 479.169 40.8794C482.682 40.8794 484.323 38.2145 484.323 34.2296C484.323 29.702 482.33 27.5798 479.073 27.5798C477.505 27.5798 475.981 28.4281 475.419 30.1247H474.716L474.341 27.8141H470.476ZM474.951 33.8277C474.951 32.2009 475.818 31.1879 477.482 31.1879C479.145 31.1879 479.777 32.0599 479.777 33.3562V35.0779C479.777 36.6588 478.841 37.2713 477.458 37.2713C475.864 37.2713 474.951 36.257 474.951 34.6063V33.8277ZM489.88 37.1541V22.9558H485.428V37.2252C485.428 39.2763 486.249 40.6451 488.825 40.6451H492.785V37.1555H489.88V37.1541ZM493.608 37.0341C493.608 39.3935 495.318 40.8794 497.942 40.8794C500.12 40.8794 501.643 39.8651 502.136 38.3554H502.767V40.6437H507.454V37.3411H505.836V32.226C505.836 29.4438 504.244 27.5798 500.167 27.5798C496.418 27.5798 494.241 29.2066 494.38 32.3669H498.48C498.409 31.3052 499.043 30.9521 499.957 30.9521C500.823 30.9521 501.384 31.3052 501.384 32.2023V33.098L497.825 33.3338C495.318 33.4999 493.607 34.6775 493.607 37.0369L493.608 37.0341ZM498.105 36.423C498.105 35.9276 498.458 35.4561 499.255 35.4086L501.386 35.2663V36.7522C501.034 37.295 500.331 37.648 499.464 37.648C498.526 37.648 498.107 37.2476 498.107 36.7048L498.105 36.423ZM508.811 40.6437H513.287V33.7803C513.287 32.2721 514.036 31.2103 515.535 31.2103C516.801 31.2103 517.503 31.9413 517.503 33.5222V40.6437H522V31.9413C522 29.3239 520.573 27.5783 518.018 27.5783C516.051 27.5783 514.645 28.4978 513.989 30.101H513.287L512.747 27.8141H508.811V40.6437ZM523.438 34.2519C523.438 38.2382 526.04 40.8794 529.999 40.8794C533.278 40.8794 535.692 39.134 536.02 36.4467H531.756C531.639 37.1764 530.89 37.6006 529.858 37.6006C528.804 37.6006 527.938 36.942 527.938 35.95V35.29H535.88C536.02 34.7961 536.067 34.111 536.067 33.4511C536.067 29.6308 533.326 27.5783 529.858 27.5783C526.251 27.5783 523.438 29.9838 523.438 34.2519ZM527.938 32.6013V32.3432C527.938 31.4935 528.734 30.8795 529.811 30.8795C530.89 30.8795 531.593 31.4935 531.593 32.3432V32.6013H527.938ZM420.102 27.8156H428.933V40.6437H424.438V31.4209H420.102V40.6423H415.605V31.4209H413.284V27.8156H415.605V26.7104C415.605 26.4119 415.61 26.1929 415.617 26.0547C415.625 25.9096 415.649 25.7296 415.686 25.5133C415.731 25.2985 415.801 25.0683 415.891 24.8227C416.342 23.5767 417.49 22.9572 419.335 22.9572H422.984V26.4454H420.102V27.8156ZM424.46 26.4454V22.9558H428.933V26.4454H424.46Z" fill="black"/>
</g>
<path d="M615.274 25.8806C609.825 25.8806 605.567 30.0171 605.567 35.5548C605.567 41.0924 609.717 45.1936 615.274 45.1936C620.831 45.1936 625.053 41.0216 625.053 35.5194C625.053 30.0525 620.903 25.8806 615.274 25.8806ZM615.311 41.2028C612.208 41.2028 609.934 38.7927 609.934 35.5562C609.934 32.2829 612.171 29.8742 615.274 29.8742C618.414 29.8742 620.686 32.3196 620.686 35.5562C620.686 38.7927 618.414 41.2028 615.311 41.2028ZM626.243 30.0893H628.95V44.8355H633.28V26.24H626.243V30.0893ZM594.67 29.8728C596.944 29.8728 598.748 31.2752 599.433 33.3612H604.016C603.186 28.902 599.505 25.8806 594.707 25.8806C589.258 25.8806 585 30.0171 585 35.5562C585 41.0951 589.15 45.1949 594.707 45.1949C599.398 45.1949 603.15 42.1736 603.981 37.6775H599.433C598.784 39.7635 596.979 41.2028 594.706 41.2028C591.566 41.2028 589.365 38.7927 589.365 35.5562C589.367 32.2829 591.532 29.8728 594.67 29.8728ZM708.514 33.7574L705.339 33.2904C703.823 33.0753 702.741 32.5715 702.741 31.3842C702.741 30.0893 704.149 29.4425 706.061 29.4425C708.153 29.4425 709.489 30.3412 709.777 31.8158H713.963C713.494 28.0755 710.607 25.8819 706.169 25.8819C701.586 25.8819 698.555 28.2198 698.555 31.5285C698.555 34.6929 700.541 36.5283 704.545 37.103L707.72 37.57C709.273 37.7851 710.138 38.3978 710.138 39.5484C710.138 41.023 708.623 41.6344 706.53 41.6344C703.968 41.6344 702.524 40.5914 702.308 39.0092H698.05C698.448 42.6419 701.297 45.1949 706.493 45.1949C711.221 45.1949 714.359 43.0368 714.359 39.3319C714.359 36.0232 712.087 34.2967 708.514 33.7574ZM631.115 18.5796C629.527 18.5796 628.336 19.7302 628.336 21.3124C628.336 22.8946 629.526 24.0451 631.115 24.0451C632.703 24.0451 633.894 22.8946 633.894 21.3124C633.894 19.7302 632.703 18.5796 631.115 18.5796ZM694.658 32.6069C694.658 28.5793 692.205 25.8819 687.009 25.8819C682.102 25.8819 679.359 28.3641 678.817 32.1767H683.112C683.329 30.702 684.483 29.4793 686.937 29.4793C689.138 29.4793 690.221 30.4502 690.221 31.6374C690.221 33.1842 688.236 33.5791 685.782 33.831C682.463 34.1905 678.349 35.341 678.349 39.6573C678.349 43.0028 680.84 45.1595 684.809 45.1595C687.911 45.1595 689.86 43.8647 690.835 41.8141C690.98 43.6482 692.35 44.8355 694.264 44.8355H696.789V40.9876H694.66V32.6069H694.658ZM690.4 37.2827C690.4 39.7649 688.236 41.599 685.601 41.599C683.977 41.599 682.606 40.9154 682.606 39.4776C682.606 37.6435 684.807 37.1397 686.827 36.9245C688.776 36.7448 689.859 36.3132 690.4 35.4854V37.2827ZM667.415 25.8806C664.997 25.8806 662.977 26.8882 661.533 28.5779V18.3999H657.203V44.8355H661.461V42.3901C662.904 44.152 664.962 45.1949 667.415 45.1949C672.611 45.1949 676.545 41.0951 676.545 35.5562C676.545 30.0171 672.539 25.8806 667.415 25.8806ZM666.766 41.2028C663.663 41.2028 661.389 38.7927 661.389 35.5562C661.389 32.3196 663.698 29.8742 666.801 29.8742C669.941 29.8742 672.142 32.2842 672.142 35.5562C672.142 38.7927 669.869 41.2028 666.766 41.2028ZM646.847 25.8806C644.032 25.8806 642.192 27.0311 641.109 28.6501V26.24H636.815V44.8341H641.144V34.7283C641.144 31.8866 642.949 29.8728 645.619 29.8728C648.109 29.8728 649.66 31.6347 649.66 34.1891V44.8355H653.99V33.8664C653.991 29.1893 651.574 25.8806 646.847 25.8806ZM735 34.9448C735 29.6222 731.103 25.8819 725.87 25.8819C720.313 25.8819 716.236 30.0539 716.236 35.5562C716.236 41.3471 720.602 45.1949 725.942 45.1949C730.454 45.1949 733.99 42.533 734.891 38.7573H730.38C729.73 40.4117 728.143 41.3471 726.014 41.3471C723.234 41.3471 721.141 39.6206 720.673 36.5991H734.999V34.9448H735ZM720.926 33.5056C721.613 30.9158 723.561 29.6576 725.798 29.6576C728.252 29.6576 730.128 31.0601 730.561 33.5056H720.926Z" fill="black"/>
<g clip-path="url(#clip3_78_1212)">
<path d="M783.333 33.5755C783.333 24.7757 790.264 18.5016 800.12 18.5016C803.046 18.5016 806.239 19.0465 808.03 19.8589V25.3543H807.829L800.977 20.4486C800.623 20.326 799.885 20.2467 799.186 20.2467C794.002 20.2467 790.341 25.0763 790.341 31.74C790.341 39.1825 794.903 44.978 800.699 44.978C801.091 44.9715 801.482 44.9306 801.868 44.8558L801.756 44.8097V32.4519L799.999 30.3048V30.1047H810.244V30.3048L808.486 32.4519V46.825H808.286L803.847 45.4566C802.134 46.3132 799.486 46.9362 797.106 46.9362C788.94 46.9362 783.333 41.5182 783.333 33.5755ZM814.983 29.8041L812.914 27.7353V27.5776L820.278 25.6323H820.667L820.944 29.8041H821.177C822.857 26.8449 824.337 25.6323 826.205 25.6323C826.984 25.6323 827.652 25.8661 827.997 26.1778V32.4851H827.797L823.86 29.8368C823.743 29.8122 823.624 29.8009 823.505 29.8031C822.693 29.8031 821.524 30.5818 821.135 31.5164V44.2878L823.192 46.1583V46.3584H813.225V46.1583L814.983 44.2892V29.8041ZM829.667 46.3464V46.1906L831.425 44.2772V29.8041L829.356 27.7795V27.5776L837.188 25.6305H837.577V44.2882L839.335 46.2016V46.3575H829.667V46.3464ZM831.145 19.4472C831.145 17.5338 832.436 16.3655 834.494 16.3655C836.552 16.3655 837.842 17.5338 837.842 19.4472C837.842 21.3164 836.563 22.4842 834.494 22.4842C832.425 22.4842 831.145 21.3164 831.145 19.4472ZM842.194 46.3464V46.1463L843.951 44.2772V28.4361H841.181V28.2802L843.984 25.8661C844.841 20.2149 848.312 16.3655 852.55 16.3655C853.607 16.3655 854.856 16.5992 855.354 16.8773L854.731 21.9835H854.53L848.958 19.5251C847.745 19.6473 846.698 21.6276 846.698 23.4188C846.698 25.7214 848.456 27.0008 851.447 27.0008H856.631C856.943 21.007 860.291 16.3655 864.463 16.3655C865.442 16.3655 866.61 16.5992 867.155 16.8773L866.488 21.9392H866.287L861.339 19.6012C860.204 19.7123 859.314 21.392 859.314 23.2279C859.314 25.7176 860.95 27.0086 864.109 27.0086H876.024L875.712 29.2374V44.3602L877.47 46.1957V46.3515H867.78V46.1957L869.571 44.2822V28.4361H862.752V44.2882L865.088 46.1583V46.3584H854.806V46.1583L856.597 44.2449V28.4361H850.092V44.2882L852.428 46.1583V46.3584H842.193L842.194 46.3464ZM869.304 19.4472C869.304 17.5338 870.583 16.3655 872.653 16.3655C874.755 16.3655 876.046 17.5338 876.046 19.4472C876.046 21.3164 874.755 22.4842 872.653 22.4842C870.583 22.4842 869.304 21.3164 869.304 19.4472ZM888.261 44.2882L890.018 46.1583V46.3584H880.351V46.1583L882.109 44.2892V29.8119L880.039 27.7431V27.5425L887.404 25.6291H887.793L888.07 29.289H888.337C890.472 26.8306 892.775 25.6291 895.345 25.6291C898.816 25.6291 901.23 27.8883 901.23 31.0803V44.2851L902.988 46.1542V46.3543H893.287V46.1542L895.078 44.1628V32.3048C895.078 30.3914 893.91 29.2236 892.041 29.2236C890.796 29.2236 889.551 29.7238 888.26 30.7363L888.261 44.2882Z" fill="black"/>
</g>
<g clip-path="url(#clip4_78_1212)">
<path d="M995.666 21.8998L995.609 21.9189V30.433H987.533V21.9189L987.475 21.8998C986.275 21.6522 985.095 21.6522 983.914 21.8998L983.856 21.9189V41.4995L983.914 41.5185C984.504 41.6328 985.095 41.709 985.685 41.709C986.275 41.709 986.866 41.6518 987.475 41.5185L987.533 41.4995V33.5568H995.609V41.4995L995.666 41.5185C996.847 41.7661 998.047 41.7661 999.228 41.5185L999.285 41.4995V21.9189L999.228 21.8998C998.028 21.6713 996.847 21.6713 995.666 21.8998ZM1008.18 27.4045C1003.95 27.4045 1001.44 30.0711 1001.44 34.5472C1001.44 36.871 1001.97 38.7186 1003.04 39.9948C1004.2 41.3852 1005.93 42.09 1008.24 42.09C1012.14 42.09 1014.14 39.7661 1014.39 37.4615V37.4043L1014.33 37.3852C1013.34 37.0615 1012.43 36.9852 1011.34 37.1376H1011.3V37.1757C1011.07 38.5472 1009.93 39.3662 1008.28 39.3662C1005.95 39.3662 1004.81 38.09 1004.77 35.4615H1014.6V35.4044C1014.88 32.8139 1014.37 30.7187 1013.11 29.2902C1011.95 28.0712 1010.26 27.4045 1008.18 27.4045ZM1008.14 29.9378C1009.11 29.9378 1009.93 30.2425 1010.48 30.833C1011.06 31.4425 1011.34 32.3568 1011.28 33.4424H1004.77C1004.83 31.214 1006.07 29.9378 1008.14 29.9378ZM1016.98 21.8998L1016.92 21.9189V41.4995L1016.98 41.5185C1017.53 41.6328 1018.08 41.709 1018.66 41.709C1019.21 41.709 1019.78 41.6518 1020.33 41.5185L1020.39 41.4995V21.9189L1020.33 21.8998C1019.23 21.6522 1018.1 21.6713 1016.98 21.8998ZM1030.03 27.4045C1028.56 27.4045 1027.02 27.9759 1025.55 29.0616L1025.34 28.0331L1025.3 28.014C1024.47 27.7664 1023.78 27.7664 1022.96 28.014L1022.92 28.0331V47.5184L1022.98 47.5375C1023.53 47.6517 1024.08 47.7279 1024.66 47.7279C1025.23 47.7279 1025.78 47.6708 1026.33 47.5375L1026.39 47.5184V41.0042C1027.55 41.7471 1028.79 42.09 1030.18 42.09C1034.03 42.09 1036.33 39.3662 1036.33 34.7758C1036.31 30.1092 1034.03 27.4045 1030.03 27.4045ZM1026.33 31.2711C1027.36 30.5664 1028.31 30.2425 1029.34 30.2425C1031.68 30.2425 1032.96 31.8616 1032.96 34.8329C1032.96 37.7472 1031.7 39.29 1029.3 39.29C1028.27 39.29 1027.3 38.9662 1026.33 38.2804V31.2711ZM1051.02 30.9664C1050.43 30.7377 1049.89 30.5473 1049.38 30.3759C1046.71 29.4235 1045.11 28.8521 1045.07 27.4045C1045.06 26.7378 1045.26 26.1664 1045.72 25.6902C1046.39 25.0045 1047.51 24.6426 1048.88 24.6426C1050.24 24.6426 1051.28 25.0045 1051.91 25.6712C1052.45 26.2426 1052.67 27.0236 1052.62 27.9949V28.0521L1052.67 28.0712C1053.84 28.2997 1055 28.2807 1056.26 27.9949L1056.31 27.9759V27.9188C1056.39 26.2807 1055.89 24.8521 1054.88 23.7855C1053.63 22.4522 1051.61 21.7474 1049.06 21.7284H1048.98C1044.24 21.7284 1041.38 23.8426 1041.34 27.3855C1041.32 30.9092 1044.56 32.0901 1046.5 32.7758L1046.79 32.8901C1047.44 33.1187 1048.05 33.3282 1048.58 33.5187C1051.21 34.4329 1052.79 34.9853 1052.85 36.3757C1052.86 37.0996 1052.66 37.69 1052.22 38.1472C1051.59 38.7948 1050.48 39.1185 1049.02 39.0995C1047.4 39.0995 1046.16 38.6804 1045.46 37.9186C1044.94 37.3472 1044.73 36.6234 1044.81 35.7472V35.69L1044.75 35.671C1043.57 35.4424 1042.37 35.4615 1041.19 35.7281L1041.15 35.7472V35.8044C1041.06 37.3852 1041.53 38.7948 1042.56 39.8804C1043.93 41.3471 1046.18 42.109 1049.07 42.09C1051.91 42.09 1056.58 41.328 1056.62 36.3757C1056.56 33.0806 1053.74 32.014 1051.02 30.9664ZM1065.13 30.2425C1067.47 30.2425 1068.03 31.7663 1068.14 32.6616V32.7187H1068.2C1069.28 32.8901 1070.31 32.8139 1071.3 32.5282L1071.36 32.5092V32.452C1071.26 31.0806 1070.67 29.8425 1069.7 28.9473C1068.6 27.9378 1067.02 27.3855 1065.15 27.3855C1060.69 27.3855 1058.24 29.9949 1058.24 34.7377C1058.24 39.4614 1060.67 42.0708 1065.09 42.0708C1067 42.0708 1068.6 41.5185 1069.72 40.4709C1070.65 39.5948 1071.23 38.4138 1071.34 37.1376V37.0805L1071.28 37.0615C1070.35 36.7376 1069.32 36.6805 1068.2 36.871H1068.16V36.9091C1067.85 39.0424 1065.78 39.1948 1065.15 39.1948C1062.75 39.1948 1061.63 37.7662 1061.63 34.6996C1061.61 31.6711 1062.73 30.2425 1065.13 30.2425ZM1079.8 27.4045C1075.42 27.4045 1073 30.014 1073 34.7568C1073 39.4804 1075.42 42.09 1079.8 42.09C1084.18 42.09 1086.6 39.4804 1086.6 34.7568C1086.6 30.014 1084.18 27.4045 1079.8 27.4045ZM1083.28 34.7758C1083.28 37.8043 1082.14 39.2709 1079.8 39.2709C1077.45 39.2709 1076.31 37.8043 1076.31 34.7758C1076.31 31.6901 1077.42 30.2425 1079.8 30.2425C1082.14 30.2425 1083.28 31.7282 1083.28 34.7758ZM1097.57 28.0331L1097.51 28.0521V37.8043C1096.41 38.7567 1095.4 39.1757 1094.24 39.1757C1092.6 39.1757 1091.89 38.2424 1091.89 36.0329V28.0331L1091.84 28.014C1090.73 27.7473 1089.61 27.7473 1088.48 28.014L1088.43 28.0331V36.8138C1088.43 40.1471 1090.22 42.0708 1093.36 42.0708C1095.04 42.0708 1096.5 41.4232 1098.08 39.9756L1098.41 41.4995L1098.44 41.5185C1099.24 41.728 1100.08 41.728 1100.88 41.5185L1100.94 41.4995V28.0331L1100.88 28.014C1099.82 27.7473 1098.69 27.7473 1097.57 28.0331ZM1111.49 38.89L1111.47 38.8328L1111.42 38.8519C1110.08 39.1567 1109.3 39.1376 1108.84 38.7757C1108.46 38.4709 1108.29 37.9376 1108.29 37.0996V30.852H1111L1111.02 30.7949C1111.21 29.8806 1111.21 28.9473 1111.02 28.014L1111 27.9568H1108.29V24.2617L1108.24 24.2427C1107.13 23.995 1106.01 23.995 1104.9 24.2427L1104.84 24.2617L1104.86 27.9568H1103.15L1103.13 28.014C1102.92 28.9283 1102.92 29.8806 1103.13 30.7949L1103.15 30.852H1104.86L1104.88 36.852C1104.88 38.5281 1104.98 40.2233 1106.14 41.1947C1106.77 41.709 1107.68 41.9756 1108.86 41.9756C1109.59 41.9756 1110.43 41.8804 1111.4 41.69H1111.44L1111.45 41.6518C1111.72 40.7566 1111.74 39.8233 1111.49 38.89Z" fill="black"/>
<path d="M953.552 34.4138L962.809 25.1569C964.009 23.9759 964.752 22.3188 964.752 20.5093C964.752 18.7189 964.028 17.0808 962.866 15.8999L953.609 25.1569C952.409 26.3378 951.667 27.9949 951.667 29.8044C951.667 31.6139 952.39 33.2329 953.552 34.4138ZM975.971 29.0044L966.714 38.2614C965.514 39.4423 964.771 41.0994 964.771 42.9089C964.771 44.6993 965.495 46.3374 966.657 47.5184L975.914 38.2614C977.114 37.0805 977.857 35.4233 977.857 33.6138C977.857 31.8044 977.133 30.1853 975.971 29.0044ZM975.914 25.1759C977.114 23.995 977.857 22.3379 977.857 20.5284C977.857 18.7379 977.133 17.0999 975.971 15.9189L953.609 38.2614C952.409 39.4613 951.667 41.0994 951.667 42.928C951.667 44.7184 952.39 46.3565 953.552 47.5374L975.914 25.1759Z" fill="black"/>
</g>
<path fill-rule="evenodd" clip-rule="evenodd" d="M1223.08 24.2518C1222.08 23.4078 1220.37 22.9863 1217.94 22.9863H1212.48V39.8736H1216.57V34.5809H1218.4C1220.62 34.5809 1222.25 34.092 1223.28 33.1132C1224.45 32.0166 1225.04 30.5565 1225.04 28.7337C1225.04 26.8436 1224.39 25.3493 1223.08 24.2518ZM1218.3 30.7597H1216.57V26.8075H1218.12C1220.01 26.8075 1220.95 27.4702 1220.95 28.7955C1220.95 30.1037 1220.07 30.7597 1218.3 30.7597ZM1232.03 22.9854H1227.77V39.8727H1236.97V36.0505H1232.03V22.9854ZM1245.32 22.9854L1238.63 39.8727H1243.21L1244.09 37.4176H1249.91L1250.71 39.8727H1255.35L1248.7 22.9854H1245.32ZM1245.27 33.9989L1247.02 28.2268L1248.75 33.9989H1245.27Z" fill="black"/>
<path fill-rule="evenodd" clip-rule="evenodd" d="M1257.47 39.8728H1261.74V22.9855H1257.47V39.8728ZM1278.28 26.1506C1277.74 25.3701 1277.05 24.7071 1276.25 24.2016C1274.96 23.3909 1273.21 22.9864 1270.99 22.9864H1265.37V39.8728H1271.94C1274.31 39.8728 1276.22 39.0972 1277.65 37.544C1279.09 35.9918 1279.81 33.9317 1279.81 31.3656C1279.81 29.3244 1279.3 27.5861 1278.28 26.1506ZM1271.46 36.0497H1269.63V26.8086H1271.49C1272.79 26.8086 1273.79 27.2168 1274.5 28.0304C1275.2 28.844 1275.55 29.9985 1275.55 31.4928C1275.55 34.5307 1274.19 36.0497 1271.46 36.0497ZM1177.88 8.80762L1164.07 12.4247L1160.27 26.313L1165.03 31.2004L1160.19 36.007L1163.77 49.9561L1177.52 53.7981L1182.36 48.9905L1187.12 53.8769L1200.93 50.2599L1204.74 36.3706L1199.98 31.4852L1204.81 26.6785L1201.23 12.7285L1187.48 8.88641L1182.64 13.6931L1177.88 8.80762ZM1169.41 15.0962L1176.68 13.1899L1179.86 16.4557L1175.23 21.0658L1169.41 15.0962ZM1185.38 16.4994L1188.61 13.2877L1195.85 15.3117L1189.94 21.1855L1185.38 16.4994ZM1164.63 25.1728L1166.63 17.858L1172.44 23.8276L1167.81 28.4377L1164.63 25.1728ZM1192.68 23.9928L1198.59 18.1171L1200.47 25.4652L1197.24 28.6779L1192.68 23.9928ZM1177.96 23.8722L1182.6 19.262L1187.16 23.9481L1182.52 28.5582L1177.96 23.8722ZM1170.54 31.244L1175.18 26.6339L1179.75 31.32L1175.11 35.9301L1170.54 31.244ZM1185.26 31.3646L1189.9 26.7544L1194.46 31.4405L1189.82 36.0506L1185.26 31.3646ZM1164.53 37.2194L1167.76 34.0057L1172.33 38.6928L1166.42 44.5656L1164.53 37.2194ZM1177.84 38.7364L1182.48 34.1263L1187.04 38.8124L1182.41 43.4225L1177.84 38.7364ZM1192.56 38.858L1197.2 34.2478L1200.38 37.5127L1198.37 44.8276L1192.56 38.858ZM1169.15 47.3738L1175.06 41.4981L1179.63 46.1842L1176.39 49.3978L1169.15 47.3738ZM1185.14 46.2288L1189.78 41.6187L1195.59 47.5892L1188.32 49.4947L1185.14 46.2288Z" fill="black"/>
<defs>
<clipPath id="clip0_78_1212">
<rect width="140" height="28" fill="white" transform="translate(0 17.8999)"/>
</clipPath>
<clipPath id="clip1_78_1212">
<rect width="140" height="63" fill="white" transform="translate(188.333 0.399902)"/>
</clipPath>
<clipPath id="clip2_78_1212">
<rect width="160" height="40" fill="white" transform="translate(376.667 11.8999)"/>
</clipPath>
<clipPath id="clip3_78_1212">
<rect width="120" height="52" fill="white" transform="translate(783.333 5.8999)"/>
</clipPath>
<clipPath id="clip4_78_1212">
<rect width="160" height="40" fill="white" transform="translate(951.667 11.8999)"/>
</clipPath>
</defs>
</svg>
