<svg width="41" height="45" viewBox="0 0 41 45" fill="none" xmlns="http://www.w3.org/2000/svg">
<path d="M0.713867 32.7094V27.6663C0.713867 19.7774 4.52701 15.6279 11.9296 15.6279C19.3321 15.6279 23.1828 19.7774 23.1828 27.6663V32.7094C23.1828 40.6345 19.3696 44.7477 11.9671 44.7477C4.56453 44.7477 0.713867 40.6358 0.713867 32.7094ZM15.1076 33.5696V26.8061C15.1076 23.7406 14.0237 22.3579 11.9671 22.3579C9.91044 22.3579 8.789 23.7406 8.789 26.8061V33.5696C8.789 36.6351 9.91044 38.0178 11.9671 38.0178C14.0237 38.0178 15.1076 36.6337 15.1076 33.5696Z" fill="#3CBFEF"/>
<path d="M15.0379 0.974365C14.77 3.1824 13.7236 4.19263 11.9657 4.19263C10.2079 4.19263 9.13465 3.1824 8.85999 0.974365H0.810303C1.44538 7.53148 5.21164 10.9226 11.9657 10.9226C18.7198 10.9226 22.4485 7.53148 23.0836 0.974365H15.0366H15.0379Z" fill="#F15A2C"/>
<path d="M31.3904 0.975586L26.2 8.84171H32.1675V7.87168H27.9672L32.2091 1.49678L31.3904 0.975586Z" fill="#3CBFEF"/>
<path d="M40.1824 0.975586V32.1748H31.3892V0.975586H40.1824Z" fill="#3CBFEF"/>
<path d="M31.3904 0.975586L26.2 8.84171H31.3904V0.975586Z" fill="#3CBFEF"/>
<path d="M31.3891 36.8816L26.2 44.7477H31.3891H40.1824V36.8816H31.3891Z" fill="#F15A2C"/>
</svg>
