<svg width="113" height="51" viewBox="0 0 113 51" fill="none" xmlns="http://www.w3.org/2000/svg">
<g clip-path="url(#clip0_78_1751)">
<path d="M72.7139 36.7094V31.6663C72.7139 23.7774 76.527 19.6279 83.9296 19.6279C91.3321 19.6279 95.1828 23.7774 95.1828 31.6663V36.7094C95.1828 44.6345 91.3696 48.7477 83.9671 48.7477C76.5645 48.7477 72.7139 44.6358 72.7139 36.7094ZM87.1076 37.5696V30.8061C87.1076 27.7406 86.0237 26.3579 83.9671 26.3579C81.9104 26.3579 80.789 27.7406 80.789 30.8061V37.5696C80.789 40.6351 81.9104 42.0178 83.9671 42.0178C86.0237 42.0178 87.1076 40.6337 87.1076 37.5696Z" fill="white"/>
<path d="M87.0379 4.97412C86.77 7.18216 85.7236 8.19239 83.9657 8.19239C82.2079 8.19239 81.1347 7.18216 80.86 4.97412H72.8103C73.4454 11.5312 77.2116 14.9223 83.9657 14.9223C90.7198 14.9223 94.4485 11.5312 95.0836 4.97412H87.0366H87.0379Z" fill="white"/>
<path d="M103.39 4.97559L98.2 12.8417H104.168V11.8717H99.9672L104.209 5.49678L103.39 4.97559Z" fill="white"/>
<path d="M112.182 4.97559V36.1748H103.389V4.97559H112.182Z" fill="white"/>
<path d="M103.39 4.97559L98.2 12.8417H103.39V4.97559Z" fill="white"/>
<path d="M103.389 40.8813L98.2 48.7475H103.389H112.182V40.8813H103.389Z" fill="white"/>
<path d="M12.1983 12.5696L12.9969 13.3682V15.7504H12.4382C11.3207 15.7504 10.5222 15.2466 10.0399 14.2377C9.84827 14.7549 9.56825 15.1622 9.19846 15.4596C8.82866 15.7571 8.41332 15.9058 7.95375 15.9058C7.01722 15.9058 6.08604 15.3243 5.16021 14.16H4.17544C3.82843 14.16 3.58324 14.227 3.43854 14.3623C3.29384 14.4963 3.22148 14.7267 3.22148 15.0523C3.22148 15.8589 3.48543 17.259 4.01332 19.25H1.55206C0.754862 17.109 0.356934 15.4556 0.356934 14.2913C0.356934 13.821 0.413206 13.395 0.524412 13.0144C0.635618 12.6339 0.809795 12.2936 1.04828 11.9935C1.28677 11.6934 1.60431 11.4562 2.00224 11.2834C2.40017 11.1106 2.87179 11.0101 3.41442 10.9846C3.47605 10.6697 3.5618 10.3616 3.67033 10.0615C3.77885 9.76135 3.92489 9.46256 4.10845 9.16512C4.29201 8.86768 4.50236 8.60909 4.74085 8.38936C4.97934 8.16963 5.2674 7.99143 5.60638 7.85343C5.94535 7.71677 6.31113 7.64844 6.70504 7.64844C7.22757 7.64844 7.70321 7.7583 8.13329 7.97804C8.56204 8.19777 8.91977 8.49923 9.20381 8.88242C9.48786 9.26561 9.71697 9.70105 9.88981 10.1901C10.0626 10.6791 10.1805 11.2084 10.2422 11.7764C10.3092 12.0605 10.4499 12.2641 10.6656 12.3861C10.8799 12.508 11.2069 12.5683 11.6477 12.5683H12.1983V12.5696ZM7.03865 13.3682C7.56655 13.3682 7.83049 13.0091 7.83049 12.2896C7.83049 12.0779 7.81709 11.893 7.79164 11.7349C7.76618 11.5768 7.71929 11.4241 7.65229 11.2767C7.5853 11.1293 7.48214 11.0168 7.34145 10.9391C7.20211 10.8613 7.02525 10.8225 6.81356 10.8225C6.22404 10.8225 5.69347 11.136 5.22319 11.7617C5.67873 12.4129 6.0244 12.8443 6.26289 13.0533C6.50138 13.2623 6.75997 13.3682 7.03865 13.3682Z" fill="white"/>
<path d="M15.5345 12.5697L16.3264 13.3682V15.7504H12.8348L12.0349 14.9586V12.5684H15.5345V12.5697Z" fill="white"/>
<path d="M18.8719 12.5697L19.6638 13.3682V15.7504H16.1722L15.3723 14.9586V12.5684H18.8719V12.5697Z" fill="white"/>
<path d="M22.2083 12.5697L23.0001 13.3682V15.7504H19.5085L18.71 14.9586V12.5684H22.2096L22.2083 12.5697Z" fill="white"/>
<path d="M25.5443 12.5697L26.3361 13.3682V15.7504H22.8446L22.0447 14.9586V12.5684H25.5443V12.5697Z" fill="white"/>
<path d="M28.8817 12.5697L29.6735 13.3682V15.7504H26.182L25.3821 14.9586V12.5684H28.8817V12.5697Z" fill="white"/>
<path d="M32.218 12.5697L33.0099 13.3682V15.7504H29.5183L28.7197 14.9586V12.5684H32.2194L32.218 12.5697Z" fill="white"/>
<path d="M35.5541 12.5697L36.3459 13.3682V15.7504H32.8543L32.0544 14.9586V12.5684H35.5541V12.5697Z" fill="white"/>
<path d="M38.8916 12.5697L39.6834 13.3682V15.7504H36.1919L35.3933 14.9586V12.5684H38.8929L38.8916 12.5697Z" fill="white"/>
<path d="M42.2278 12.5697L43.0196 13.3682V15.7504H39.528L38.7295 14.9586V12.5684H42.2291L42.2278 12.5697Z" fill="white"/>
<path d="M45.5641 12.5697L46.3559 13.3682V15.7504H42.8643L42.0645 14.9586V12.5684H45.5641V12.5697Z" fill="white"/>
<path d="M48.9001 12.5697L49.692 13.3682V15.7504H46.2004L45.4019 14.9586V12.5684H48.9015L48.9001 12.5697Z" fill="white"/>
<path d="M54.62 4.94201C55.0541 4.94201 55.4547 5.01034 55.8191 5.14701C56.1836 5.28367 56.4984 5.46857 56.7624 5.7017C57.0263 5.93483 57.2595 6.21619 57.4645 6.54713C57.6681 6.87806 57.8369 7.22508 57.9682 7.58683C58.0995 7.94859 58.2081 8.33848 58.2898 8.75516C58.3729 9.17185 58.4305 9.5738 58.464 9.96235C58.4975 10.3509 58.5149 10.7435 58.5149 11.1414C58.5149 11.6224 58.4586 12.082 58.3447 12.5187C58.2308 12.9555 58.0446 13.3735 57.786 13.7715C57.5274 14.1694 57.2045 14.5137 56.816 14.8031C56.4274 15.0925 55.9424 15.323 55.3609 15.4932C54.7794 15.6633 54.1283 15.7491 53.4088 15.7491H49.5367L48.7368 14.9572V12.567H52.7791C53.441 12.567 53.9997 12.5268 54.4552 12.4464C54.9107 12.366 55.2551 12.2494 55.4909 12.0967C55.7267 11.944 55.8915 11.7805 55.988 11.6036C56.0831 11.4281 56.1313 11.2258 56.1313 10.998C56.1313 10.8841 56.1206 10.6979 56.1005 10.4393C55.8473 10.7394 55.523 10.9994 55.1265 11.2191C54.7312 11.4388 54.3185 11.5996 53.8885 11.7001C53.4584 11.8006 53.0256 11.8368 52.5888 11.8086C52.152 11.7805 51.7608 11.6867 51.4165 11.5299C51.0721 11.3718 50.7921 11.1226 50.5751 10.781C50.358 10.4393 50.2495 10.028 50.2495 9.547C50.2495 9.15443 50.3111 8.74578 50.4357 8.32106C50.5603 7.89633 50.7492 7.48367 51.0025 7.07904C51.2557 6.67575 51.5531 6.31534 51.8948 5.99646C52.2364 5.67892 52.6438 5.42167 53.1167 5.22874C53.5897 5.03446 54.0908 4.93799 54.6187 4.93799L54.62 4.94201ZM53.4329 3.83264C52.6411 3.22168 52.0315 2.64019 51.6014 2.08684C51.8131 1.81218 52.0931 1.51206 52.4388 1.18648C52.7858 0.8609 53.1167 0.575517 53.4316 0.333008C53.6955 0.529962 54.0908 0.880997 54.6187 1.38879C55.0796 0.949328 55.4775 0.596954 55.8138 0.333008C56.1032 0.55006 56.418 0.822045 56.757 1.14762C57.096 1.4732 57.3894 1.78672 57.6373 2.08684C57.0839 2.75408 56.4757 3.33556 55.8138 3.83264C55.4467 3.54859 55.0487 3.1989 54.6187 2.78489C54.1162 3.27125 53.721 3.62094 53.4316 3.83264H53.4329ZM52.633 9.07806C52.633 9.28439 52.7148 9.43579 52.8769 9.53226C53.0403 9.62739 53.3619 9.68634 53.8429 9.70644C54.3239 9.72654 55.0018 9.68634 55.8754 9.58183C55.7093 9.14237 55.4574 8.78866 55.1184 8.52203C54.7794 8.25541 54.3494 8.12276 53.8268 8.12276C53.4597 8.12276 53.169 8.21253 52.9533 8.39073C52.7389 8.56893 52.6317 8.79804 52.6317 9.07672L52.633 9.07806Z" fill="white"/>
<path d="M58.9878 16.2246C59.2772 16.2246 59.5036 16.2032 59.6671 16.159C59.8305 16.1148 59.9739 16.0183 60.0972 15.8682C60.2218 15.7182 60.3048 15.5065 60.3491 15.2318C60.3933 14.9571 60.4147 14.5847 60.4147 14.1144V8.12402H63.3556V14.8285C63.3556 16.3345 62.9925 17.4626 62.265 18.2156C61.5388 18.9686 60.5259 19.3652 59.2276 19.4067C59.0668 18.651 58.9878 17.5912 58.9878 16.226V16.2246Z" fill="white"/>
<path d="M8.80727 30.1214L9.5991 30.9199V33.3021H7.94576C7.83723 33.8555 7.66037 34.3633 7.41385 34.8269C7.16866 35.2904 6.84844 35.7071 6.45587 36.0796C6.0633 36.4521 5.57024 36.7441 4.97804 36.9558C4.38584 37.1675 3.72262 37.2734 2.98706 37.2734C2.00898 37.2734 1.16623 37.1675 0.457463 36.9558C0.302043 36.2886 0.224333 35.2878 0.224333 33.9533C0.839314 34.0457 1.54808 34.0926 2.35064 34.0926C3.21483 34.0926 3.88876 34.0216 4.37244 33.8796C4.85611 33.7376 5.19911 33.5192 5.40009 33.2244C4.76367 33.1829 4.18888 33.1239 3.67707 33.0462C3.16525 32.9685 2.66148 32.8506 2.16842 32.6925C1.67403 32.5344 1.26002 32.3455 0.926402 32.1258C0.592785 31.906 0.32482 31.6247 0.123846 31.2843C-0.0771282 30.944 -0.178955 30.5555 -0.178955 30.12C-0.178955 29.7221 -0.115983 29.3001 0.0113004 28.8552C0.138584 28.4104 0.3275 27.9723 0.582067 27.5395C0.835294 27.1081 1.13274 26.7169 1.47439 26.3672C1.81605 26.0175 2.22469 25.7361 2.70033 25.5218C3.17597 25.3074 3.67573 25.2002 4.19826 25.2002C4.67926 25.2002 5.11872 25.2953 5.51665 25.4869C5.91458 25.6785 6.24954 25.9291 6.52152 26.2399C6.79351 26.5507 7.03065 26.9246 7.23565 27.3613C7.4393 27.7981 7.59874 28.2403 7.71263 28.6878C7.82651 29.1353 7.91494 29.6122 7.97657 30.12H8.80727V30.1214ZM2.21264 29.3295C2.21264 29.5466 2.27561 29.7047 2.40289 29.8025C2.53018 29.9003 2.82494 29.9767 3.28718 30.0316C3.74942 30.0865 4.48364 30.116 5.48717 30.1214C5.15088 28.9571 4.45551 28.3756 3.39972 28.3756C3.03797 28.3756 2.74857 28.4654 2.53419 28.6436C2.31982 28.8217 2.21264 29.0509 2.21264 29.3309V29.3295Z" fill="white"/>
<path d="M12.1366 30.1215L12.9284 30.92V33.3022H9.43684L8.63696 32.5104V30.1201H12.1366V30.1215Z" fill="white"/>
<path d="M15.1554 34.4127C15.4448 34.6297 15.7597 34.9017 16.0986 35.2273C16.4376 35.5529 16.731 35.8664 16.9789 36.1665C16.4256 36.8337 15.8173 37.4152 15.1554 37.9123C14.7883 37.6283 14.3904 37.2786 13.9603 36.8646C13.4578 37.3509 13.0626 37.6993 12.7732 37.9123C11.9814 37.3013 11.3717 36.7199 10.9417 36.1665C11.1533 35.8918 11.4334 35.5917 11.779 35.2661C12.1261 34.9406 12.457 34.6552 12.7719 34.4127C13.0358 34.6096 13.4311 34.9607 13.9589 35.4685C14.4198 35.029 14.8178 34.6766 15.1541 34.4127H15.1554ZM12.9286 33.302H12.7732L11.9747 32.5101V30.1199H12.0604C12.4329 30.1199 12.7116 29.9926 12.8951 29.7394C13.0787 29.4861 13.1711 29.0306 13.1711 28.3741V25.6743H16.112V29.1739C16.112 29.9028 16.029 30.5392 15.8642 31.0832C15.698 31.6258 15.4689 32.0559 15.1742 32.3708C14.8794 32.687 14.5444 32.9201 14.1693 33.0728C13.7941 33.2256 13.3815 33.302 12.9313 33.302H12.9286Z" fill="white"/>
<path d="M18.1658 29.6484C18.6682 29.8239 19.2885 29.974 20.0281 30.0986C20.7677 30.2232 21.4149 30.2848 21.9682 30.2848C22.5792 30.2848 23.0521 30.2634 23.3884 30.2191C23.7247 30.1749 23.9458 30.116 24.0516 30.0409C24.1575 29.9659 24.2111 29.8668 24.2111 29.7422C24.2111 29.4729 23.9016 29.1727 23.2839 28.8418C22.6663 28.5109 21.7177 28.0915 20.4395 27.585C20.5373 27.1241 20.7262 26.5829 21.0062 25.9598C21.2849 25.3368 21.5569 24.8183 21.8208 24.4043C22.5765 24.8022 23.2397 25.2551 23.8118 25.7615C24.3839 26.268 24.8314 26.7865 25.1543 27.3171C25.4772 27.8477 25.7184 28.3688 25.8765 28.8807C26.0346 29.3925 26.1136 29.8976 26.1136 30.3933C26.1136 30.802 26.0319 31.1852 25.8698 31.5416C25.7063 31.8979 25.4638 32.2222 25.1409 32.5116C24.818 32.801 24.3812 33.0314 23.8332 33.2016C23.2853 33.3718 22.6596 33.4575 21.9561 33.4575C20.7356 33.4575 19.5793 33.2485 18.4873 32.8291C18.2756 31.9864 18.1684 30.9252 18.1684 29.6484H18.1658Z" fill="white"/>
<path d="M36.0431 30.1214L36.8349 30.9199V33.3021H35.1816C35.0731 33.8555 34.8962 34.3633 34.6497 34.8269C34.4045 35.2904 34.0843 35.7071 33.6917 36.0796C33.2991 36.4521 32.8061 36.7441 32.2139 36.9558C31.6217 37.1675 30.9585 37.2734 30.2229 37.2734C29.2448 37.2734 28.4021 37.1675 27.6933 36.9558C27.5379 36.2886 27.4602 35.2878 27.4602 33.9533C28.0752 34.0457 28.7839 34.0926 29.5865 34.0926C30.4507 34.0926 31.1246 34.0216 31.6083 33.8796C32.092 33.7376 32.435 33.5192 32.6359 33.2244C31.9995 33.1829 31.4247 33.1239 30.9129 33.0462C30.4011 32.9685 29.8973 32.8506 29.4043 32.6925C28.9099 32.5344 28.4959 32.3455 28.1622 32.1258C27.8286 31.906 27.5607 31.6247 27.3597 31.2843C27.1587 30.944 27.0569 30.5555 27.0569 30.12C27.0569 29.7221 27.1199 29.3001 27.2471 28.8552C27.3744 28.4104 27.5633 27.9723 27.8179 27.5395C28.0711 27.1081 28.3686 26.7169 28.7102 26.3672C29.0519 26.0175 29.4605 25.7361 29.9362 25.5218C30.4118 25.3074 30.9116 25.2002 31.4341 25.2002C31.9151 25.2002 32.3546 25.2953 32.7525 25.4869C33.1504 25.6785 33.4854 25.9291 33.7574 26.2399C34.0293 26.5507 34.2665 26.9246 34.4715 27.3613C34.6751 27.7981 34.8346 28.2403 34.9485 28.6878C35.0624 29.1353 35.1508 29.6122 35.2124 30.12H36.0431V30.1214ZM29.4485 29.3295C29.4485 29.5466 29.5114 29.7047 29.6387 29.8025C29.766 29.9003 30.0608 29.9767 30.523 30.0316C30.9853 30.0865 31.7195 30.116 32.723 30.1214C32.3867 28.9571 31.6913 28.3756 30.6356 28.3756C30.2738 28.3756 29.9844 28.4654 29.77 28.6436C29.5557 28.8217 29.4485 29.0509 29.4485 29.3309V29.3295Z" fill="white"/>
<path d="M37.2222 25.83C36.4464 25.2297 35.8381 24.6482 35.3987 24.0842C35.8381 23.5201 36.4464 22.9386 37.2222 22.3384C37.533 22.5715 37.931 22.9199 38.4173 23.3861C38.8461 22.9721 39.2453 22.6238 39.6124 22.3384C40.2743 22.8355 40.8826 23.4169 41.4359 24.0842C40.8826 24.7514 40.2743 25.3329 39.6124 25.83C39.2453 25.5459 38.8474 25.1962 38.4173 24.7822C37.931 25.2471 37.533 25.5968 37.2222 25.83ZM41.1961 30.1214L41.9947 30.92V33.3022H41.9169C41.3167 33.3022 40.8478 33.12 40.5088 32.7555C40.1698 32.3911 39.9286 31.8056 39.7839 30.9977C39.5562 31.7895 39.1837 32.371 38.6665 32.7435C38.1493 33.1159 37.5357 33.3022 36.8269 33.3022H36.6715L35.8716 32.5103V30.1201H35.9574C36.3299 30.1201 36.6085 29.9928 36.7921 29.7396C36.9757 29.4864 37.0681 29.0308 37.0681 28.3743V26.946H40.009V28.5364C40.009 29.1259 40.0988 29.5373 40.277 29.7704C40.4552 30.0035 40.7366 30.1201 41.1184 30.1201H41.1961V30.1214Z" fill="white"/>
<path d="M44.5323 30.1215L45.3242 30.92V33.3022H41.8326L41.0327 32.5104V30.1201H44.5323V30.1215Z" fill="white"/>
<path d="M55.8927 25.6757H58.8337V29.3307C58.8337 30.0596 58.7506 30.696 58.5858 31.24C58.4197 31.7826 58.1906 32.2127 57.8958 32.5275C57.601 32.8437 57.2661 33.0769 56.8909 33.2296C56.5158 33.3823 56.1031 33.4587 55.6529 33.4587H55.4975C54.9281 33.4426 54.4779 33.2537 54.147 32.8879C53.816 32.5235 53.5829 31.9474 53.4489 31.1609C53.2211 31.9527 52.8487 32.5329 52.3315 32.9027C51.8143 33.2725 51.2007 33.4574 50.4919 33.4574H50.3284C49.7443 33.4413 49.2874 33.2443 48.9591 32.8638C48.6309 32.4833 48.3991 31.8817 48.2651 31.0591C48.032 31.8295 47.6582 32.3962 47.1437 32.758C46.6292 33.1197 46.0222 33.3006 45.3242 33.3006H45.1688L44.3689 32.5088V30.1185H44.4546C44.8271 30.1185 45.1058 29.9912 45.2894 29.738C45.4729 29.4848 45.5654 29.0292 45.5654 28.3727V26.9445H48.5063V28.6903C48.5063 29.2798 48.596 29.6925 48.7742 29.9283C48.9524 30.1641 49.2338 30.282 49.6157 30.282C49.9975 30.282 50.2668 30.1547 50.4531 29.9015C50.6393 29.6482 50.7317 29.1927 50.7317 28.5362V26.9458H53.6646V28.6916C53.6646 29.2811 53.7557 29.6938 53.9366 29.9296C54.1175 30.1654 54.4002 30.2833 54.782 30.2833C55.1639 30.2833 55.4318 30.156 55.6167 29.9028C55.8003 29.6496 55.8927 29.194 55.8927 28.5375V25.6743V25.6757Z" fill="white"/>
<path d="M60.416 33.3022V21.8574H63.3569V33.3022H60.416Z" fill="white"/>
<path d="M4.23813 45.5177H1.9966V48.7346H1.34009V41.0186H3.8469C4.66956 41.0186 5.31268 41.2182 5.77626 41.6161C6.2385 42.0154 6.47029 42.5728 6.47029 43.2882C6.47029 43.7826 6.32559 44.2181 6.03618 44.5959C5.74678 44.9737 5.35823 45.235 4.87053 45.3797L6.79988 48.6649V48.7333H6.10585L4.24081 45.5164L4.23813 45.5177ZM1.9966 44.967H3.99429C4.54228 44.967 4.98174 44.8116 5.31402 44.4994C5.64629 44.1886 5.81243 43.7853 5.81243 43.2896C5.81243 42.7442 5.63959 42.3222 5.29258 42.0207C4.9469 41.7206 4.46055 41.5692 3.83485 41.5692H1.9966V44.9657V44.967Z" fill="white"/>
<path d="M13.9251 45.2949C13.9251 46.0292 13.7952 46.6696 13.5352 47.2162C13.2753 47.7616 12.9055 48.1742 12.4245 48.4529L13.8287 49.6775L13.3785 50.0808L11.8042 48.7195C11.5148 48.8013 11.22 48.8415 10.9186 48.8415C10.3317 48.8415 9.81051 48.6968 9.35229 48.4074C8.89407 48.118 8.54036 47.7066 8.28981 47.1747C8.03926 46.6428 7.91198 46.0292 7.90796 45.3338V44.4696C7.90796 43.7662 8.03256 43.1445 8.28177 42.6019C8.53098 42.0593 8.88335 41.6426 9.33889 41.3518C9.79444 41.0611 10.317 40.915 10.9078 40.915C11.4987 40.915 12.036 41.0597 12.4928 41.3491C12.9484 41.6385 13.3008 42.0539 13.55 42.5938C13.7992 43.1338 13.9238 43.7582 13.9238 44.4642V45.2963L13.9251 45.2949ZM13.2726 44.4575C13.2726 43.529 13.0623 42.8002 12.6416 42.275C12.2209 41.7484 11.6434 41.4858 10.9092 41.4858C10.1749 41.4858 9.62562 41.7498 9.20089 42.2776C8.77483 42.8055 8.56179 43.5438 8.56179 44.4897V45.2949C8.56179 46.21 8.77349 46.9349 9.19553 47.4708C9.61758 48.0054 10.1924 48.2734 10.9199 48.2734C11.6474 48.2734 12.2302 48.0108 12.6469 47.4842C13.0636 46.9577 13.2726 46.2234 13.2726 45.2802V44.4589V44.4575Z" fill="white"/>
<path d="M16.4521 41.0183L19.2979 47.8273L22.1544 41.0183H23.0239V48.7344H22.3728V45.3741L22.4264 41.9294L19.5538 48.733H19.05L16.1881 41.9548L16.2417 45.3513V48.7317H15.5906V41.0156H16.4548L16.4521 41.0183Z" fill="white"/>
<path d="M31.9846 46.8373C31.9846 46.4099 31.8346 46.0723 31.5345 45.8231C31.2343 45.5739 30.685 45.338 29.8865 45.113C29.0879 44.8892 28.5051 44.644 28.138 44.3787C27.6155 44.0049 27.3542 43.5132 27.3542 42.9049C27.3542 42.2966 27.5967 41.8357 28.0831 41.4659C28.5681 41.0975 29.1898 40.9126 29.9454 40.9126C30.4572 40.9126 30.9155 41.0117 31.3201 41.2087C31.7247 41.407 32.0382 41.6817 32.2606 42.0354C32.4831 42.3891 32.5943 42.783 32.5943 43.2171H31.9377C31.9377 42.6892 31.7582 42.2645 31.3978 41.9443C31.0374 41.624 30.5537 41.4633 29.9454 41.4633C29.3371 41.4633 28.8856 41.5946 28.5359 41.8585C28.1862 42.1225 28.0107 42.4668 28.0107 42.8902C28.0107 43.2828 28.1675 43.603 28.4823 43.8508C28.7972 44.0987 29.2996 44.3171 29.9923 44.506C30.685 44.6949 31.2089 44.8919 31.5666 45.0942C31.9244 45.2965 32.1923 45.5404 32.3719 45.8231C32.5514 46.1058 32.6425 46.4394 32.6425 46.8253C32.6425 47.4335 32.4 47.9199 31.9136 48.2883C31.4273 48.6555 30.7882 48.839 29.9923 48.839C29.4484 48.839 28.9486 48.7412 28.4957 48.5469C28.0415 48.3527 27.6972 48.0807 27.4627 47.731C27.2283 47.3813 27.1104 46.9807 27.1104 46.5278H27.7615C27.7615 47.0718 27.9652 47.5005 28.3711 47.8154C28.7771 48.1302 29.3184 48.287 29.9923 48.287C30.5926 48.287 31.0749 48.1544 31.4393 47.8891C31.8038 47.6238 31.9846 47.2728 31.9846 46.8346V46.8373Z" fill="white"/>
<path d="M39.2813 41.5707H36.6364V48.7347H35.9839V41.5707H33.3445V41.02H39.2799V41.5707H39.2813Z" fill="white"/>
<path d="M45.8411 41.0184V46.2853C45.8371 46.8051 45.7232 47.2567 45.4967 47.6412C45.2703 48.0257 44.9514 48.3218 44.5401 48.5282C44.1288 48.7345 43.6558 48.8377 43.1226 48.8377C42.3093 48.8377 41.6595 48.6166 41.1704 48.1731C40.6814 47.7296 40.4282 47.116 40.4094 46.3322V41.0171H41.0566V46.2371C41.0566 46.8869 41.2415 47.392 41.6126 47.7497C41.9837 48.1088 42.4875 48.287 43.1226 48.287C43.7577 48.287 44.2614 48.1075 44.6299 47.747C44.9983 47.3866 45.1832 46.8855 45.1832 46.2424V41.0171H45.8397L45.8411 41.0184Z" fill="white"/>
<path d="M47.6592 48.7346V41.0186H49.8163C50.4487 41.0186 51.0155 41.1619 51.5179 41.45C52.019 41.738 52.4102 42.1507 52.6916 42.6866C52.9729 43.2239 53.1123 43.8349 53.1123 44.5195V45.2296C53.1123 45.9183 52.9729 46.5293 52.6943 47.0625C52.4156 47.5958 52.0217 48.0071 51.5152 48.2978C51.0087 48.5872 50.4259 48.7319 49.7694 48.7319H47.6605L47.6592 48.7346ZM48.3103 41.5706V48.1839H49.7734C50.5854 48.1839 51.2379 47.9146 51.7282 47.3747C52.2186 46.8361 52.4651 46.1059 52.4651 45.1868V44.5075C52.4651 43.6205 52.2226 42.9091 51.739 42.3758C51.2553 41.8425 50.6175 41.5732 49.8257 41.5692H48.3103V41.5706Z" fill="white"/>
<path d="M55.5603 48.7346H54.9092V41.0186H55.5603V48.7346Z" fill="white"/>
<path d="M63.3553 45.2952C63.3553 46.0053 63.232 46.6283 62.9869 47.1656C62.7417 47.7028 62.3906 48.1155 61.9351 48.4049C61.4795 48.6943 60.953 48.839 60.3554 48.839C59.4551 48.839 58.7262 48.5161 58.1729 47.8717C57.6182 47.2272 57.3408 46.3563 57.3408 45.2617V44.4672C57.3408 43.7637 57.4654 43.1421 57.7146 42.5994C57.9638 42.0568 58.3162 41.6401 58.7718 41.3494C59.2273 41.0586 59.7525 40.9126 60.3461 40.9126C60.9396 40.9126 61.4635 41.056 61.9177 41.3413C62.3719 41.6281 62.7216 42.0327 62.9694 42.5552C63.2173 43.0778 63.3459 43.6834 63.3566 44.3734V45.2952H63.3553ZM62.7028 44.4578C62.7028 43.5293 62.4925 42.8004 62.0718 42.2752C61.651 41.7487 61.0749 41.486 60.3447 41.486C59.6145 41.486 59.0558 41.75 58.6311 42.2779C58.205 42.8058 57.992 43.544 57.992 44.4899V45.2952C57.992 46.2103 58.2037 46.9351 58.6284 47.4711C59.0518 48.0056 59.6279 48.2736 60.3554 48.2736C61.083 48.2736 61.6698 48.0097 62.0825 47.4818C62.4951 46.9539 62.7028 46.2183 62.7028 45.2751V44.4591V44.4578Z" fill="white"/>
</g>
<defs>
<clipPath id="clip0_78_1751">
<rect width="112.659" height="49.7612" fill="white" transform="translate(-0.476807 0.333008)"/>
</clipPath>
</defs>
</svg>
