<svg width="113" height="51" viewBox="0 0 113 51" fill="none" xmlns="http://www.w3.org/2000/svg">
<g id="IsColored=Color" clip-path="url(#clip0_29_974)">
<g id="container_">
<g id="group_">
<g id="iconLogo">
<path id="image_" d="M73.1908 37.0827V32.0396C73.1908 24.1507 77.0039 20.0012 84.4065 20.0012C91.809 20.0012 95.6597 24.1507 95.6597 32.0396V37.0827C95.6597 45.0078 91.8465 49.121 84.444 49.121C77.0414 49.121 73.1908 45.0091 73.1908 37.0827ZM87.5845 37.9429V31.1794C87.5845 28.1139 86.5006 26.7312 84.444 26.7312C82.3873 26.7312 81.2659 28.1139 81.2659 31.1794V37.9429C81.2659 41.0084 82.3873 42.3911 84.444 42.3911C86.5006 42.3911 87.5845 41.007 87.5845 37.9429Z" fill="#3CBFEF"/>
<path id="image__2" d="M87.5149 5.34752C87.2469 7.55555 86.2005 8.56578 84.4426 8.56578C82.6848 8.56578 81.6116 7.55555 81.3369 5.34752H73.2872C73.9223 11.9046 77.6886 15.2957 84.4426 15.2957C91.1967 15.2957 94.9254 11.9046 95.5605 5.34752H87.5135H87.5149Z" fill="#F15A2C"/>
<g id="Group">
<g id="Group_2">
<path id="image__3" d="M103.867 5.34883L98.6769 13.215H104.645V12.2449H100.444L104.686 5.87002L103.867 5.34883Z" fill="#3CBFEF"/>
<path id="image__4" d="M112.659 5.3488V36.548H103.866V5.3488H112.659Z" fill="#3CBFEF"/>
</g>
<path id="image__5" d="M103.867 5.34883L98.6769 13.215H103.867V5.34883Z" fill="#3CBFEF"/>
</g>
<path id="image__6" d="M103.866 41.2549L98.6769 49.121H103.866H112.659V41.2549H103.866Z" fill="#F15A2C"/>
</g>
<g id="text">
<g id="textAr">
<path id="image__7" d="M12.675 12.9431L13.4735 13.7416V16.1238H12.9148C11.7974 16.1238 10.9988 15.62 10.5165 14.6111C10.3249 15.1283 10.0449 15.5356 9.67508 15.8331C9.30529 16.1305 8.88994 16.2792 8.43038 16.2792C7.49384 16.2792 6.56266 15.6977 5.63684 14.5334H4.65207C4.30505 14.5334 4.05986 14.6004 3.91516 14.7357C3.77046 14.8697 3.69811 15.1002 3.69811 15.4258C3.69811 16.2323 3.96205 17.6325 4.48995 19.6234H2.02868C1.23149 17.4824 0.833557 15.829 0.833557 14.6647C0.833557 14.1945 0.88983 13.7684 1.00104 13.3879C1.11224 13.0074 1.28642 12.6671 1.52491 12.3669C1.7634 12.0668 2.08094 11.8297 2.47887 11.6568C2.87679 11.484 3.34841 11.3835 3.89104 11.358C3.95268 11.0432 4.03842 10.735 4.14695 10.4349C4.25548 10.1348 4.40152 9.836 4.58507 9.53856C4.76863 9.24112 4.97898 8.98253 5.21747 8.7628C5.45596 8.54307 5.74402 8.36487 6.083 8.22687C6.42198 8.09021 6.78775 8.02187 7.18166 8.02187C7.70419 8.02187 8.17983 8.13174 8.60992 8.35147C9.03866 8.5712 9.39639 8.87266 9.68044 9.25585C9.96448 9.63905 10.1936 10.0745 10.3664 10.5635C10.5393 11.0526 10.6572 11.5818 10.7188 12.1499C10.7858 12.4339 10.9265 12.6376 11.1422 12.7595C11.3566 12.8814 11.6835 12.9417 12.1243 12.9417H12.675V12.9431ZM7.51528 13.7416C8.04317 13.7416 8.30711 13.3825 8.30711 12.663C8.30711 12.4513 8.29372 12.2664 8.26826 12.1083C8.2428 11.9502 8.19591 11.7975 8.12892 11.6501C8.06193 11.5027 7.95876 11.3902 7.81808 11.3125C7.67874 11.2348 7.50188 11.1959 7.29019 11.1959C6.70066 11.1959 6.17009 11.5094 5.69981 12.1351C6.15535 12.7863 6.50103 13.2177 6.73952 13.4267C6.97801 13.6358 7.23659 13.7416 7.51528 13.7416Z" fill="#010101"/>
<path id="image__8" d="M16.0111 12.9432L16.803 13.7417V16.1239H13.3114L12.5115 15.3321V12.9418H16.0111V12.9432Z" fill="#010101"/>
<path id="image__9" d="M19.3486 12.9432L20.1405 13.7417V16.1239H16.6489L15.849 15.3321V12.9418H19.3486V12.9432Z" fill="#010101"/>
<path id="image__10" d="M22.6848 12.9432L23.4766 13.7417V16.1239H19.985L19.1865 15.3321V12.9418H22.6861L22.6848 12.9432Z" fill="#010101"/>
<path id="image__11" d="M26.021 12.9432L26.8128 13.7417V16.1239H23.3212L22.5213 15.3321V12.9418H26.021V12.9432Z" fill="#010101"/>
<path id="image__12" d="M29.3585 12.9432L30.1503 13.7417V16.1239H26.6587L25.8589 15.3321V12.9418H29.3585V12.9432Z" fill="#010101"/>
<path id="image__13" d="M32.6946 12.9432L33.4865 13.7417V16.1239H29.9949L29.1964 15.3321V12.9418H32.696L32.6946 12.9432Z" fill="#010101"/>
<path id="image__14" d="M36.0308 12.9432L36.8227 13.7417V16.1239H33.3311L32.5312 15.3321V12.9418H36.0308V12.9432Z" fill="#010101"/>
<path id="image__15" d="M39.3683 12.9432L40.1602 13.7417V16.1239H36.6686L35.87 15.3321V12.9418H39.3697L39.3683 12.9432Z" fill="#010101"/>
<path id="image__16" d="M42.7045 12.9432L43.4963 13.7417V16.1239H40.0047L39.2062 15.3321V12.9418H42.7058L42.7045 12.9432Z" fill="#010101"/>
<path id="image__17" d="M46.0407 12.9432L46.8325 13.7417V16.1239H43.3409L42.541 15.3321V12.9418H46.0407V12.9432Z" fill="#010101"/>
<path id="image__18" d="M49.3768 12.9432L50.1687 13.7417V16.1239H46.6771L45.8785 15.3321V12.9418H49.3782L49.3768 12.9432Z" fill="#010101"/>
<path id="image__19" d="M55.0966 5.31547C55.5307 5.31547 55.9313 5.3838 56.2957 5.52047C56.6601 5.65713 56.975 5.84202 57.2389 6.07515C57.5029 6.30828 57.736 6.58965 57.941 6.92059C58.1447 7.25152 58.3135 7.59854 58.4448 7.96029C58.5761 8.32204 58.6846 8.71193 58.7663 9.12862C58.8494 9.54531 58.907 9.94726 58.9405 10.3358C58.974 10.7244 58.9914 11.1169 58.9914 11.5149C58.9914 11.9959 58.9352 12.4554 58.8213 12.8922C58.7074 13.329 58.5212 13.747 58.2626 14.1449C58.004 14.5429 57.6811 14.8872 57.2925 15.1766C56.904 15.466 56.419 15.6965 55.8375 15.8666C55.256 16.0368 54.6048 16.1225 53.8854 16.1225H50.0133L49.2134 15.3307V12.9404H53.2556C53.9175 12.9404 54.4762 12.9002 54.9318 12.8198C55.3873 12.7395 55.7316 12.6229 55.9674 12.4701C56.2033 12.3174 56.3681 12.154 56.4645 11.9771C56.5597 11.8016 56.6079 11.5993 56.6079 11.3715C56.6079 11.2576 56.5972 11.0714 56.5771 10.8128C56.3238 11.1129 55.9996 11.3728 55.603 11.5926C55.2078 11.8123 54.7951 11.9731 54.365 12.0736C53.9349 12.174 53.5022 12.2102 53.0654 12.1821C52.6286 12.154 52.2374 12.0602 51.893 11.9034C51.5487 11.7453 51.2687 11.4961 51.0516 11.1544C50.8346 10.8128 50.726 10.4015 50.726 9.92046C50.726 9.52789 50.7877 9.11924 50.9123 8.69452C51.0369 8.26979 51.2258 7.85712 51.479 7.4525C51.7323 7.04921 52.0297 6.6888 52.3714 6.36992C52.713 6.05238 53.1203 5.79513 53.5933 5.6022C54.0662 5.40792 54.5673 5.31145 55.0952 5.31145L55.0966 5.31547ZM53.9095 4.2061C53.1176 3.59513 52.508 3.01365 52.0779 2.4603C52.2896 2.18564 52.5696 1.88551 52.9153 1.55994C53.2623 1.23436 53.5933 0.948975 53.9081 0.706467C54.1721 0.903421 54.5673 1.25446 55.0952 1.76225C55.5561 1.32279 55.9541 0.970413 56.2903 0.706467C56.5798 0.923519 56.8946 1.1955 57.2336 1.52108C57.5726 1.84666 57.866 2.16018 58.1139 2.4603C57.5605 3.12753 56.9522 3.70902 56.2903 4.2061C55.9232 3.92205 55.5253 3.57236 55.0952 3.15835C54.5928 3.64471 54.1975 3.9944 53.9081 4.2061H53.9095ZM53.1096 9.45152C53.1096 9.65785 53.1913 9.80925 53.3534 9.90572C53.5169 10.0008 53.8385 10.0598 54.3195 10.0799C54.8005 10.1 55.4784 10.0598 56.352 9.95529C56.1858 9.51583 55.934 9.16212 55.595 8.89549C55.256 8.62886 54.8259 8.49622 54.3034 8.49622C53.9363 8.49622 53.6455 8.58599 53.4298 8.76419C53.2154 8.94238 53.1083 9.1715 53.1083 9.45018L53.1096 9.45152Z" fill="#010101"/>
<path id="image__20" d="M59.4644 16.5982C59.7538 16.5982 59.9802 16.5768 60.1437 16.5326C60.3071 16.4883 60.4505 16.3919 60.5738 16.2418C60.6984 16.0918 60.7814 15.8801 60.8257 15.6054C60.8699 15.3307 60.8913 14.9583 60.8913 14.488V8.49761H63.8322V15.2021C63.8322 16.7081 63.4691 17.8362 62.7416 18.5892C62.0154 19.3422 61.0025 19.7388 59.7042 19.7803C59.5434 19.0246 59.4644 17.9648 59.4644 16.5995V16.5982Z" fill="#010101"/>
<path id="image__21" d="M9.28386 30.4948L10.0757 31.2933V33.6755H8.42235C8.31382 34.2289 8.13697 34.7367 7.89044 35.2003C7.64525 35.6638 7.32503 36.0805 6.93246 36.453C6.53989 36.8255 6.04684 37.1176 5.45463 37.3293C4.86243 37.5409 4.19921 37.6468 3.46365 37.6468C2.48558 37.6468 1.64282 37.5409 0.934056 37.3293C0.778636 36.662 0.700926 35.6612 0.700926 34.3267C1.31591 34.4191 2.02468 34.466 2.82723 34.466C3.69142 34.466 4.36535 34.395 4.84903 34.253C5.33271 34.111 5.6757 33.8926 5.87668 33.5978C5.24026 33.5563 4.66547 33.4973 4.15366 33.4196C3.64185 33.3419 3.13807 33.224 2.64502 33.0659C2.15062 32.9078 1.73661 32.7189 1.403 32.4992C1.06938 32.2794 0.801413 31.9981 0.600439 31.6578C0.399465 31.3174 0.297638 30.9289 0.297638 30.4935C0.297638 30.0955 0.36061 29.6735 0.487893 29.2287C0.615177 28.7838 0.804093 28.3457 1.05866 27.9129C1.31189 27.4815 1.60933 27.0903 1.95098 26.7406C2.29264 26.3909 2.70129 26.1095 3.17693 25.8952C3.65257 25.6808 4.15232 25.5736 4.67485 25.5736C5.15585 25.5736 5.59531 25.6687 5.99324 25.8603C6.39117 26.0519 6.72613 26.3025 6.99811 26.6133C7.2701 26.9242 7.50725 27.298 7.71224 27.7347C7.9159 28.1715 8.07533 28.6137 8.18922 29.0612C8.30311 29.5087 8.39153 29.9857 8.45317 30.4935H9.28386V30.4948ZM2.68923 29.703C2.68923 29.92 2.7522 30.0781 2.87948 30.1759C3.00677 30.2737 3.30153 30.3501 3.76377 30.405C4.22601 30.46 4.96024 30.4894 5.96377 30.4948C5.62747 29.3305 4.9321 28.749 3.87632 28.749C3.51456 28.749 3.22516 28.8388 3.01079 29.017C2.79642 29.1952 2.68923 29.4243 2.68923 29.7043V29.703Z" fill="#010101"/>
<path id="image__22" d="M12.6133 30.4949L13.4051 31.2934V33.6756H9.91356L9.11368 32.8838V30.4935H12.6133V30.4949Z" fill="#010101"/>
<path id="image__23" d="M15.6319 34.7863C15.9213 35.0033 16.2362 35.2753 16.5752 35.6009C16.9142 35.9265 17.2076 36.24 17.4554 36.5401C16.9021 37.2073 16.2938 37.7888 15.6319 38.2859C15.2648 38.0019 14.8669 37.6522 14.4368 37.2382C13.9344 37.7245 13.5391 38.0729 13.2497 38.2859C12.4579 37.6749 11.8483 37.0935 11.4182 36.5401C11.6299 36.2654 11.9099 35.9653 12.2556 35.6397C12.6026 35.3142 12.9335 35.0288 13.2484 34.7863C13.5123 34.9832 13.9076 35.3343 14.4355 35.842C14.8964 35.4026 15.2943 35.0502 15.6306 34.7863H15.6319ZM13.4051 33.6756H13.2497L12.4512 32.8837V30.4935H12.5369C12.9094 30.4935 13.1881 30.3662 13.3717 30.1129C13.5552 29.8597 13.6477 29.4042 13.6477 28.7477V26.0479H16.5886V29.5475C16.5886 30.2764 16.5055 30.9128 16.3407 31.4568C16.1746 31.9994 15.9455 32.4295 15.6507 32.7444C15.3559 33.0606 15.021 33.2937 14.6458 33.4464C14.2707 33.5992 13.858 33.6756 13.4078 33.6756H13.4051Z" fill="#010101"/>
<path id="image__24" d="M18.6425 30.0219C19.145 30.1974 19.7653 30.3475 20.5049 30.4721C21.2445 30.5967 21.8916 30.6583 22.4449 30.6583C23.0559 30.6583 23.5289 30.6369 23.8652 30.5927C24.2015 30.5485 24.4225 30.4895 24.5284 30.4145C24.6342 30.3394 24.6878 30.2403 24.6878 30.1157C24.6878 29.8464 24.3783 29.5463 23.7607 29.2153C23.143 28.8844 22.1944 28.465 20.9162 27.9586C21.014 27.4977 21.2029 26.9564 21.483 26.3334C21.7616 25.7103 22.0336 25.1918 22.2976 24.7778C23.0532 25.1758 23.7164 25.6286 24.2885 26.1351C24.8607 26.6415 25.3082 27.16 25.6311 27.6906C25.954 28.2212 26.1951 28.7424 26.3532 29.2542C26.5113 29.766 26.5904 30.2711 26.5904 30.7669C26.5904 31.1755 26.5086 31.5587 26.3465 31.9151C26.1831 32.2715 25.9406 32.5957 25.6177 32.8851C25.2948 33.1745 24.858 33.405 24.31 33.5751C23.762 33.7453 23.1363 33.831 22.4329 33.831C21.2123 33.831 20.056 33.622 18.9641 33.2027C18.7524 32.3599 18.6452 31.2988 18.6452 30.0219H18.6425Z" fill="#010101"/>
<path id="image__25" d="M36.5199 30.4948L37.3117 31.2933V33.6755H35.6583C35.5498 34.2289 35.373 34.7367 35.1264 35.2003C34.8812 35.6638 34.561 36.0805 34.1685 36.453C33.7759 36.8255 33.2828 37.1176 32.6906 37.3293C32.0984 37.5409 31.4352 37.6468 30.6996 37.6468C29.7216 37.6468 28.8788 37.5409 28.17 37.3293C28.0146 36.662 27.9369 35.6612 27.9369 34.3267C28.5519 34.4191 29.2607 34.466 30.0632 34.466C30.9274 34.466 31.6013 34.395 32.085 34.253C32.5687 34.111 32.9117 33.8926 33.1127 33.5978C32.4763 33.5563 31.9015 33.4973 31.3897 33.4196C30.8778 33.3419 30.3741 33.224 29.881 33.0659C29.3866 32.9078 28.9726 32.7189 28.639 32.4992C28.3054 32.2794 28.0374 31.9981 27.8364 31.6578C27.6355 31.3174 27.5336 30.9289 27.5336 30.4935C27.5336 30.0955 27.5966 29.6735 27.7239 29.2287C27.8512 28.7838 28.0401 28.3457 28.2947 27.9129C28.5479 27.4815 28.8453 27.0903 29.187 26.7406C29.5286 26.3909 29.9373 26.1095 30.4129 25.8952C30.8886 25.6808 31.3883 25.5736 31.9108 25.5736C32.3918 25.5736 32.8313 25.6687 33.2292 25.8603C33.6272 26.0519 33.9621 26.3025 34.2341 26.6133C34.5061 26.9242 34.7432 27.298 34.9482 27.7347C35.1519 28.1715 35.3113 28.6137 35.4252 29.0612C35.5391 29.5087 35.6275 29.9857 35.6892 30.4935H36.5199V30.4948ZM29.9252 29.703C29.9252 29.92 29.9882 30.0781 30.1155 30.1759C30.2428 30.2737 30.5375 30.3501 30.9998 30.405C31.462 30.46 32.1962 30.4894 33.1998 30.4948C32.8635 29.3305 32.1681 28.749 31.1123 28.749C30.7506 28.749 30.4612 28.8388 30.2468 29.017C30.0324 29.1952 29.9252 29.4243 29.9252 29.7043V29.703Z" fill="#010101"/>
<path id="image__26" d="M37.6989 26.2034C36.9231 25.6032 36.3149 25.0217 35.8754 24.4576C36.3149 23.8936 36.9231 23.3121 37.6989 22.7118C38.0097 22.945 38.4077 23.2933 38.894 23.7596C39.3228 23.3456 39.722 22.9972 40.0892 22.7118C40.751 23.2089 41.3593 23.7904 41.9127 24.4576C41.3593 25.1249 40.751 25.7063 40.0892 26.2034C39.722 25.9194 39.3241 25.5697 38.894 25.1557C38.4077 25.6206 38.0097 25.9703 37.6989 26.2034ZM41.6728 30.4949L42.4714 31.2934V33.6756H42.3937C41.7934 33.6756 41.3245 33.4934 40.9855 33.129C40.6465 32.7645 40.4054 32.179 40.2607 31.3711C40.0329 32.163 39.6604 32.7444 39.1432 33.1169C38.6261 33.4894 38.0124 33.6756 37.3037 33.6756H37.1482L36.3484 32.8838V30.4935H36.4341C36.8066 30.4935 37.0853 30.3663 37.2688 30.113C37.4524 29.8598 37.5448 29.4043 37.5448 28.7477V27.3195H40.4857V28.9099C40.4857 29.4994 40.5755 29.9107 40.7537 30.1438C40.9319 30.377 41.2133 30.4935 41.5951 30.4935H41.6728V30.4949Z" fill="#010101"/>
<path id="image__27" d="M45.009 30.4949L45.8008 31.2934V33.6756H42.3092L41.5094 32.8838V30.4935H45.009V30.4949Z" fill="#010101"/>
<path id="image__28" d="M56.3694 26.0493H59.3103V29.7043C59.3103 30.4332 59.2272 31.0696 59.0624 31.6136C58.8963 32.1562 58.6672 32.5863 58.3724 32.9011C58.0777 33.2173 57.7427 33.4505 57.3675 33.6032C56.9924 33.7559 56.5797 33.8323 56.1295 33.8323H55.9741C55.4047 33.8162 54.9545 33.6273 54.6236 33.2615C54.2926 32.8971 54.0595 32.321 53.9255 31.5345C53.6978 32.3263 53.3253 32.9065 52.8081 33.2763C52.2909 33.6461 51.6773 33.831 50.9685 33.831H50.8051C50.2209 33.8149 49.764 33.6179 49.4358 33.2374C49.1075 32.8569 48.8757 32.2553 48.7417 31.4327C48.5086 32.2031 48.1348 32.7698 47.6203 33.1316C47.1058 33.4933 46.4989 33.6742 45.8008 33.6742H45.6454L44.8455 32.8824V30.4921H44.9313C45.3037 30.4921 45.5824 30.3648 45.766 30.1116C45.9495 29.8584 46.042 29.4028 46.042 28.7463V27.3181H48.9829V29.0639C48.9829 29.6534 49.0727 30.0661 49.2509 30.3019C49.4291 30.5377 49.7104 30.6556 50.0923 30.6556C50.4741 30.6556 50.7434 30.5283 50.9297 30.2751C51.1159 30.0218 51.2084 29.5663 51.2084 28.9098V27.3194H54.1412V29.0652C54.1412 29.6547 54.2324 30.0674 54.4132 30.3032C54.5941 30.539 54.8768 30.6569 55.2587 30.6569C55.6405 30.6569 55.9085 30.5296 56.0934 30.2764C56.2769 30.0232 56.3694 29.5676 56.3694 28.9111V26.0479V26.0493Z" fill="#010101"/>
<path id="image__29" d="M60.8926 33.6756V22.2308H63.8336V33.6756H60.8926Z" fill="#010101"/>
</g>
<g id="textEN">
<path id="image__30" d="M4.71488 45.891H2.47335V49.1079H1.81683V41.3919H4.32365C5.1463 41.3919 5.78942 41.5915 6.253 41.9894C6.71524 42.3887 6.94703 42.9461 6.94703 43.6615C6.94703 44.1559 6.80233 44.5914 6.51293 44.9692C6.22353 45.347 5.83498 45.6083 5.34728 45.753L7.27663 49.0382V49.1066H6.5826L4.71756 45.8896L4.71488 45.891ZM2.47335 45.3403H4.47103C5.01902 45.3403 5.45848 45.1849 5.79076 44.8727C6.12304 44.5619 6.28918 44.1586 6.28918 43.6629C6.28918 43.1175 6.11634 42.6955 5.76932 42.394C5.42365 42.0939 4.93729 41.9425 4.31159 41.9425H2.47335V45.339V45.3403Z" fill="#010101"/>
<path id="image__31" d="M14.4018 45.6685C14.4018 46.4027 14.2719 47.0432 14.0119 47.5898C13.752 48.1351 13.3822 48.5478 12.9012 48.8265L14.3054 50.0511L13.8552 50.4544L12.2809 49.0931C11.9915 49.1748 11.6967 49.215 11.3953 49.215C10.8084 49.215 10.2872 49.0703 9.82901 48.7809C9.37079 48.4915 9.01707 48.0802 8.76652 47.5483C8.51598 47.0164 8.38869 46.4027 8.38467 45.7074V44.8432C8.38467 44.1398 8.50928 43.5181 8.75849 42.9755C9.00769 42.4328 9.36007 42.0161 9.81561 41.7254C10.2712 41.4347 10.7937 41.2886 11.3845 41.2886C11.9754 41.2886 12.5127 41.4333 12.9696 41.7227C13.4251 42.0121 13.7775 42.4275 14.0267 42.9674C14.2759 43.5074 14.4005 44.1317 14.4005 44.8378V45.6699L14.4018 45.6685ZM13.7493 44.8311C13.7493 43.9026 13.539 43.1738 13.1183 42.6485C12.6976 42.122 12.1201 41.8594 11.3859 41.8594C10.6517 41.8594 10.1023 42.1233 9.67761 42.6512C9.25154 43.1791 9.03851 43.9174 9.03851 44.8633V45.6685C9.03851 46.5836 9.2502 47.3085 9.67225 47.8444C10.0943 48.379 10.6691 48.647 11.3966 48.647C12.1241 48.647 12.707 48.3843 13.1236 47.8578C13.5403 47.3312 13.7493 46.597 13.7493 45.6538V44.8325V44.8311Z" fill="#010101"/>
<path id="image__32" d="M16.9287 41.3918L19.7745 48.2008L22.631 41.3918H23.5006V49.1079H22.8494V45.7476L22.903 42.3029L20.0304 49.1065H19.5267L16.6648 42.3283L16.7184 45.7248V49.1052H16.0672V41.3891H16.9314L16.9287 41.3918Z" fill="#010101"/>
<path id="image__33" d="M32.4614 47.2107C32.4614 46.7833 32.3113 46.4457 32.0112 46.1965C31.7111 45.9473 31.1617 45.7115 30.3632 45.4864C29.5647 45.2626 28.9818 45.0174 28.6147 44.7521C28.0922 44.3783 27.8309 43.8866 27.8309 43.2783C27.8309 42.67 28.0734 42.2091 28.5598 41.8394C29.0448 41.4709 29.6665 41.286 30.4221 41.286C30.934 41.286 31.3922 41.3851 31.7968 41.5821C32.2014 41.7804 32.515 42.0551 32.7374 42.4088C32.9598 42.7625 33.071 43.1564 33.071 43.5905H32.4145C32.4145 43.0626 32.2349 42.6379 31.8745 42.3177C31.5141 41.9975 31.0304 41.8367 30.4221 41.8367C29.8139 41.8367 29.3623 41.968 29.0126 42.2319C28.6629 42.4959 28.4874 42.8402 28.4874 43.2636C28.4874 43.6562 28.6442 43.9764 28.9591 44.2242C29.2739 44.4721 29.7763 44.6905 30.469 44.8794C31.1617 45.0683 31.6856 45.2653 32.0433 45.4676C32.4011 45.6699 32.669 45.9138 32.8486 46.1965C33.0281 46.4792 33.1192 46.8128 33.1192 47.1987C33.1192 47.8069 32.8767 48.2933 32.3903 48.6618C31.904 49.0289 31.2649 49.2124 30.469 49.2124C29.9251 49.2124 29.4253 49.1146 28.9724 48.9203C28.5182 48.7261 28.1739 48.4541 27.9394 48.1044C27.705 47.7547 27.5871 47.3541 27.5871 46.9012H28.2382C28.2382 47.4452 28.4419 47.8739 28.8478 48.1888C29.2538 48.5037 29.7951 48.6604 30.469 48.6604C31.0693 48.6604 31.5516 48.5278 31.9161 48.2625C32.2805 47.9972 32.4614 47.6462 32.4614 47.208V47.2107Z" fill="#010101"/>
<path id="image__34" d="M39.7581 41.9438H37.1132V49.1079H36.4608V41.9438H33.8213V41.3932H39.7567V41.9438H39.7581Z" fill="#010101"/>
<path id="image__35" d="M46.3179 41.3919V46.6587C46.3138 47.1786 46.2 47.6301 45.9735 48.0147C45.7471 48.3992 45.4282 48.6953 45.0169 48.9016C44.6056 49.1079 44.1326 49.2111 43.5994 49.2111C42.7861 49.2111 42.1363 48.99 41.6472 48.5466C41.1582 48.1031 40.905 47.4894 40.8862 46.7056V41.3905H41.5333V46.6105C41.5333 47.2603 41.7182 47.7654 42.0894 48.1232C42.4605 48.4823 42.9643 48.6604 43.5994 48.6604C44.2344 48.6604 44.7382 48.4809 45.1067 48.1205C45.4751 47.7601 45.66 47.259 45.66 46.6159V41.3905H46.3165L46.3179 41.3919Z" fill="#010101"/>
<path id="image__36" d="M48.136 49.1079V41.3919H50.2931C50.9255 41.3919 51.4923 41.5352 51.9947 41.8233C52.4958 42.1113 52.887 42.524 53.1684 43.0599C53.4498 43.5972 53.5891 44.2082 53.5891 44.8928V45.6029C53.5891 46.2916 53.4498 46.9026 53.1711 47.4358C52.8924 47.9691 52.4985 48.3804 51.992 48.6711C51.4856 48.9605 50.9028 49.1052 50.2462 49.1052H48.1374L48.136 49.1079ZM48.7872 41.9439V48.5572H50.2503C51.0622 48.5572 51.7147 48.2879 52.2051 47.748C52.6955 47.2094 52.942 46.4792 52.942 45.5601V44.8808C52.942 43.9938 52.6995 43.2824 52.2158 42.7491C51.7321 42.2158 51.0944 41.9465 50.3025 41.9425H48.7872V41.9439Z" fill="#010101"/>
<path id="image__37" d="M56.037 49.1079H55.3858V41.3919H56.037V49.1079Z" fill="#010101"/>
<path id="image__38" d="M63.8321 45.6686C63.8321 46.3787 63.7089 47.0017 63.4637 47.539C63.2185 48.0762 62.8674 48.4889 62.4119 48.7783C61.9564 49.0677 61.4298 49.2124 60.8322 49.2124C59.9319 49.2124 59.203 48.8895 58.6497 48.2451C58.095 47.6006 57.8176 46.7297 57.8176 45.6351V44.8406C57.8176 44.1372 57.9422 43.5155 58.1914 42.9728C58.4406 42.4302 58.793 42.0135 59.2486 41.7228C59.7041 41.432 60.2293 41.286 60.8229 41.286C61.4164 41.286 61.9403 41.4294 62.3945 41.7147C62.8487 42.0015 63.1984 42.4061 63.4462 42.9286C63.6941 43.4512 63.8227 44.0568 63.8335 44.7468V45.6686H63.8321ZM63.1796 44.8312C63.1796 43.9027 62.9693 43.1738 62.5486 42.6486C62.1279 42.1221 61.5517 41.8594 60.8215 41.8594C60.0913 41.8594 59.5326 42.1234 59.1079 42.6513C58.6818 43.1792 58.4688 43.9174 58.4688 44.8633V45.6686C58.4688 46.5837 58.6805 47.3085 59.1052 47.8445C59.5286 48.379 60.1047 48.647 60.8322 48.647C61.5598 48.647 62.1466 48.3831 62.5593 47.8552C62.9719 47.3273 63.1796 46.5917 63.1796 45.6485V44.8325V44.8312Z" fill="#010101"/>
</g>
</g>
</g>
</g>
</g>
<defs>
<clipPath id="clip0_29_974">
<rect width="112.659" height="49.7612" fill="white" transform="translate(0 0.706467)"/>
</clipPath>
</defs>
</svg>
