<svg width="113" height="55" viewBox="0 0 113 55" fill="none" xmlns="http://www.w3.org/2000/svg">
<g clip-path="url(#clip0_115_266)">
<g clip-path="url(#clip1_115_266)">
<path d="M72.7139 36.7094V31.6663C72.7139 23.7774 76.527 19.6279 83.9296 19.6279C91.3321 19.6279 95.1828 23.7774 95.1828 31.6663V36.7094C95.1828 44.6345 91.3696 48.7477 83.9671 48.7477C76.5645 48.7477 72.7139 44.6358 72.7139 36.7094ZM87.1076 37.5696V30.8061C87.1076 27.7406 86.0237 26.3579 83.9671 26.3579C81.9104 26.3579 80.789 27.7406 80.789 30.8061V37.5696C80.789 40.6351 81.9104 42.0178 83.9671 42.0178C86.0237 42.0178 87.1076 40.6337 87.1076 37.5696Z" fill="#3CBFEF"/>
<path d="M87.0379 4.97437C86.77 7.1824 85.7236 8.19263 83.9657 8.19263C82.2079 8.19263 81.1347 7.1824 80.86 4.97437H72.8103C73.4454 11.5315 77.2116 14.9226 83.9657 14.9226C90.7198 14.9226 94.4485 11.5315 95.0836 4.97437H87.0366H87.0379Z" fill="#F15A2C"/>
<path d="M103.39 4.97559L98.2 12.8417H104.168V11.8717H99.9672L104.209 5.49678L103.39 4.97559Z" fill="#3CBFEF"/>
<path d="M112.182 4.97559V36.1748H103.389V4.97559H112.182Z" fill="#3CBFEF"/>
<path d="M103.39 4.97559L98.2 12.8417H103.39V4.97559Z" fill="#3CBFEF"/>
<path d="M103.389 40.8816L98.2 48.7477H103.389H112.182V40.8816H103.389Z" fill="#F15A2C"/>
<path d="M12.1983 12.5699L12.9969 13.3684V15.7506H12.4382C11.3207 15.7506 10.5222 15.2468 10.0399 14.238C9.84827 14.7551 9.56825 15.1624 9.19846 15.4599C8.82866 15.7573 8.41332 15.906 7.95375 15.906C7.01722 15.906 6.08604 15.3246 5.16021 14.1602H4.17544C3.82843 14.1602 3.58324 14.2272 3.43854 14.3626C3.29384 14.4965 3.22148 14.727 3.22148 15.0526C3.22148 15.8591 3.48543 17.2593 4.01332 19.2502H1.55206C0.754862 17.1092 0.356934 15.4559 0.356934 14.2915C0.356934 13.8213 0.413206 13.3952 0.524412 13.0147C0.635618 12.6342 0.809795 12.2939 1.04828 11.9937C1.28677 11.6936 1.60431 11.4565 2.00224 11.2836C2.40017 11.1108 2.87179 11.0103 3.41442 10.9849C3.47605 10.67 3.5618 10.3618 3.67033 10.0617C3.77885 9.76159 3.92489 9.46281 4.10845 9.16537C4.29201 8.86792 4.50236 8.60934 4.74085 8.38961C4.97934 8.16987 5.2674 7.99168 5.60638 7.85368C5.94535 7.71701 6.31113 7.64868 6.70504 7.64868C7.22757 7.64868 7.70321 7.75855 8.13329 7.97828C8.56204 8.19801 8.91977 8.49947 9.20381 8.88266C9.48786 9.26585 9.71697 9.7013 9.88981 10.1903C10.0626 10.6794 10.1805 11.2086 10.2422 11.7767C10.3092 12.0607 10.4499 12.2644 10.6656 12.3863C10.8799 12.5082 11.2069 12.5685 11.6477 12.5685H12.1983V12.5699ZM7.03865 13.3684C7.56655 13.3684 7.83049 13.0093 7.83049 12.2898C7.83049 12.0782 7.81709 11.8933 7.79164 11.7352C7.76618 11.5771 7.71929 11.4243 7.65229 11.2769C7.5853 11.1296 7.48214 11.017 7.34145 10.9393C7.20211 10.8616 7.02525 10.8227 6.81356 10.8227C6.22404 10.8227 5.69347 11.1363 5.22319 11.762C5.67873 12.4131 6.0244 12.8445 6.26289 13.0535C6.50138 13.2626 6.75997 13.3684 7.03865 13.3684Z" fill="#010101"/>
<path d="M15.5345 12.5699L16.3264 13.3685V15.7507H12.8348L12.0349 14.9589V12.5686H15.5345V12.5699Z" fill="#010101"/>
<path d="M18.8719 12.5699L19.6638 13.3685V15.7507H16.1722L15.3723 14.9589V12.5686H18.8719V12.5699Z" fill="#010101"/>
<path d="M22.2083 12.5699L23.0001 13.3685V15.7507H19.5085L18.71 14.9589V12.5686H22.2096L22.2083 12.5699Z" fill="#010101"/>
<path d="M25.5443 12.5699L26.3361 13.3685V15.7507H22.8446L22.0447 14.9589V12.5686H25.5443V12.5699Z" fill="#010101"/>
<path d="M28.8817 12.5699L29.6735 13.3685V15.7507H26.182L25.3821 14.9589V12.5686H28.8817V12.5699Z" fill="#010101"/>
<path d="M32.218 12.5699L33.0099 13.3685V15.7507H29.5183L28.7197 14.9589V12.5686H32.2194L32.218 12.5699Z" fill="#010101"/>
<path d="M35.5541 12.5699L36.3459 13.3685V15.7507H32.8543L32.0544 14.9589V12.5686H35.5541V12.5699Z" fill="#010101"/>
<path d="M38.8916 12.5699L39.6834 13.3685V15.7507H36.1919L35.3933 14.9589V12.5686H38.8929L38.8916 12.5699Z" fill="#010101"/>
<path d="M42.2278 12.5699L43.0196 13.3685V15.7507H39.528L38.7295 14.9589V12.5686H42.2291L42.2278 12.5699Z" fill="#010101"/>
<path d="M45.5641 12.5699L46.3559 13.3685V15.7507H42.8643L42.0645 14.9589V12.5686H45.5641V12.5699Z" fill="#010101"/>
<path d="M48.9001 12.5699L49.692 13.3685V15.7507H46.2004L45.4019 14.9589V12.5686H48.9015L48.9001 12.5699Z" fill="#010101"/>
<path d="M54.62 4.94226C55.0541 4.94226 55.4547 5.01059 55.8191 5.14725C56.1836 5.28391 56.4984 5.46881 56.7624 5.70194C57.0263 5.93507 57.2595 6.21643 57.4645 6.54737C57.6681 6.87831 57.8369 7.22532 57.9682 7.58708C58.0995 7.94883 58.2081 8.33872 58.2898 8.75541C58.3729 9.17209 58.4305 9.57404 58.464 9.96259C58.4975 10.3511 58.5149 10.7437 58.5149 11.1416C58.5149 11.6226 58.4586 12.0822 58.3447 12.519C58.2308 12.9558 58.0446 13.3738 57.786 13.7717C57.5274 14.1696 57.2045 14.514 56.816 14.8034C56.4274 15.0928 55.9424 15.3232 55.3609 15.4934C54.7794 15.6636 54.1283 15.7493 53.4088 15.7493H49.5367L48.7368 14.9575V12.5672H52.7791C53.441 12.5672 53.9997 12.527 54.4552 12.4466C54.9107 12.3662 55.2551 12.2497 55.4909 12.0969C55.7267 11.9442 55.8915 11.7807 55.988 11.6039C56.0831 11.4284 56.1313 11.226 56.1313 10.9983C56.1313 10.8844 56.1206 10.6982 56.1005 10.4396C55.8473 10.7397 55.523 10.9996 55.1265 11.2193C54.7312 11.4391 54.3185 11.5999 53.8885 11.7003C53.4584 11.8008 53.0256 11.837 52.5888 11.8089C52.152 11.7807 51.7608 11.6869 51.4165 11.5302C51.0721 11.3721 50.7921 11.1229 50.5751 10.7812C50.358 10.4396 50.2495 10.0282 50.2495 9.54724C50.2495 9.15467 50.3111 8.74603 50.4357 8.3213C50.5603 7.89658 50.7492 7.48391 51.0025 7.07928C51.2557 6.67599 51.5531 6.31558 51.8948 5.9967C52.2364 5.67916 52.6438 5.42192 53.1167 5.22898C53.5897 5.03471 54.0908 4.93824 54.6187 4.93824L54.62 4.94226ZM53.4329 3.83288C52.6411 3.22192 52.0315 2.64043 51.6014 2.08709C51.8131 1.81242 52.0931 1.5123 52.4388 1.18672C52.7858 0.861144 53.1167 0.575761 53.4316 0.333252C53.6955 0.530207 54.0908 0.881241 54.6187 1.38904C55.0796 0.949573 55.4775 0.597198 55.8138 0.333252C56.1032 0.550304 56.418 0.822289 56.757 1.14787C57.096 1.47344 57.3894 1.78696 57.6373 2.08709C57.0839 2.75432 56.4757 3.3358 55.8138 3.83288C55.4467 3.54884 55.0487 3.19914 54.6187 2.78514C54.1162 3.27149 53.721 3.62119 53.4316 3.83288H53.4329ZM52.633 9.0783C52.633 9.28464 52.7148 9.43604 52.8769 9.53251C53.0403 9.62763 53.3619 9.68659 53.8429 9.70668C54.3239 9.72678 55.0018 9.68659 55.8754 9.58208C55.7093 9.14262 55.4574 8.7889 55.1184 8.52228C54.7794 8.25565 54.3494 8.12301 53.8268 8.12301C53.4597 8.12301 53.169 8.21278 52.9533 8.39097C52.7389 8.56917 52.6317 8.79828 52.6317 9.07696L52.633 9.0783Z" fill="#010101"/>
<path d="M58.9878 16.2251C59.2772 16.2251 59.5036 16.2037 59.6671 16.1595C59.8305 16.1152 59.9739 16.0188 60.0972 15.8687C60.2218 15.7187 60.3048 15.507 60.3491 15.2323C60.3933 14.9576 60.4147 14.5852 60.4147 14.1149V8.12451H63.3556V14.829C63.3556 16.335 62.9925 17.4631 62.265 18.2161C61.5388 18.9691 60.5259 19.3657 59.2276 19.4072C59.0668 18.6515 58.9878 17.5917 58.9878 16.2264V16.2251Z" fill="#010101"/>
<path d="M8.80727 30.1216L9.5991 30.9202V33.3024H7.94576C7.83723 33.8557 7.66037 34.3635 7.41385 34.8271C7.16866 35.2907 6.84844 35.7074 6.45587 36.0798C6.0633 36.4523 5.57024 36.7444 4.97804 36.9561C4.38584 37.1678 3.72262 37.2736 2.98706 37.2736C2.00898 37.2736 1.16623 37.1678 0.457463 36.9561C0.302043 36.2888 0.224333 35.288 0.224333 33.9535C0.839314 34.046 1.54808 34.0929 2.35064 34.0929C3.21483 34.0929 3.88876 34.0219 4.37244 33.8798C4.85611 33.7378 5.19911 33.5194 5.40009 33.2247C4.76367 33.1831 4.18888 33.1242 3.67707 33.0465C3.16525 32.9688 2.66148 32.8509 2.16842 32.6928C1.67403 32.5347 1.26002 32.3457 0.926402 32.126C0.592785 31.9063 0.32482 31.6249 0.123846 31.2846C-0.0771282 30.9443 -0.178955 30.5557 -0.178955 30.1203C-0.178955 29.7224 -0.115983 29.3003 0.0113004 28.8555C0.138584 28.4107 0.3275 27.9725 0.582067 27.5398C0.835294 27.1084 1.13274 26.7171 1.47439 26.3674C1.81605 26.0177 2.22469 25.7364 2.70033 25.522C3.17597 25.3076 3.67573 25.2004 4.19826 25.2004C4.67926 25.2004 5.11872 25.2956 5.51665 25.4872C5.91458 25.6788 6.24954 25.9293 6.52152 26.2401C6.79351 26.551 7.03065 26.9248 7.23565 27.3616C7.4393 27.7984 7.59874 28.2405 7.71263 28.688C7.82651 29.1355 7.91494 29.6125 7.97657 30.1203H8.80727V30.1216ZM2.21264 29.3298C2.21264 29.5468 2.27561 29.7049 2.40289 29.8027C2.53018 29.9006 2.82494 29.9769 3.28718 30.0319C3.74942 30.0868 4.48364 30.1163 5.48717 30.1216C5.15088 28.9573 4.45551 28.3758 3.39972 28.3758C3.03797 28.3758 2.74857 28.4656 2.53419 28.6438C2.31982 28.822 2.21264 29.0511 2.21264 29.3311V29.3298Z" fill="#010101"/>
<path d="M12.1366 30.1217L12.9284 30.9202V33.3025H9.43684L8.63696 32.5106V30.1204H12.1366V30.1217Z" fill="#010101"/>
<path d="M15.1554 34.4132C15.4448 34.6302 15.7597 34.9022 16.0986 35.2278C16.4376 35.5534 16.731 35.8669 16.9789 36.167C16.4256 36.8342 15.8173 37.4157 15.1554 37.9128C14.7883 37.6287 14.3904 37.279 13.9603 36.865C13.4578 37.3514 13.0626 37.6998 12.7732 37.9128C11.9814 37.3018 11.3717 36.7203 10.9417 36.167C11.1533 35.8923 11.4334 35.5922 11.779 35.2666C12.1261 34.9411 12.457 34.6557 12.7719 34.4132C13.0358 34.6101 13.4311 34.9611 13.9589 35.4689C14.4198 35.0295 14.8178 34.6771 15.1541 34.4132H15.1554ZM12.9286 33.3024H12.7732L11.9747 32.5106V30.1204H12.0604C12.4329 30.1204 12.7116 29.9931 12.8951 29.7398C13.0787 29.4866 13.1711 29.0311 13.1711 28.3746V25.6748H16.112V29.1744C16.112 29.9033 16.029 30.5397 15.8642 31.0837C15.698 31.6263 15.4689 32.0564 15.1742 32.3713C14.8794 32.6875 14.5444 32.9206 14.1693 33.0733C13.7941 33.2261 13.3815 33.3024 12.9313 33.3024H12.9286Z" fill="#010101"/>
<path d="M18.1658 29.6486C18.6682 29.8241 19.2885 29.9742 20.0281 30.0988C20.7677 30.2234 21.4149 30.285 21.9682 30.285C22.5792 30.285 23.0521 30.2636 23.3884 30.2194C23.7247 30.1752 23.9458 30.1162 24.0516 30.0412C24.1575 29.9662 24.2111 29.867 24.2111 29.7424C24.2111 29.4731 23.9016 29.173 23.2839 28.842C22.6663 28.5111 21.7177 28.0917 20.4395 27.5853C20.5373 27.1244 20.7262 26.5831 21.0062 25.9601C21.2849 25.3371 21.5569 24.8185 21.8208 24.4045C22.5765 24.8025 23.2397 25.2553 23.8118 25.7618C24.3839 26.2682 24.8314 26.7868 25.1543 27.3173C25.4772 27.8479 25.7184 28.3691 25.8765 28.8809C26.0346 29.3927 26.1136 29.8978 26.1136 30.3936C26.1136 30.8022 26.0319 31.1854 25.8698 31.5418C25.7063 31.8982 25.4638 32.2224 25.1409 32.5118C24.818 32.8012 24.3812 33.0317 23.8332 33.2018C23.2853 33.372 22.6596 33.4578 21.9561 33.4578C20.7356 33.4578 19.5793 33.2487 18.4873 32.8294C18.2756 31.9866 18.1684 30.9255 18.1684 29.6486H18.1658Z" fill="#010101"/>
<path d="M36.0431 30.1216L36.8349 30.9202V33.3024H35.1816C35.0731 33.8557 34.8962 34.3635 34.6497 34.8271C34.4045 35.2907 34.0843 35.7074 33.6917 36.0798C33.2991 36.4523 32.8061 36.7444 32.2139 36.9561C31.6217 37.1678 30.9585 37.2736 30.2229 37.2736C29.2448 37.2736 28.4021 37.1678 27.6933 36.9561C27.5379 36.2888 27.4602 35.288 27.4602 33.9535C28.0752 34.046 28.7839 34.0929 29.5865 34.0929C30.4507 34.0929 31.1246 34.0219 31.6083 33.8798C32.092 33.7378 32.435 33.5194 32.6359 33.2247C31.9995 33.1831 31.4247 33.1242 30.9129 33.0465C30.4011 32.9688 29.8973 32.8509 29.4043 32.6928C28.9099 32.5347 28.4959 32.3457 28.1622 32.126C27.8286 31.9063 27.5607 31.6249 27.3597 31.2846C27.1587 30.9443 27.0569 30.5557 27.0569 30.1203C27.0569 29.7224 27.1199 29.3003 27.2471 28.8555C27.3744 28.4107 27.5633 27.9725 27.8179 27.5398C28.0711 27.1084 28.3686 26.7171 28.7102 26.3674C29.0519 26.0177 29.4605 25.7364 29.9362 25.522C30.4118 25.3076 30.9116 25.2004 31.4341 25.2004C31.9151 25.2004 32.3546 25.2956 32.7525 25.4872C33.1504 25.6788 33.4854 25.9293 33.7574 26.2401C34.0293 26.551 34.2665 26.9248 34.4715 27.3616C34.6751 27.7984 34.8346 28.2405 34.9485 28.688C35.0624 29.1355 35.1508 29.6125 35.2124 30.1203H36.0431V30.1216ZM29.4485 29.3298C29.4485 29.5468 29.5114 29.7049 29.6387 29.8027C29.766 29.9006 30.0608 29.9769 30.523 30.0319C30.9853 30.0868 31.7195 30.1163 32.723 30.1216C32.3867 28.9573 31.6913 28.3758 30.6356 28.3758C30.2738 28.3758 29.9844 28.4656 29.77 28.6438C29.5557 28.822 29.4485 29.0511 29.4485 29.3311V29.3298Z" fill="#010101"/>
<path d="M37.2222 25.8302C36.4464 25.23 35.8381 24.6485 35.3987 24.0844C35.8381 23.5204 36.4464 22.9389 37.2222 22.3386C37.533 22.5718 37.931 22.9201 38.4173 23.3864C38.8461 22.9724 39.2453 22.624 39.6124 22.3386C40.2743 22.8357 40.8826 23.4172 41.4359 24.0844C40.8826 24.7517 40.2743 25.3331 39.6124 25.8302C39.2453 25.5462 38.8474 25.1965 38.4173 24.7825C37.931 25.2474 37.533 25.5971 37.2222 25.8302ZM41.1961 30.1217L41.9947 30.9202V33.3024H41.9169C41.3167 33.3024 40.8478 33.1202 40.5088 32.7558C40.1698 32.3913 39.9286 31.8058 39.7839 30.9979C39.5562 31.7898 39.1837 32.3712 38.6665 32.7437C38.1493 33.1162 37.5357 33.3024 36.8269 33.3024H36.6715L35.8716 32.5106V30.1203H35.9574C36.3299 30.1203 36.6085 29.9931 36.7921 29.7398C36.9757 29.4866 37.0681 29.0311 37.0681 28.3745V26.9463H40.009V28.5367C40.009 29.1262 40.0988 29.5375 40.277 29.7706C40.4552 30.0038 40.7366 30.1203 41.1184 30.1203H41.1961V30.1217Z" fill="#010101"/>
<path d="M44.5323 30.1217L45.3242 30.9202V33.3025H41.8326L41.0327 32.5106V30.1204H44.5323V30.1217Z" fill="#010101"/>
<path d="M55.8927 25.6761H58.8337V29.3312C58.8337 30.0601 58.7506 30.6965 58.5858 31.2404C58.4197 31.7831 58.1906 32.2132 57.8958 32.528C57.601 32.8442 57.2661 33.0773 56.8909 33.2301C56.5158 33.3828 56.1031 33.4592 55.6529 33.4592H55.4975C54.9281 33.4431 54.4779 33.2542 54.147 32.8884C53.816 32.524 53.5829 31.9479 53.4489 31.1614C53.2211 31.9532 52.8487 32.5334 52.3315 32.9032C51.8143 33.273 51.2007 33.4579 50.4919 33.4579H50.3284C49.7443 33.4418 49.2874 33.2448 48.9591 32.8643C48.6309 32.4838 48.3991 31.8822 48.2651 31.0596C48.032 31.83 47.6582 32.3967 47.1437 32.7585C46.6292 33.1202 46.0222 33.3011 45.3242 33.3011H45.1688L44.3689 32.5093V30.119H44.4546C44.8271 30.119 45.1058 29.9917 45.2894 29.7385C45.4729 29.4853 45.5654 29.0297 45.5654 28.3732V26.945H48.5063V28.6908C48.5063 29.2803 48.596 29.6929 48.7742 29.9288C48.9524 30.1646 49.2338 30.2825 49.6157 30.2825C49.9975 30.2825 50.2668 30.1552 50.4531 29.902C50.6393 29.6487 50.7317 29.1932 50.7317 28.5367V26.9463H53.6646V28.6921C53.6646 29.2816 53.7557 29.6943 53.9366 29.9301C54.1175 30.1659 54.4002 30.2838 54.782 30.2838C55.1639 30.2838 55.4318 30.1565 55.6167 29.9033C55.8003 29.6501 55.8927 29.1945 55.8927 28.538V25.6748V25.6761Z" fill="#010101"/>
<path d="M60.416 33.3025V21.8577H63.3569V33.3025H60.416Z" fill="#010101"/>
<path d="M4.23813 45.5179H1.9966V48.7349H1.34009V41.0188H3.8469C4.66956 41.0188 5.31268 41.2184 5.77626 41.6164C6.2385 42.0156 6.47029 42.573 6.47029 43.2885C6.47029 43.7829 6.32559 44.2183 6.03618 44.5961C5.74678 44.974 5.35823 45.2352 4.87053 45.3799L6.79988 48.6652V48.7335H6.10585L4.24081 45.5166L4.23813 45.5179ZM1.9966 44.9673H3.99429C4.54228 44.9673 4.98174 44.8118 5.31402 44.4997C5.64629 44.1888 5.81243 43.7855 5.81243 43.2898C5.81243 42.7445 5.63959 42.3224 5.29258 42.021C4.9469 41.7209 4.46055 41.5695 3.83485 41.5695H1.9966V44.9659V44.9673Z" fill="#010101"/>
<path d="M13.9251 45.2954C13.9251 46.0296 13.7952 46.6701 13.5352 47.2167C13.2753 47.762 12.9055 48.1747 12.4245 48.4534L13.8287 49.678L13.3785 50.0813L11.8042 48.72C11.5148 48.8018 11.22 48.8419 10.9186 48.8419C10.3317 48.8419 9.81051 48.6972 9.35229 48.4078C8.89407 48.1184 8.54036 47.7071 8.28981 47.1752C8.03926 46.6433 7.91198 46.0296 7.90796 45.3343V44.4701C7.90796 43.7667 8.03256 43.145 8.28177 42.6024C8.53098 42.0597 8.88335 41.6431 9.33889 41.3523C9.79444 41.0616 10.317 40.9155 10.9078 40.9155C11.4987 40.9155 12.036 41.0602 12.4928 41.3496C12.9484 41.639 13.3008 42.0544 13.55 42.5943C13.7992 43.1343 13.9238 43.7586 13.9238 44.4647V45.2968L13.9251 45.2954ZM13.2726 44.458C13.2726 43.5295 13.0623 42.8007 12.6416 42.2755C12.2209 41.7489 11.6434 41.4863 10.9092 41.4863C10.1749 41.4863 9.62562 41.7502 9.20089 42.2781C8.77483 42.806 8.56179 43.5443 8.56179 44.4902V45.2954C8.56179 46.2105 8.77349 46.9354 9.19553 47.4713C9.61758 48.0059 10.1924 48.2739 10.9199 48.2739C11.6474 48.2739 12.2302 48.0113 12.6469 47.4847C13.0636 46.9581 13.2726 46.2239 13.2726 45.2807V44.4594V44.458Z" fill="#010101"/>
<path d="M16.4521 41.0188L19.2979 47.8278L22.1544 41.0188H23.0239V48.7349H22.3728V45.3746L22.4264 41.9299L19.5538 48.7335H19.05L16.1881 41.9553L16.2417 45.3518V48.7322H15.5906V41.0161H16.4548L16.4521 41.0188Z" fill="#010101"/>
<path d="M31.9846 46.8376C31.9846 46.4102 31.8346 46.0725 31.5345 45.8233C31.2343 45.5741 30.685 45.3383 29.8865 45.1132C29.0879 44.8894 28.5051 44.6443 28.138 44.379C27.6155 44.0052 27.3542 43.5134 27.3542 42.9052C27.3542 42.2969 27.5967 41.836 28.0831 41.4662C28.5681 41.0977 29.1898 40.9128 29.9454 40.9128C30.4572 40.9128 30.9155 41.012 31.3201 41.2089C31.7247 41.4072 32.0382 41.6819 32.2606 42.0356C32.4831 42.3893 32.5943 42.7832 32.5943 43.2173H31.9377C31.9377 42.6895 31.7582 42.2647 31.3978 41.9445C31.0374 41.6243 30.5537 41.4635 29.9454 41.4635C29.3371 41.4635 28.8856 41.5948 28.5359 41.8588C28.1862 42.1227 28.0107 42.467 28.0107 42.8904C28.0107 43.283 28.1675 43.6032 28.4823 43.8511C28.7972 44.0989 29.2996 44.3173 29.9923 44.5063C30.685 44.6952 31.2089 44.8921 31.5666 45.0944C31.9244 45.2968 32.1923 45.5406 32.3719 45.8233C32.5514 46.106 32.6425 46.4396 32.6425 46.8255C32.6425 47.4338 32.4 47.9201 31.9136 48.2886C31.4273 48.6557 30.7882 48.8393 29.9923 48.8393C29.4484 48.8393 28.9486 48.7415 28.4957 48.5472C28.0415 48.3529 27.6972 48.0809 27.4627 47.7312C27.2283 47.3815 27.1104 46.9809 27.1104 46.5281H27.7615C27.7615 47.072 27.9652 47.5008 28.3711 47.8156C28.7771 48.1305 29.3184 48.2873 29.9923 48.2873C30.5926 48.2873 31.0749 48.1546 31.4393 47.8893C31.8038 47.624 31.9846 47.273 31.9846 46.8349V46.8376Z" fill="#010101"/>
<path d="M39.2813 41.5707H36.6364V48.7347H35.9839V41.5707H33.3445V41.02H39.2799V41.5707H39.2813Z" fill="#010101"/>
<path d="M45.8411 41.0187V46.2855C45.8371 46.8054 45.7232 47.2569 45.4967 47.6414C45.2703 48.026 44.9514 48.3221 44.5401 48.5284C44.1288 48.7347 43.6558 48.8379 43.1226 48.8379C42.3093 48.8379 41.6595 48.6168 41.1704 48.1734C40.6814 47.7299 40.4282 47.1162 40.4094 46.3324V41.0173H41.0566V46.2373C41.0566 46.8871 41.2415 47.3922 41.6126 47.75C41.9837 48.109 42.4875 48.2872 43.1226 48.2872C43.7577 48.2872 44.2614 48.1077 44.6299 47.7473C44.9983 47.3869 45.1832 46.8858 45.1832 46.2427V41.0173H45.8397L45.8411 41.0187Z" fill="#010101"/>
<path d="M47.6592 48.7349V41.0188H49.8163C50.4487 41.0188 51.0155 41.1622 51.5179 41.4502C52.019 41.7383 52.4102 42.151 52.6916 42.6869C52.9729 43.2242 53.1123 43.8351 53.1123 44.5198V45.2299C53.1123 45.9185 52.9729 46.5295 52.6943 47.0628C52.4156 47.596 52.0217 48.0073 51.5152 48.2981C51.0087 48.5875 50.4259 48.7322 49.7694 48.7322H47.6605L47.6592 48.7349ZM48.3103 41.5708V48.1842H49.7734C50.5854 48.1842 51.2379 47.9149 51.7282 47.3749C52.2186 46.8363 52.4651 46.1061 52.4651 45.187V44.5077C52.4651 43.6207 52.2226 42.9093 51.739 42.376C51.2553 41.8428 50.6175 41.5735 49.8257 41.5695H48.3103V41.5708Z" fill="#010101"/>
<path d="M55.5603 48.7349H54.9092V41.0188H55.5603V48.7349Z" fill="#010101"/>
<path d="M63.3553 45.2954C63.3553 46.0055 63.232 46.6285 62.9869 47.1658C62.7417 47.7031 62.3906 48.1158 61.9351 48.4052C61.4795 48.6946 60.953 48.8393 60.3554 48.8393C59.4551 48.8393 58.7262 48.5164 58.1729 47.8719C57.6182 47.2274 57.3408 46.3566 57.3408 45.2619V44.4674C57.3408 43.764 57.4654 43.1423 57.7146 42.5997C57.9638 42.0571 58.3162 41.6404 58.7718 41.3496C59.2273 41.0589 59.7525 40.9128 60.3461 40.9128C60.9396 40.9128 61.4635 41.0562 61.9177 41.3416C62.3719 41.6283 62.7216 42.0329 62.9694 42.5555C63.2173 43.078 63.3459 43.6836 63.3566 44.3736V45.2954H63.3553ZM62.7028 44.458C62.7028 43.5295 62.4925 42.8007 62.0718 42.2754C61.651 41.7489 61.0749 41.4863 60.3447 41.4863C59.6145 41.4863 59.0558 41.7502 58.6311 42.2781C58.205 42.806 57.992 43.5443 57.992 44.4902V45.2954C57.992 46.2105 58.2037 46.9354 58.6284 47.4713C59.0518 48.0059 59.6279 48.2739 60.3554 48.2739C61.083 48.2739 61.6698 48.0099 62.0825 47.482C62.4951 46.9541 62.7028 46.2186 62.7028 45.2753V44.4594V44.458Z" fill="#010101"/>
</g>
</g>
<defs>
<clipPath id="clip0_115_266">
<rect width="113" height="55" fill="white"/>
</clipPath>
<clipPath id="clip1_115_266">
<rect width="112.659" height="49.7612" fill="white" transform="translate(-0.476807 0.333252)"/>
</clipPath>
</defs>
</svg>
