<svg width="343" height="234" viewBox="0 0 343 234" fill="none" xmlns="http://www.w3.org/2000/svg">
<g clip-path="url(#clip0_235_1094)">
<path d="M164.239 22.1924H168.5V40.7405H164.021L157.357 28.8128V40.7405H153.069V22.1924H157.548L164.239 34.2569V22.1924ZM136.19 21.7C142.335 21.7 145.968 26.3507 145.968 31.4391C145.968 36.5275 142.308 41.1782 136.19 41.1782C130.018 41.1782 126.385 36.5275 126.385 31.4391C126.385 26.378 130.045 21.7 136.19 21.7ZM141.626 31.4664C141.626 28.4298 139.549 25.5847 136.217 25.5847C132.831 25.5847 130.81 28.4298 130.81 31.4664C130.81 34.5031 132.858 37.3482 136.217 37.3482C139.549 37.3209 141.626 34.5031 141.626 31.4664ZM67.0369 25.8856V22.1924H79.7095V25.8856H75.5035V40.7131H71.2155V25.8856H67.0369ZM112.429 29.8524H119.448V33.2173H112.457V37.2935H119.448V40.7405H108.168V22.1924H119.448V25.6394H112.457V29.8524H112.429ZM94.1301 22.1924C98.2269 22.1924 100.876 25.2837 100.876 28.8949C100.876 31.4938 99.5108 33.7918 97.189 34.8861L100.903 40.7405H95.9327L92.6553 35.5974H90.6342V40.7405H86.3462V22.1924H94.1301ZM96.5336 28.8949C96.5336 27.1714 95.3592 25.6941 93.5839 25.6941H90.6615V32.0957H93.5839C95.3865 32.0957 96.5336 30.6184 96.5336 28.8949ZM58.6522 38.4699H52.0701L51.3599 40.7131H46.7988L53.4083 22.165H57.3412L64.0326 40.7131H59.3896L58.6522 38.4699ZM55.3748 27.4723L53.1079 35.105H57.6143L55.3748 27.4723ZM36.2566 22.1924C40.3533 22.1924 43.0025 25.2837 43.0025 28.8949C43.0025 32.506 40.3533 35.5974 36.2566 35.5974H32.7879V40.7405H28.5V22.1924H36.2566ZM38.6873 28.8949C38.6873 27.1714 37.5128 25.6941 35.7376 25.6941H32.7879V32.0957H35.7103C37.5128 32.0957 38.6873 30.6184 38.6873 28.8949Z" fill="black"/>
</g>
<g clip-path="url(#clip1_235_1094)">
<path d="M248.283 20.4278C248.283 22.0023 247.015 23.2706 245.44 23.2706C243.866 23.2706 242.597 22.0023 242.597 20.4278C242.597 18.8533 243.822 17.5849 245.44 17.5849C247.058 17.6287 248.283 18.897 248.283 20.4278ZM236.562 26.1572C236.562 26.4196 236.562 26.857 236.562 26.857C236.562 26.857 235.206 25.1076 232.319 25.1076C227.552 25.1076 223.835 28.7377 223.835 33.7673C223.835 38.7533 227.508 42.4272 232.319 42.4272C235.25 42.4272 236.562 40.634 236.562 40.634V41.3775C236.562 41.7274 236.824 41.9898 237.174 41.9898H240.717V25.5449C240.717 25.5449 237.48 25.5449 237.174 25.5449C236.824 25.5449 236.562 25.8511 236.562 26.1572ZM236.562 36.6977C235.906 37.6599 234.594 38.4909 233.019 38.4909C230.22 38.4909 228.077 36.7414 228.077 33.7673C228.077 30.7933 230.22 29.0439 233.019 29.0439C234.55 29.0439 235.95 29.9186 236.562 30.8371V36.6977ZM243.341 25.5449H247.539V41.9898H243.341V25.5449ZM306.059 25.1076C303.173 25.1076 301.817 26.857 301.817 26.857V17.6287H297.618V41.9898C297.618 41.9898 300.854 41.9898 301.16 41.9898C301.51 41.9898 301.773 41.6836 301.773 41.3775V40.634C301.773 40.634 303.128 42.4272 306.015 42.4272C310.782 42.4272 314.5 38.7533 314.5 33.7673C314.5 28.7814 310.782 25.1076 306.059 25.1076ZM305.359 38.4472C303.741 38.4472 302.473 37.6161 301.817 36.654V30.7933C302.473 29.9186 303.872 29.0001 305.359 29.0001C308.158 29.0001 310.301 30.7496 310.301 33.7236C310.301 36.6977 308.158 38.4472 305.359 38.4472ZM295.431 32.2366V42.0336H291.232V32.7177C291.232 30.006 290.358 28.9126 287.996 28.9126C286.727 28.9126 285.415 29.5687 284.584 30.5309V41.9898H280.385V25.5449H283.71C284.06 25.5449 284.322 25.8511 284.322 26.1572V26.857C285.547 25.5887 287.165 25.1076 288.783 25.1076C290.62 25.1076 292.15 25.6324 293.375 26.6821C294.862 27.9067 295.431 29.4812 295.431 32.2366ZM270.195 25.1076C267.309 25.1076 265.953 26.857 265.953 26.857V17.6287H261.754V41.9898C261.754 41.9898 264.99 41.9898 265.296 41.9898C265.646 41.9898 265.909 41.6836 265.909 41.3775V40.634C265.909 40.634 267.265 42.4272 270.151 42.4272C274.918 42.4272 278.636 38.7533 278.636 33.7673C278.68 28.7814 274.963 25.1076 270.195 25.1076ZM269.496 38.4472C267.877 38.4472 266.609 37.6161 265.953 36.654V30.7933C266.609 29.9186 268.008 29.0001 269.496 29.0001C272.294 29.0001 274.438 30.7496 274.438 33.7236C274.438 36.6977 272.294 38.4472 269.496 38.4472ZM258.124 25.1076C259.392 25.1076 260.048 25.3262 260.048 25.3262V29.2188C260.048 29.2188 256.549 28.0379 254.362 30.5309V42.0336H250.164V25.5449C250.164 25.5449 253.4 25.5449 253.706 25.5449C254.056 25.5449 254.319 25.8511 254.319 26.1572V26.857C255.106 25.9385 256.812 25.1076 258.124 25.1076ZM214.519 40.5027C214.3 39.9779 214.081 39.4093 213.863 38.9282C213.513 38.141 213.163 37.3975 212.857 36.6977L212.813 36.654C209.795 30.0935 206.559 23.4456 203.147 16.8851L203.016 16.6227C202.666 15.9667 202.316 15.2669 201.966 14.5671C201.529 13.7799 201.092 12.9489 200.392 12.1616C198.992 10.4122 196.98 9.44995 194.837 9.44995C192.651 9.44995 190.682 10.4122 189.239 12.0741C188.583 12.8614 188.102 13.6924 187.665 14.4796C187.315 15.1794 186.965 15.8792 186.615 16.5352L186.484 16.7976C183.116 23.3581 179.836 30.006 176.818 36.5665L176.774 36.654C176.468 37.3538 176.118 38.0972 175.768 38.8845C175.55 39.3656 175.331 39.8904 175.112 40.459C174.544 42.0772 174.369 43.6081 174.587 45.1826C175.069 48.4628 177.255 51.2182 180.273 52.4428C181.41 52.9239 182.591 53.1426 183.816 53.1426C184.166 53.1426 184.603 53.0988 184.953 53.055C186.396 52.8801 187.883 52.399 189.327 51.568C191.12 50.5621 192.825 49.1188 194.75 47.0194C196.674 49.1188 198.424 50.5621 200.173 51.568C201.617 52.399 203.104 52.8801 204.547 53.055C204.897 53.0988 205.334 53.1426 205.684 53.1426C206.909 53.1426 208.133 52.9239 209.227 52.4428C212.288 51.2182 214.431 48.419 214.912 45.1826C215.262 43.6517 215.087 42.121 214.519 40.5027ZM194.794 42.777C192.432 39.803 190.901 37.0038 190.376 34.6421C190.158 33.6361 190.114 32.7614 190.245 31.9742C190.333 31.2744 190.595 30.6621 190.945 30.1373C191.776 28.9564 193.175 28.2128 194.794 28.2128C196.412 28.2128 197.855 28.9126 198.642 30.1373C198.992 30.6621 199.255 31.2744 199.342 31.9742C199.473 32.7614 199.43 33.6799 199.211 34.6421C198.686 36.9601 197.155 39.7593 194.794 42.777ZM212.244 44.8326C211.938 47.1069 210.408 49.0751 208.264 49.9498C207.215 50.3871 206.078 50.5184 204.94 50.3871C203.847 50.256 202.754 49.906 201.617 49.25C200.042 48.3753 198.467 47.0194 196.631 45.0076C199.517 41.4649 201.267 38.2285 201.923 35.3418C202.229 33.9861 202.273 32.7614 202.141 31.6243C201.966 30.5309 201.573 29.5249 200.96 28.6502C199.605 26.6821 197.33 25.5449 194.794 25.5449C192.257 25.5449 189.983 26.7258 188.627 28.6502C188.015 29.5249 187.621 30.5309 187.446 31.6243C187.271 32.7614 187.315 34.0298 187.665 35.3418C188.321 38.2285 190.114 41.5087 192.957 45.0513C191.164 47.0632 189.545 48.419 187.971 49.2937C186.834 49.9498 185.74 50.2997 184.647 50.4309C183.466 50.5621 182.329 50.3871 181.323 49.9935C179.18 49.1188 177.649 47.1507 177.343 44.8764C177.212 43.783 177.299 42.6896 177.736 41.4649C177.868 41.0276 178.086 40.5902 178.305 40.0654C178.611 39.3656 178.961 38.6221 179.311 37.8786L179.355 37.7911C182.373 31.2744 185.609 24.6264 188.977 18.1535L189.108 17.891C189.458 17.235 189.808 16.5352 190.158 15.8792C190.508 15.1794 190.901 14.5234 191.382 13.9548C192.301 12.9051 193.525 12.3365 194.881 12.3365C196.237 12.3365 197.462 12.9051 198.38 13.9548C198.861 14.5234 199.255 15.1794 199.605 15.8792C199.955 16.5352 200.304 17.235 200.654 17.891L200.786 18.1535C204.109 24.6702 207.346 31.3181 210.364 37.8348V37.8786C210.714 38.5784 211.02 39.3656 211.37 40.0654C211.588 40.5902 211.807 41.0276 211.938 41.4649C212.288 42.6021 212.419 43.6955 212.244 44.8326Z" fill="black"/>
</g>
<g clip-path="url(#clip2_235_1094)">
<path fill-rule="evenodd" clip-rule="evenodd" d="M41.3412 101.718C38.9351 104.124 35.2516 104.124 28.623 104.124C21.9958 104.124 18.3123 104.123 15.9048 101.718C13.5 99.3121 13.5 95.6274 13.5 89.0001C13.5 82.3743 13.5 78.688 15.9048 76.2833C18.3123 73.8757 21.9958 73.8757 28.623 73.8757C35.2516 73.8757 38.9351 73.8757 41.3412 76.2833C43.7488 78.6894 43.7488 82.3728 43.7488 89.0001C43.7488 95.6274 43.7488 99.3121 41.3412 101.718ZM30.0695 87.0573L20.9398 87.0394L20.9384 89.2875L29.5552 89.304L29.0479 91.5479L20.9384 91.5314V93.7781L28.5405 93.7945H28.5281C28.2339 94.9275 29.063 96.0509 30.2015 96.0509H31.7799L32.6516 93.7945H28.5405L29.0479 91.5506L34.2149 91.5603L35.0165 89.3136L29.5662 89.304L30.0763 87.0573L37.4542 87.0216L38.3686 84.7845L30.5864 84.8107L30.0695 87.0573ZM29.2568 82.5558L20.9398 82.5379L20.9384 84.7859L30.5851 84.8025L30.6717 84.4106C30.8875 83.4646 30.1973 82.5558 29.2568 82.5558Z" fill="black"/>
<path d="M67.2704 97.7438H71.1367L71.5106 95.4318H72.2139C72.7761 97.1312 74.2984 97.9795 75.8695 97.9795C79.1246 97.9795 81.1171 95.8573 81.1171 91.3297C81.1171 87.3434 79.4762 84.6799 75.9616 84.6799C74.2761 84.6799 72.7761 85.6928 72.2139 87.2011H71.5106L71.745 83.6641V80.0559H67.2704V97.7438ZM71.745 91.7301V90.9516C71.745 89.2996 72.659 88.2866 74.2523 88.2866C75.635 88.2866 76.5713 88.9005 76.5713 90.48V92.2017C76.5713 93.4994 75.9393 94.3714 74.2747 94.3714C72.6129 94.3714 71.745 93.3571 71.745 91.7301ZM82.2877 91.352C82.2877 95.3383 84.8885 97.9795 88.8469 97.9795C92.1286 97.9795 94.5396 96.2341 94.8692 93.5468H90.6049C90.4877 94.2765 89.7384 94.7007 88.7074 94.7007C87.6525 94.7007 86.7846 94.0421 86.7846 93.0501V92.3901H94.7283C94.8692 91.8962 94.9146 91.2111 94.9146 90.5512C94.9146 86.7309 92.1747 84.6784 88.7074 84.6784C85.0992 84.6784 82.2877 87.0839 82.2877 91.352ZM86.7846 89.7014V89.4433C86.7846 88.5936 87.5814 87.9796 88.6599 87.9796C89.7384 87.9796 90.4417 88.5936 90.4417 89.4433V89.7014H86.7846ZM105.347 84.8431C103.918 84.8431 102.817 85.6691 102.465 87.7201H101.762L101.223 84.9142H95.342V88.5224H97.2883V97.7438H101.763V92.5087C101.763 89.82 103.426 89.0652 105.323 89.0652C105.582 89.0652 105.84 89.0889 106.12 89.1126V84.9142C105.866 84.8626 105.607 84.8389 105.347 84.8431ZM107.309 84.9142V101.683H111.784V98.9939L111.549 95.4555H112.253C112.815 96.9652 114.315 97.9795 116.002 97.9795C119.515 97.9795 121.156 95.3146 121.156 91.3297C121.156 86.8021 119.164 84.6799 115.906 84.6799C114.338 84.6799 112.815 85.5282 112.253 87.2248H111.549L111.174 84.9142H107.309ZM111.784 90.9278C111.784 89.301 112.651 88.288 114.315 88.288C115.978 88.288 116.61 89.16 116.61 90.4563V92.178C116.61 93.7589 115.674 94.3714 114.291 94.3714C112.698 94.3714 111.784 93.3571 111.784 91.7064V90.9278ZM126.713 94.2542V80.0559H122.261V94.3253C122.261 96.3764 123.083 97.7452 125.658 97.7452H129.618V94.2556H126.713V94.2542ZM130.442 94.1342C130.442 96.4936 132.151 97.9795 134.775 97.9795C136.953 97.9795 138.477 96.9652 138.969 95.4555H139.6V97.7438H144.288V94.4412H142.669V89.3261C142.669 86.5439 141.077 84.6799 137 84.6799C133.252 84.6799 131.074 86.3067 131.213 89.467H135.313C135.243 88.4052 135.876 88.0522 136.79 88.0522C137.656 88.0522 138.217 88.4052 138.217 89.3024V90.1981L134.658 90.4339C132.151 90.6 130.44 91.7776 130.44 94.137L130.442 94.1342ZM134.938 93.5231C134.938 93.0277 135.291 92.5562 136.088 92.5087L138.219 92.3664V93.8523C137.867 94.3951 137.164 94.7481 136.297 94.7481C135.36 94.7481 134.94 94.3477 134.94 93.8049L134.938 93.5231ZM145.644 97.7438H150.12V90.8804C150.12 89.3722 150.869 88.3104 152.368 88.3104C153.634 88.3104 154.337 89.0414 154.337 90.6223V97.7438H158.833V89.0414C158.833 86.424 157.406 84.6784 154.852 84.6784C152.884 84.6784 151.478 85.5979 150.822 87.2011H150.12L149.58 84.9142H145.644V97.7438ZM160.271 91.352C160.271 95.3383 162.873 97.9795 166.833 97.9795C170.111 97.9795 172.526 96.2341 172.854 93.5468H168.589C168.472 94.2765 167.723 94.7007 166.692 94.7007C165.637 94.7007 164.771 94.0421 164.771 93.0501V92.3901H172.714C172.854 91.8962 172.901 91.2111 172.901 90.5512C172.901 86.7309 170.159 84.6784 166.692 84.6784C163.084 84.6784 160.271 87.0839 160.271 91.352ZM164.771 89.7014V89.4433C164.771 88.5936 165.568 87.9796 166.645 87.9796C167.723 87.9796 168.426 88.5936 168.426 89.4433V89.7014H164.771ZM56.9357 84.9157H65.7663V97.7438H61.2708V88.521H56.9357V97.7424H52.4387V88.521H50.1169V84.9157H52.4387V83.8105C52.4387 83.512 52.4428 83.293 52.4498 83.1548C52.4582 83.0097 52.4819 82.8297 52.5196 82.6134C52.5642 82.3986 52.634 82.1684 52.7247 81.9228C53.1754 80.6768 54.3237 80.0573 56.1682 80.0573H59.8168V83.5455H56.9357V84.9157ZM61.2931 83.5455V80.0559H65.7663V83.5455H61.2931Z" fill="black"/>
</g>
<g clip-path="url(#clip3_235_1094)">
<path d="M209.774 82.9807C204.325 82.9807 200.067 87.1172 200.067 92.6549C200.067 98.1925 204.217 102.294 209.774 102.294C215.331 102.294 219.553 98.1217 219.553 92.6195C219.553 87.1526 215.403 82.9807 209.774 82.9807ZM209.811 98.3028C206.708 98.3028 204.434 95.8928 204.434 92.6562C204.434 89.3829 206.671 86.9742 209.774 86.9742C212.914 86.9742 215.186 89.4197 215.186 92.6562C215.186 95.8928 212.914 98.3028 209.811 98.3028ZM220.743 87.1894H223.45V101.936H227.78V83.3401H220.743V87.1894ZM189.17 86.9729C191.444 86.9729 193.248 88.3753 193.933 90.4613H198.516C197.686 86.0021 194.005 82.9807 189.207 82.9807C183.758 82.9807 179.5 87.1172 179.5 92.6562C179.5 98.1952 183.65 102.295 189.207 102.295C193.898 102.295 197.65 99.2737 198.481 94.7776H193.933C193.284 96.8636 191.479 98.3028 189.206 98.3028C186.066 98.3028 183.865 95.8928 183.865 92.6562C183.867 89.3829 186.032 86.9729 189.17 86.9729ZM303.014 90.8575L299.839 90.3905C298.323 90.1754 297.241 89.6716 297.241 88.4843C297.241 87.1894 298.649 86.5426 300.561 86.5426C302.653 86.5426 303.989 87.4413 304.277 88.9159H308.463C307.994 85.1756 305.107 82.982 300.669 82.982C296.086 82.982 293.055 85.3199 293.055 88.6286C293.055 91.793 295.041 93.6284 299.045 94.2031L302.22 94.6701C303.773 94.8852 304.638 95.4979 304.638 96.6485C304.638 98.1231 303.123 98.7345 301.03 98.7345C298.468 98.7345 297.024 97.6915 296.808 96.1092H292.55C292.948 99.742 295.797 102.295 300.993 102.295C305.721 102.295 308.859 100.137 308.859 96.432C308.859 93.1233 306.587 91.3968 303.014 90.8575ZM225.615 75.6797C224.027 75.6797 222.836 76.8303 222.836 78.4125C222.836 79.9947 224.026 81.1452 225.615 81.1452C227.203 81.1452 228.394 79.9947 228.394 78.4125C228.394 76.8303 227.203 75.6797 225.615 75.6797ZM289.158 89.707C289.158 85.6794 286.705 82.982 281.509 82.982C276.602 82.982 273.859 85.4642 273.317 89.2767H277.612C277.829 87.8021 278.983 86.5794 281.437 86.5794C283.638 86.5794 284.721 87.5503 284.721 88.7375C284.721 90.2843 282.736 90.6792 280.282 90.9311C276.963 91.2906 272.849 92.4411 272.849 96.7574C272.849 100.103 275.34 102.26 279.309 102.26C282.411 102.26 284.36 100.965 285.335 98.9142C285.48 100.748 286.85 101.936 288.764 101.936H291.289V98.0877H289.16V89.707H289.158ZM284.9 94.3827C284.9 96.865 282.736 98.6991 280.101 98.6991C278.477 98.6991 277.106 98.0155 277.106 96.5777C277.106 94.7436 279.307 94.2398 281.327 94.0246C283.276 93.8449 284.359 93.4133 284.9 92.5854V94.3827ZM261.915 82.9807C259.497 82.9807 257.477 83.9883 256.033 85.678V75.5H251.703V101.936H255.961V99.4902C257.404 101.252 259.462 102.295 261.915 102.295C267.111 102.295 271.045 98.1952 271.045 92.6562C271.045 87.1172 267.039 82.9807 261.915 82.9807ZM261.266 98.3028C258.163 98.3028 255.889 95.8928 255.889 92.6562C255.889 89.4197 258.198 86.9742 261.301 86.9742C264.441 86.9742 266.642 89.3843 266.642 92.6562C266.642 95.8928 264.369 98.3028 261.266 98.3028ZM241.347 82.9807C238.532 82.9807 236.692 84.1312 235.609 85.7502V83.3401H231.315V101.934H235.644V91.8284C235.644 88.9867 237.449 86.9729 240.119 86.9729C242.609 86.9729 244.16 88.7348 244.16 91.2892V101.936H248.49V90.9665C248.491 86.2893 246.074 82.9807 241.347 82.9807ZM329.5 92.0448C329.5 86.7223 325.603 82.982 320.37 82.982C314.813 82.982 310.736 87.1539 310.736 92.6562C310.736 98.4471 315.102 102.295 320.442 102.295C324.954 102.295 328.49 99.6331 329.391 95.8574H324.88C324.23 97.5117 322.643 98.4472 320.514 98.4472C317.734 98.4472 315.641 96.7206 315.173 93.6992H329.499V92.0448H329.5ZM315.426 90.6057C316.113 88.0159 318.061 86.7577 320.298 86.7577C322.752 86.7577 324.628 88.1602 325.061 90.6057H315.426Z" fill="black"/>
</g>
<g clip-path="url(#clip4_235_1094)">
<path d="M28.5 142.676C28.5 133.876 35.4307 127.602 45.2872 127.602C48.2126 127.602 51.4055 128.147 53.1967 128.959V134.454H52.9962L46.1434 129.549C45.7898 129.426 45.0521 129.347 44.3527 129.347C39.1685 129.347 35.5081 134.176 35.5081 140.84C35.5081 148.283 40.0694 154.078 45.8654 154.078C46.258 154.072 46.6492 154.031 47.0347 153.956L46.9231 153.91V141.552L45.1655 139.405V139.205H55.4103V139.405L53.6527 141.552V155.925H53.4526L49.0135 154.557C47.3007 155.413 44.6528 156.036 42.2723 156.036C34.107 156.036 28.5 150.618 28.5 142.676ZM60.1495 138.904L58.0803 136.835V136.678L65.4448 134.732H65.834L66.1106 138.904H66.3439C68.024 135.945 69.5035 134.732 71.3722 134.732C72.151 134.732 72.8186 134.966 73.1635 135.278V141.585H72.9634L69.0272 138.937C68.9102 138.912 68.7908 138.901 68.6713 138.903C67.8594 138.903 66.6911 139.682 66.3019 140.616V153.388L68.3592 155.258V155.459H58.3919V155.258L60.1495 153.389V138.904ZM74.8339 155.447V155.291L76.5914 153.377V138.904L74.5226 136.88V136.678L82.3543 134.731H82.7434V153.388L84.5014 155.302V155.458H74.8339V155.447ZM76.312 128.547C76.312 126.634 77.603 125.466 79.6607 125.466C81.7184 125.466 83.0089 126.634 83.0089 128.547C83.0089 130.416 81.73 131.584 79.6607 131.584C77.5915 131.584 76.312 130.416 76.312 128.547ZM87.3604 155.447V155.246L89.118 153.377V137.536H86.3479V137.38L89.151 134.966C90.0078 129.315 93.4788 125.466 97.7172 125.466C98.7738 125.466 100.022 125.699 100.52 125.977L99.8976 131.084H99.6972L94.1244 128.625C92.9118 128.747 91.8648 130.728 91.8648 132.519C91.8648 134.821 93.6228 136.101 96.6138 136.101H101.798C102.11 130.107 105.458 125.466 109.63 125.466C110.609 125.466 111.777 125.699 112.322 125.977L111.655 131.039H111.454L106.505 128.701C105.371 128.812 104.481 130.492 104.481 132.328C104.481 134.818 106.117 136.109 109.276 136.109H121.191L120.878 138.337V153.46L122.636 155.296V155.452H112.947V155.296L114.738 153.382V137.536H107.918V153.388L110.255 155.258V155.459H99.9732V155.258L101.764 153.345V137.536H95.259V153.388L97.5948 155.258V155.459H87.3595L87.3604 155.447ZM114.471 128.547C114.471 126.634 115.75 125.466 117.82 125.466C119.922 125.466 121.213 126.634 121.213 128.547C121.213 130.416 119.921 131.584 117.82 131.584C115.75 131.584 114.471 130.416 114.471 128.547ZM133.427 153.388L135.185 155.258V155.459H125.518V155.258L127.276 153.389V138.912L125.206 136.843V136.643L132.571 134.729H132.96L133.237 138.389H133.504C135.639 135.931 137.942 134.729 140.512 134.729C143.983 134.729 146.396 136.988 146.396 140.18V153.385L148.154 155.254V155.454H138.454V155.254L140.245 153.263V141.405C140.245 139.491 139.077 138.324 137.207 138.324C135.963 138.324 134.718 138.824 133.427 139.836L133.427 153.388Z" fill="black"/>
</g>
<g clip-path="url(#clip5_235_1094)">
<path d="M198.499 131L198.442 131.019V139.533H190.366V131.019L190.309 131C189.109 130.752 187.928 130.752 186.747 131L186.69 131.019V150.6L186.747 150.619C187.338 150.733 187.928 150.809 188.518 150.809C189.109 150.809 189.699 150.752 190.309 150.619L190.366 150.6V142.657H198.442V150.6L198.499 150.619C199.68 150.866 200.88 150.866 202.061 150.619L202.118 150.6V131.019L202.061 131C200.861 130.771 199.68 130.771 198.499 131ZM211.013 136.505C206.785 136.505 204.271 139.171 204.271 143.647C204.271 145.971 204.804 147.819 205.87 149.095C207.032 150.485 208.766 151.19 211.07 151.19C214.975 151.19 216.975 148.866 217.223 146.562V146.504L217.166 146.485C216.175 146.162 215.261 146.085 214.175 146.238H214.137V146.276C213.908 147.647 212.766 148.466 211.108 148.466C208.785 148.466 207.642 147.19 207.604 144.562H217.432V144.504C217.718 141.914 217.204 139.819 215.947 138.39C214.785 137.171 213.089 136.505 211.013 136.505ZM210.975 139.038C211.947 139.038 212.766 139.343 213.318 139.933C213.889 140.543 214.175 141.457 214.118 142.543H207.604C207.661 140.314 208.899 139.038 210.975 139.038ZM219.813 131L219.756 131.019V150.6L219.813 150.619C220.365 150.733 220.918 150.809 221.489 150.809C222.042 150.809 222.613 150.752 223.165 150.619L223.223 150.6V131.019L223.165 131C222.061 130.752 220.937 130.771 219.813 131ZM232.861 136.505C231.394 136.505 229.851 137.076 228.384 138.162L228.175 137.133L228.137 137.114C227.299 136.866 226.613 136.866 225.794 137.114L225.756 137.133V156.618L225.813 156.638C226.365 156.752 226.918 156.828 227.489 156.828C228.061 156.828 228.613 156.771 229.165 156.638L229.222 156.618V150.104C230.384 150.847 231.622 151.19 233.013 151.19C236.86 151.19 239.165 148.466 239.165 143.876C239.146 139.209 236.86 136.505 232.861 136.505ZM229.165 140.371C230.194 139.666 231.146 139.343 232.175 139.343C234.518 139.343 235.794 140.962 235.794 143.933C235.794 146.847 234.537 148.39 232.137 148.39C231.108 148.39 230.137 148.066 229.165 147.381V140.371ZM253.85 140.066C253.26 139.838 252.726 139.647 252.213 139.476C249.546 138.524 247.946 137.952 247.908 136.505C247.889 135.838 248.098 135.267 248.555 134.79C249.222 134.105 250.346 133.743 251.718 133.743C253.07 133.743 254.118 134.105 254.746 134.771C255.279 135.343 255.508 136.124 255.45 137.095V137.152L255.508 137.171C256.67 137.4 257.831 137.381 259.089 137.095L259.146 137.076V137.019C259.222 135.381 258.726 133.952 257.717 132.886C256.46 131.552 254.441 130.848 251.889 130.828H251.813C247.07 130.828 244.213 132.943 244.174 136.486C244.155 140.009 247.394 141.19 249.336 141.876L249.622 141.99C250.27 142.219 250.879 142.428 251.413 142.619C254.041 143.533 255.622 144.085 255.679 145.476C255.698 146.2 255.489 146.79 255.05 147.247C254.422 147.895 253.318 148.219 251.85 148.2C250.231 148.2 248.994 147.781 248.289 147.019C247.774 146.447 247.565 145.723 247.641 144.847V144.79L247.584 144.771C246.403 144.543 245.203 144.562 244.022 144.828L243.984 144.847V144.904C243.889 146.485 244.365 147.895 245.394 148.981C246.765 150.447 249.013 151.209 251.908 151.19C254.746 151.19 259.412 150.428 259.45 145.476C259.394 142.181 256.574 141.114 253.85 140.066ZM267.965 139.343C270.307 139.343 270.86 140.866 270.974 141.762V141.819H271.031C272.117 141.99 273.146 141.914 274.136 141.628L274.193 141.609V141.552C274.098 140.181 273.507 138.943 272.536 138.047C271.431 137.038 269.85 136.486 267.984 136.486C263.526 136.486 261.07 139.095 261.07 143.838C261.07 148.561 263.507 151.171 267.926 151.171C269.831 151.171 271.431 150.619 272.555 149.571C273.488 148.695 274.06 147.514 274.174 146.238V146.181L274.117 146.162C273.183 145.838 272.155 145.781 271.031 145.971H270.993V146.009C270.688 148.142 268.612 148.295 267.984 148.295C265.584 148.295 264.46 146.866 264.46 143.8C264.441 140.771 265.565 139.343 267.965 139.343ZM282.631 136.505C278.25 136.505 275.831 139.114 275.831 143.857C275.831 148.581 278.25 151.19 282.631 151.19C287.012 151.19 289.431 148.581 289.431 143.857C289.431 139.114 287.012 136.505 282.631 136.505ZM286.117 143.876C286.117 146.904 284.974 148.371 282.631 148.371C280.288 148.371 279.146 146.904 279.146 143.876C279.146 140.79 280.25 139.343 282.631 139.343C284.974 139.343 286.117 140.828 286.117 143.876ZM300.402 137.133L300.345 137.152V146.904C299.24 147.857 298.23 148.276 297.069 148.276C295.43 148.276 294.726 147.342 294.726 145.133V137.133L294.669 137.114C293.564 136.847 292.44 136.847 291.317 137.114L291.259 137.133V145.914C291.259 149.247 293.05 151.171 296.193 151.171C297.869 151.171 299.335 150.523 300.916 149.076L301.24 150.6L301.278 150.619C302.078 150.828 302.916 150.828 303.716 150.619L303.774 150.6V137.133L303.716 137.114C302.65 136.847 301.526 136.847 300.402 137.133ZM314.326 147.99L314.306 147.933L314.25 147.952C312.916 148.257 312.135 148.238 311.678 147.876C311.297 147.571 311.126 147.038 311.126 146.2V139.952H313.83L313.85 139.895C314.04 138.981 314.04 138.047 313.85 137.114L313.83 137.057H311.126V133.362L311.069 133.343C309.964 133.095 308.84 133.095 307.735 133.343L307.678 133.362L307.697 137.057H305.983L305.964 137.114C305.754 138.028 305.754 138.981 305.964 139.895L305.983 139.952H307.697L307.716 145.952C307.716 147.628 307.811 149.323 308.974 150.295C309.602 150.809 310.516 151.076 311.697 151.076C312.421 151.076 313.259 150.981 314.23 150.79H314.269L314.287 150.752C314.554 149.857 314.574 148.923 314.326 147.99Z" fill="black"/>
<path d="M156.386 143.514L165.643 134.257C166.843 133.076 167.585 131.419 167.585 129.609C167.585 127.819 166.862 126.181 165.7 125L156.443 134.257C155.243 135.438 154.5 137.095 154.5 138.904C154.5 140.714 155.224 142.333 156.386 143.514ZM178.804 138.104L169.547 147.362C168.347 148.542 167.604 150.2 167.604 152.009C167.604 153.799 168.328 155.438 169.49 156.618L178.747 147.362C179.947 146.181 180.69 144.523 180.69 142.714C180.69 140.904 179.966 139.285 178.804 138.104ZM178.747 134.276C179.947 133.095 180.69 131.438 180.69 129.628C180.69 127.838 179.966 126.2 178.804 125.019L156.443 147.362C155.243 148.561 154.5 150.2 154.5 152.028C154.5 153.818 155.224 155.457 156.386 156.638L178.747 134.276Z" fill="black"/>
</g>
<g clip-path="url(#clip6_235_1094)">
<path fill-rule="evenodd" clip-rule="evenodd" d="M174.583 195.852C173.58 195.008 171.867 194.586 169.445 194.586H163.98V211.474H168.066V206.181H169.896C172.118 206.181 173.747 205.692 174.784 204.713C175.952 203.617 176.539 202.157 176.539 200.334C176.539 198.444 175.887 196.949 174.583 195.852ZM169.795 202.36H168.066V198.408H169.619C171.508 198.408 172.453 199.07 172.453 200.396C172.453 201.704 171.566 202.36 169.795 202.36ZM183.531 194.585H179.27V211.473H188.47V207.651H183.531V194.585ZM196.818 194.585L190.125 211.473H194.712L195.59 209.018H201.405L202.207 211.473H206.846L200.2 194.585H196.818ZM196.768 205.599L198.523 199.827L200.251 205.599H196.768Z" fill="black"/>
<path fill-rule="evenodd" clip-rule="evenodd" d="M208.974 211.473H213.236V194.586H208.974V211.473ZM229.782 197.751C229.244 196.97 228.552 196.307 227.75 195.802C226.464 194.991 224.709 194.587 222.486 194.587H216.871V211.473H223.439C225.812 211.473 227.717 210.697 229.154 209.144C230.592 207.592 231.309 205.532 231.309 202.966C231.309 200.925 230.8 199.186 229.782 197.751ZM222.963 207.65H221.133V198.409H222.988C224.292 198.409 225.293 198.817 225.996 199.63C226.698 200.444 227.049 201.599 227.049 203.093C227.049 206.131 225.687 207.65 222.963 207.65ZM129.383 180.408L115.573 184.025L111.767 197.913L116.527 202.8L111.69 207.607L115.272 221.556L129.022 225.398L133.86 220.591L138.621 225.477L152.431 221.86L156.236 207.971L151.477 203.085L156.314 198.279L152.732 184.329L138.979 180.487L134.143 185.293L129.383 180.408ZM120.908 186.696L128.183 184.79L131.365 188.056L126.725 192.666L120.908 186.696ZM136.878 188.099L140.111 184.888L147.355 186.912L141.443 192.786L136.878 188.099ZM116.125 196.773L118.129 189.458L123.944 195.428L119.306 200.038L116.125 196.773ZM144.176 195.593L150.088 189.717L151.973 197.065L148.742 200.278L144.176 195.593ZM129.459 195.472L134.099 190.862L138.662 195.548L134.024 200.158L129.459 195.472ZM122.041 202.844L126.679 198.234L131.246 202.92L126.605 207.53L122.041 202.844ZM136.759 202.965L141.397 198.355L145.962 203.041L141.322 207.651L136.759 202.965ZM116.028 208.819L119.262 205.606L123.826 210.293L117.916 216.166L116.028 208.819ZM129.34 210.337L133.979 205.726L138.544 210.412L133.905 215.023L129.34 210.337ZM144.057 210.458L148.696 205.848L151.877 209.113L149.874 216.428L144.057 210.458ZM120.649 218.974L126.56 213.098L131.126 217.784L127.893 220.998L120.649 218.974ZM136.639 217.829L141.278 213.219L147.094 219.189L139.82 221.095L136.639 217.829Z" fill="black"/>
</g>
<defs>
<clipPath id="clip0_235_1094">
<rect width="140" height="28" fill="white" transform="translate(28.5 17.5)"/>
</clipPath>
<clipPath id="clip1_235_1094">
<rect width="140" height="63" fill="white" transform="translate(174.5)"/>
</clipPath>
<clipPath id="clip2_235_1094">
<rect width="160" height="40" fill="white" transform="translate(13.5 69)"/>
</clipPath>
<clipPath id="clip3_235_1094">
<rect width="150" height="36" fill="white" transform="translate(179.5 71)"/>
</clipPath>
<clipPath id="clip4_235_1094">
<rect width="120" height="52" fill="white" transform="translate(28.5 115)"/>
</clipPath>
<clipPath id="clip5_235_1094">
<rect width="160" height="40" fill="white" transform="translate(154.5 121)"/>
</clipPath>
<clipPath id="clip6_235_1094">
<rect width="120" height="61" fill="white" transform="translate(111.5 173)"/>
</clipPath>
</defs>
</svg>
