<svg width="391" height="496" viewBox="0 0 391 496" fill="none" xmlns="http://www.w3.org/2000/svg">
<g filter="url(#filter0_d_78_1762)">
<g clip-path="url(#clip0_78_1762)">
<rect width="60" height="60" transform="translate(8 426)" fill="#338DDC"/>
<path d="M37.9996 436C26.7333 436 18 444.253 18 455.4C18 461.23 20.3895 466.268 24.2809 469.749C24.4432 469.893 24.5745 470.068 24.6669 470.264C24.7593 470.46 24.8108 470.673 24.8184 470.889L24.9274 474.449C24.9354 474.711 25.0077 474.967 25.1378 475.195C25.268 475.422 25.452 475.614 25.6738 475.754C25.8955 475.893 26.1482 475.977 26.4096 475.996C26.671 476.015 26.9331 475.97 27.1728 475.864L31.1422 474.114C31.4786 473.965 31.8559 473.938 32.2102 474.036C34.0971 474.548 36.0443 474.805 37.9996 474.799C49.2659 474.799 57.9992 466.549 57.9992 455.4C57.9992 444.25 49.2659 436 37.9996 436ZM50.0093 450.926L44.1345 460.25C43.9135 460.6 43.6222 460.901 43.2791 461.133C42.9359 461.366 42.5483 461.525 42.1408 461.6C41.7332 461.675 41.3145 461.665 40.911 461.57C40.5076 461.475 40.1281 461.298 39.7966 461.049L35.1241 457.545C34.9155 457.388 34.6615 457.304 34.4007 457.305C34.1398 457.306 33.8864 457.391 33.6787 457.549L27.3678 462.336C26.5258 462.975 25.4263 461.967 25.9898 461.073L31.8647 451.752C32.0857 451.402 32.377 451.101 32.7201 450.868C33.0633 450.636 33.4508 450.477 33.8584 450.402C34.266 450.327 34.6847 450.337 35.0882 450.431C35.4916 450.526 35.8711 450.704 36.2026 450.952L40.8755 454.457C41.0842 454.613 41.3382 454.697 41.599 454.696C41.8598 454.696 42.1133 454.61 42.321 454.452L48.6314 449.663C49.4739 449.024 50.5733 450.032 50.0093 450.926Z" fill="white"/>
</g>
</g>
<defs>
<filter id="filter0_d_78_1762" x="0" y="420" width="76" height="76" filterUnits="userSpaceOnUse" color-interpolation-filters="sRGB">
<feFlood flood-opacity="0" result="BackgroundImageFix"/>
<feColorMatrix in="SourceAlpha" type="matrix" values="0 0 0 0 0 0 0 0 0 0 0 0 0 0 0 0 0 0 127 0" result="hardAlpha"/>
<feOffset dy="2"/>
<feGaussianBlur stdDeviation="4"/>
<feComposite in2="hardAlpha" operator="out"/>
<feColorMatrix type="matrix" values="0 0 0 0 0 0 0 0 0 0 0 0 0 0 0 0 0 0 0.25 0"/>
<feBlend mode="normal" in2="BackgroundImageFix" result="effect1_dropShadow_78_1762"/>
<feBlend mode="normal" in="SourceGraphic" in2="effect1_dropShadow_78_1762" result="shape"/>
</filter>
<clipPath id="clip0_78_1762">
<rect x="8" y="426" width="60" height="60" rx="30" fill="white"/>
</clipPath>
</defs>
</svg>
