<svg width="60" height="35" viewBox="0 0 60 35" fill="none" xmlns="http://www.w3.org/2000/svg">
<g id="logo2.svg" clip-path="url(#clip0_78_1552)">
<g id="Group 60">
<path id="Path 6143" d="M22.3579 9.92314C22.3229 9.74987 22.2833 9.57721 22.239 9.40517C22.2068 9.27983 22.1727 9.15264 22.1349 9.02821C22.1312 9.01439 22.1275 9.00057 22.1238 8.98766C22.1146 8.95633 22.1063 8.92591 22.0962 8.89642C22.0879 8.86877 22.0796 8.84112 22.0695 8.81439C22.0455 8.73882 22.0197 8.66416 21.9948 8.58859C21.9884 8.56923 21.9819 8.5508 21.9755 8.53145C21.9607 8.48721 21.945 8.44205 21.9294 8.39688C21.9202 8.37016 21.91 8.34527 21.8999 8.31947C21.8998 8.31776 21.8992 8.31612 21.898 8.31486C21.8833 8.27338 21.8685 8.23007 21.8538 8.18951C21.8308 8.13053 21.8059 8.07431 21.7828 8.01624C21.7773 8.00334 21.7727 7.98952 21.7672 7.97661C21.7579 7.95265 21.7496 7.92961 21.7386 7.90564H21.7377C21.7036 7.81993 21.6685 7.73514 21.6317 7.65219V7.65035C21.4054 7.1416 21.1407 6.65079 20.84 6.18216C20.8262 6.16004 20.8105 6.13976 20.7967 6.11764C20.7137 5.98953 20.6271 5.86142 20.5386 5.737C20.5063 5.69092 20.4713 5.6476 20.4381 5.60152C20.3663 5.50382 20.2944 5.40613 20.2188 5.3112C20.1672 5.24392 20.1119 5.1794 20.0584 5.11489C19.9994 5.04392 19.9423 4.97295 19.8824 4.90383C19.8105 4.8218 19.7368 4.74346 19.664 4.66328C19.6179 4.61443 19.5736 4.56282 19.5266 4.51489C19.44 4.42457 19.3506 4.33701 19.2612 4.25038C19.2252 4.21443 19.1893 4.17849 19.1524 4.14347C19.0538 4.04946 18.9534 3.96006 18.852 3.87158C18.8216 3.84485 18.7921 3.81813 18.7617 3.7914C18.6557 3.69923 18.5469 3.61167 18.4382 3.52504C18.4087 3.502 18.381 3.47896 18.3524 3.45684C18.2999 3.41629 18.2465 3.37757 18.193 3.33794C18.1892 3.33465 18.1852 3.33157 18.181 3.32873L18.1589 3.31214C18.1119 3.27804 18.0667 3.24209 18.0197 3.20799C17.9884 3.18495 17.958 3.16191 17.9257 3.13979C17.8677 3.09924 17.8096 3.05869 17.7497 3.01998C17.7349 3.00984 17.7193 2.9997 17.7045 2.98956C17.6686 2.96468 17.6326 2.94163 17.5958 2.91767C17.5589 2.89371 17.5211 2.8679 17.4833 2.84302C17.4363 2.81353 17.3884 2.78403 17.3405 2.75546L17.3266 2.74717C17.3202 2.74256 17.3128 2.73887 17.3055 2.73426C17.2833 2.72228 17.2631 2.70938 17.2419 2.6974C17.228 2.6891 17.2142 2.68173 17.2013 2.67343C17.1423 2.63841 17.0833 2.60339 17.0243 2.56929C16.9654 2.53519 16.9073 2.50201 16.8483 2.46975C16.8041 2.44579 16.7589 2.42367 16.7138 2.3997C16.6898 2.38772 16.6658 2.3739 16.6419 2.36284C16.6105 2.34625 16.5792 2.32874 16.5469 2.31307C16.4907 2.2845 16.4363 2.25593 16.3792 2.2292C16.3174 2.19971 16.2566 2.17298 16.1949 2.14441C16.146 2.12137 16.0962 2.09925 16.0474 2.07713C15.9986 2.05501 15.9488 2.03289 15.899 2.01077C15.8354 1.98312 15.7718 1.95916 15.7064 1.93335C15.6852 1.92505 15.6658 1.91768 15.6446 1.90846C15.6179 1.89832 15.5921 1.88635 15.5645 1.87621C15.5128 1.85501 15.4603 1.83473 15.4087 1.81446C15.3193 1.78128 15.2281 1.74994 15.1377 1.72045C15.1147 1.71215 15.0926 1.70386 15.0686 1.69556C15.0529 1.69095 15.0363 1.68543 15.0216 1.68082C14.9829 1.66791 14.9451 1.65409 14.9064 1.64211C14.8004 1.60893 14.6944 1.57667 14.5875 1.54718C14.5562 1.53888 14.5248 1.53059 14.4926 1.52137L14.4622 1.51308C14.4373 1.50663 14.4133 1.49925 14.3884 1.49188C14.3377 1.47897 14.2861 1.46515 14.2345 1.45317C14.1737 1.43842 14.1138 1.42368 14.0529 1.40985C14.0472 1.40819 14.0414 1.40695 14.0354 1.40617C14.0004 1.39787 13.9654 1.39142 13.9294 1.38312C13.8612 1.36838 13.794 1.35363 13.7258 1.33981C13.6751 1.32967 13.6235 1.31953 13.5728 1.31031C13.5562 1.30663 13.5377 1.30294 13.5212 1.30018C13.4861 1.29372 13.4502 1.28911 13.4142 1.28358C13.3986 1.28082 13.382 1.27805 13.3654 1.27529C13.2437 1.25501 13.1221 1.23658 12.9995 1.21999C12.9792 1.21723 12.9599 1.21538 12.9387 1.21354C12.876 1.20709 12.8142 1.19971 12.7507 1.19234C12.7494 1.19238 12.7481 1.19206 12.747 1.19142C12.7433 1.19142 12.7396 1.1905 12.7359 1.1905C12.6493 1.18036 12.5617 1.17114 12.4751 1.16377C12.4253 1.16008 12.3746 1.15824 12.3239 1.15455C12.1995 1.14718 12.0751 1.13889 11.9497 1.13428C11.8825 1.13151 11.8143 1.13243 11.747 1.13151C11.6382 1.12967 11.5304 1.12783 11.4226 1.12967C11.3304 1.13059 11.2391 1.1352 11.1488 1.13889C11.064 1.14257 10.9792 1.14442 10.8944 1.14995C10.7995 1.15548 10.7064 1.16377 10.6115 1.17391C10.5673 1.1776 10.5221 1.18128 10.4769 1.18589L10.4474 1.18865C10.4198 1.1905 10.3912 1.19326 10.3645 1.19603C10.3074 1.20248 10.2511 1.20985 10.1949 1.21815C10.1746 1.21999 10.1553 1.22276 10.135 1.22552C10.0631 1.23474 9.99215 1.2458 9.92119 1.25594C9.91105 1.25778 9.90091 1.25962 9.89169 1.26147C9.88893 1.26239 9.88524 1.26239 9.88248 1.26331C9.86589 1.26515 9.84838 1.26699 9.83086 1.26976C9.79216 1.27621 9.75252 1.28451 9.71382 1.29096C9.63916 1.30386 9.56451 1.31677 9.48985 1.33151C9.46681 1.3352 9.44562 1.33981 9.4235 1.34441C9.41336 1.34533 9.40138 1.3481 9.39124 1.34994C9.3682 1.35455 9.34516 1.36008 9.32211 1.36469C9.23917 1.38128 9.15622 1.40064 9.07327 1.42091C9.04746 1.42644 9.0235 1.43197 8.99769 1.43842C8.95622 1.44764 8.91475 1.4587 8.87327 1.46884C8.85367 1.47308 8.83429 1.47831 8.81521 1.48451C8.76267 1.49741 8.71014 1.514 8.65761 1.52782C8.62903 1.5352 8.60046 1.54349 8.57281 1.55178C8.50277 1.57114 8.43272 1.5905 8.3636 1.61169C8.31199 1.62736 8.25945 1.64487 8.20784 1.66238C8.16636 1.67529 8.12489 1.69003 8.08342 1.70386C8.01061 1.72874 7.93687 1.75178 7.86498 1.77851C7.79678 1.8034 7.72858 1.82828 7.66038 1.85593C7.61983 1.87068 7.57927 1.88727 7.53872 1.90293C7.48434 1.92597 7.42812 1.94533 7.37467 1.96837C7.25669 2.01722 7.14057 2.07068 7.02444 2.12321C6.9802 2.14349 6.93596 2.16192 6.89172 2.18312C6.78389 2.23381 6.67698 2.28818 6.57099 2.34348L6.53596 2.36099C6.49725 2.38127 6.45855 2.3997 6.41984 2.41998C6.38942 2.43565 6.35901 2.45316 6.33044 2.46975C6.30187 2.48358 6.27422 2.50017 6.24749 2.51583C6.18943 2.54809 6.1332 2.58127 6.07514 2.61445C6.04104 2.63472 6.00602 2.65316 5.97284 2.67436C5.96804 2.67645 5.96342 2.67892 5.95901 2.68173L5.94519 2.69002C5.89542 2.72044 5.84565 2.75085 5.7968 2.78035C5.74795 2.80984 5.70095 2.83933 5.65395 2.86882C5.64289 2.8762 5.63183 2.88357 5.62077 2.89187C5.6051 2.902 5.58851 2.91306 5.57284 2.92412C5.55072 2.93703 5.53044 2.95177 5.50925 2.9656C5.40694 3.03196 5.30833 3.10016 5.20879 3.17113C5.19128 3.18311 5.17285 3.19693 5.15626 3.21076C5.12861 3.23195 5.09911 3.25131 5.07239 3.27251C5.06593 3.27712 5.0604 3.28172 5.05303 3.28725C4.96271 3.35361 4.87146 3.42089 4.78391 3.49094C4.74336 3.5232 4.70372 3.55638 4.66409 3.58956L4.65027 3.60061C4.63368 3.61444 4.61525 3.62919 4.59866 3.64393C4.524 3.70476 4.45027 3.76467 4.37838 3.82826C4.33414 3.86697 4.2899 3.9066 4.24566 3.94716C4.24474 3.94716 4.24382 3.94808 4.2429 3.949C4.20788 3.98033 4.1747 4.01259 4.1406 4.04485C4.0899 4.09001 4.03829 4.13609 3.98945 4.18402C3.94336 4.22826 3.8982 4.2725 3.85304 4.31858C3.81525 4.35545 3.77931 4.39323 3.74244 4.43102C3.70097 4.47342 3.65857 4.51489 3.61802 4.55729C3.57931 4.59784 3.54244 4.63839 3.50466 4.67987C3.49728 4.68724 3.49083 4.69554 3.48254 4.70383C3.44659 4.74346 3.41249 4.78309 3.37747 4.82272C3.35627 4.84669 3.33507 4.86973 3.31295 4.89461C3.29637 4.91212 3.2807 4.93056 3.26503 4.94807C3.26076 4.95275 3.25676 4.95768 3.25305 4.96281C3.24752 4.96927 3.24106 4.97664 3.23369 4.98493C3.19959 5.02456 3.16549 5.06512 3.13139 5.10567C3.10282 5.13977 3.07701 5.17387 3.04936 5.20797C3.02171 5.24207 2.99683 5.27341 2.97102 5.30659C2.9572 5.32318 2.94337 5.34069 2.93047 5.35728C2.88715 5.41258 2.84383 5.46696 2.80144 5.5241C2.7784 5.55451 2.7572 5.58585 2.73416 5.61534C2.69821 5.66419 2.66411 5.71396 2.62909 5.76373C2.62448 5.77018 2.61895 5.77755 2.61434 5.78401C2.61159 5.78882 2.60851 5.79344 2.60513 5.79783C2.56826 5.85036 2.52955 5.90198 2.49361 5.95543C2.47241 5.98585 2.45397 6.0181 2.43278 6.04852C2.35628 6.16465 2.27978 6.28078 2.20789 6.40059C2.18577 6.43561 2.1655 6.47248 2.1443 6.50842C2.07518 6.62363 2.0079 6.73883 1.9443 6.85773C1.9185 6.90289 1.89638 6.95081 1.87149 6.99782C1.81343 7.10565 1.75721 7.21441 1.70283 7.32501C1.6715 7.38952 1.64292 7.45496 1.61435 7.51855C1.57011 7.61348 1.52679 7.70749 1.4844 7.80426C1.44661 7.89274 1.41251 7.98306 1.37657 8.07246C1.34707 8.14619 1.31666 8.21993 1.28901 8.29458C1.24477 8.41347 1.20514 8.53605 1.16458 8.65679C1.14984 8.70379 1.13141 8.7508 1.11758 8.7978C1.06874 8.95172 1.02357 9.10656 0.9821 9.26416C0.977492 9.28075 0.971962 9.29734 0.968276 9.31393C0.848741 9.76611 0.759753 10.2258 0.701917 10.69C0.697123 10.7174 0.69374 10.7451 0.691781 10.7729C0.689937 10.7932 0.687172 10.8125 0.685328 10.8328C0.677955 10.9004 0.670583 10.9668 0.66321 11.0319C0.659523 11.0641 0.655836 11.0973 0.653993 11.1305C0.649384 11.1646 0.646618 11.1987 0.643853 11.2328C0.641088 11.2715 0.639244 11.3111 0.637401 11.3499C0.635558 11.3637 0.634638 11.3793 0.633716 11.3932C0.63003 11.4402 0.625422 11.4881 0.622657 11.5351C0.619892 11.5932 0.619892 11.6503 0.617127 11.7093V11.7213C0.616206 11.7333 0.615282 11.7462 0.615282 11.7581C0.61436 11.772 0.61436 11.7858 0.61436 11.7996C0.610673 11.9047 0.60791 12.0107 0.60791 12.1148V12.1222C0.60791 12.478 0.624193 12.8297 0.656758 13.1775C0.657477 13.1805 0.657785 13.1836 0.657677 13.1867C0.713879 13.7641 0.816202 14.3362 0.963666 14.8973C1.10891 15.4496 1.29688 15.9898 1.52587 16.5129H1.52956C1.53786 16.536 1.54892 16.5581 1.55813 16.5811H1.55905C1.55996 16.5829 1.56058 16.5847 1.5609 16.5867C1.7056 16.912 1.86381 17.2269 2.03555 17.5314C2.03687 17.5339 2.03841 17.5364 2.04015 17.5387C2.13693 17.7092 2.23647 17.8761 2.34153 18.0401C3.49583 17.0836 4.94836 16.5609 6.44749 16.5627H8.94239C8.75279 16.4503 8.57054 16.326 8.39678 16.1904C8.36268 16.1636 8.32858 16.1369 8.2954 16.1093C8.27051 16.089 8.24655 16.0687 8.22166 16.0475C8.19494 16.0245 8.16913 16.0023 8.14332 15.9784C8.10461 15.9434 8.06683 15.9083 8.02904 15.8733C7.79801 15.6531 7.58733 15.4125 7.39955 15.1544C7.39657 15.1506 7.39381 15.1466 7.39126 15.1424C7.35531 15.0936 7.32029 15.0429 7.28619 14.9922C7.26038 14.9544 7.2355 14.9157 7.21061 14.8761C7.19402 14.8494 7.17743 14.8236 7.16177 14.7968C7.13965 14.7618 7.11937 14.7268 7.09909 14.6908C7.08527 14.6669 7.07144 14.6438 7.05854 14.6189C7.03273 14.5738 7.00785 14.5277 6.98389 14.4798L6.97836 14.4687C6.959 14.4328 6.94149 14.395 6.92398 14.3581C6.90094 14.313 6.87974 14.266 6.85946 14.2199C6.83642 14.1692 6.81707 14.1176 6.79587 14.066C6.78297 14.0337 6.76822 14.0014 6.75532 13.9683C6.74794 13.9471 6.74149 13.9268 6.7332 13.9056C6.70924 13.8411 6.68619 13.7784 6.665 13.712C6.61054 13.5446 6.56471 13.3745 6.52767 13.2024C6.52583 13.1968 6.52583 13.1913 6.52398 13.1867C6.50832 13.1074 6.49265 13.0291 6.47974 12.9508C6.47698 12.9332 6.47514 12.9148 6.47237 12.8973C6.46223 12.8319 6.45209 12.7655 6.44472 12.7001C6.44196 12.6697 6.44011 12.6392 6.43735 12.6097C6.43182 12.5572 6.42721 12.5028 6.42352 12.4503C6.42076 12.4088 6.41984 12.3683 6.41892 12.3268C6.41799 12.2853 6.41431 12.2429 6.41431 12.2005C6.41339 12.1517 6.41431 12.1019 6.41523 12.054C6.41523 12.019 6.41523 11.9849 6.41615 11.9508C6.41799 11.8973 6.42168 11.8439 6.42444 11.7913C6.42721 11.7609 6.42813 11.7305 6.42997 11.701C6.43458 11.6457 6.44104 11.5922 6.44657 11.5388C6.45025 11.5093 6.45302 11.4807 6.4567 11.4531C6.46315 11.3996 6.47145 11.3462 6.48159 11.2927C6.4862 11.2632 6.48988 11.2337 6.49541 11.2052C6.50371 11.1563 6.51477 11.1065 6.5249 11.0577C6.53228 11.0236 6.53873 10.9904 6.54703 10.9572C6.55624 10.9139 6.56914 10.8706 6.57928 10.8273C6.58942 10.7886 6.59956 10.7499 6.61062 10.7121C6.61984 10.6752 6.63274 10.6402 6.64288 10.6033C6.6567 10.5591 6.67053 10.5139 6.68527 10.4688C6.69449 10.4411 6.70555 10.4135 6.71476 10.3858C6.73412 10.3342 6.75255 10.2817 6.77283 10.23C6.7802 10.2107 6.7885 10.1923 6.79679 10.1729C6.82168 10.113 6.84564 10.054 6.87237 9.99503C6.87698 9.98489 6.88158 9.97383 6.88619 9.96369C6.91753 9.89641 6.94887 9.83005 6.98205 9.76553C6.98302 9.76277 6.9846 9.76025 6.98665 9.75816C7.15109 9.43532 7.34911 9.13072 7.57743 8.84942C7.61245 8.8061 7.6484 8.7637 7.68526 8.72223C7.68711 8.71946 7.68987 8.71762 7.69171 8.71485C7.71107 8.69181 7.73042 8.67061 7.7507 8.64849C7.76821 8.6273 7.78757 8.60702 7.80692 8.58674C7.81798 8.57569 7.82904 8.5637 7.8401 8.55264C7.85946 8.53145 7.87789 8.51209 7.89817 8.49181C7.91844 8.47154 7.93687 8.45218 7.95715 8.43191L7.97097 8.41808C7.98019 8.40979 7.99125 8.40057 8.00047 8.39043C8.04563 8.34712 8.08987 8.30472 8.13595 8.26417C8.13863 8.26195 8.1411 8.25948 8.14332 8.25679L8.14517 8.25495C8.15254 8.2485 8.16083 8.24113 8.16913 8.23467C8.19678 8.21071 8.22351 8.18675 8.25116 8.16279C8.27881 8.13882 8.30738 8.11578 8.33595 8.09274C8.33779 8.0909 8.34056 8.08905 8.3424 8.08721C8.39954 8.04205 8.45576 7.99781 8.51383 7.95449L8.53318 7.94067C8.64378 7.86079 8.75714 7.78429 8.87327 7.71118C8.93502 7.67339 8.99677 7.63652 9.06037 7.60058C9.18571 7.52961 9.31658 7.46417 9.4493 7.40427C9.47787 7.39136 9.50645 7.37846 9.5341 7.36648C9.60598 7.33422 9.67787 7.30473 9.75068 7.27708C9.7857 7.2651 9.8198 7.25312 9.85391 7.24113C9.89814 7.22547 9.94146 7.20888 9.98662 7.19413C10.0097 7.18676 10.0309 7.18031 10.0539 7.17293C10.0714 7.1674 10.0908 7.16187 10.1083 7.15634C10.1147 7.1545 10.1212 7.15265 10.1286 7.15081C10.171 7.13883 10.2124 7.12593 10.2548 7.11395C10.2714 7.11026 10.2889 7.10657 10.3055 7.10196C10.3424 7.09275 10.3802 7.08261 10.418 7.07432L10.4309 7.07155C10.4668 7.06326 10.5037 7.05496 10.5405 7.04666C10.5415 7.04574 10.5424 7.04574 10.5442 7.04574C10.5571 7.0439 10.5719 7.04113 10.5848 7.03837C10.6051 7.03468 10.6253 7.03008 10.6456 7.02639C10.653 7.02455 10.6613 7.02362 10.6705 7.02178C10.6871 7.01902 10.7055 7.01625 10.7221 7.01349L10.7885 7.00243C10.817 6.99782 10.8447 6.99413 10.8714 6.99045C10.8954 6.98676 10.9193 6.98307 10.9433 6.98031C10.9728 6.97754 11.0014 6.97386 11.0299 6.97109C11.0428 6.96925 11.0557 6.9674 11.0686 6.96648C11.1138 6.96187 11.1608 6.95819 11.2069 6.9545C11.2474 6.95173 11.288 6.94897 11.3295 6.94713C11.3728 6.94528 11.417 6.94344 11.4622 6.94252C11.5 6.9416 11.5387 6.94068 11.5774 6.94068H11.594C11.6299 6.94068 11.6659 6.9416 11.7018 6.94252C11.7378 6.94344 11.7737 6.94436 11.8096 6.94621H11.8318C11.8631 6.94713 11.8935 6.94897 11.9249 6.95173H11.9258C11.9451 6.95358 11.9654 6.95542 11.9857 6.95634C12.0262 6.95911 12.0677 6.96187 12.1083 6.96556L12.1359 6.96833C12.1427 6.96886 12.1495 6.96978 12.1562 6.97109C12.1691 6.97201 12.182 6.97386 12.1949 6.9757L12.2935 6.98676C12.2954 6.98676 12.2963 6.98768 12.2981 6.98768C12.3479 6.99505 12.3986 7.00243 12.4484 7.01164C12.4502 7.01164 12.453 7.01256 12.4548 7.01256C12.4622 7.01349 12.4705 7.01533 12.4788 7.01625L12.5267 7.02455C12.5774 7.03376 12.6281 7.04482 12.6788 7.05588L12.7359 7.06694C12.7488 7.06971 12.7626 7.07247 12.7755 7.07616C12.8179 7.08537 12.8603 7.09828 12.9027 7.10842C12.9368 7.11763 12.97 7.12501 13.0041 7.13515C13.0087 7.13607 13.0133 7.13791 13.0179 7.13883C13.052 7.14897 13.0861 7.16095 13.1212 7.17109C13.1636 7.18399 13.2059 7.19782 13.2474 7.21164C13.276 7.22086 13.3046 7.23192 13.3322 7.24206C13.3838 7.25957 13.4373 7.27892 13.488 7.30012C13.5055 7.30657 13.523 7.31394 13.5405 7.32132C13.6023 7.34712 13.6631 7.37201 13.7239 7.39966C13.7313 7.40242 13.7377 7.40611 13.746 7.40888C13.793 7.43099 13.84 7.45219 13.8852 7.47523C13.9322 7.49828 13.9801 7.52224 14.0262 7.54712C14.04 7.55542 14.0557 7.56187 14.0695 7.57108C14.1285 7.60242 14.1857 7.63652 14.2437 7.67062C14.2576 7.67892 14.2732 7.68721 14.287 7.69643C14.3175 7.71578 14.347 7.73329 14.3755 7.75265C14.3995 7.76832 14.4235 7.78491 14.4474 7.80058C14.4622 7.80979 14.4778 7.81993 14.4926 7.82915C14.4944 7.83099 14.4972 7.83191 14.499 7.83376C14.5009 7.8356 14.5036 7.83652 14.5055 7.83837C14.5506 7.8697 14.5949 7.90288 14.641 7.93514C14.6622 7.94988 14.6834 7.96647 14.7055 7.98122C14.7451 8.01163 14.7847 8.04389 14.8234 8.07523C14.8511 8.09735 14.8778 8.11762 14.9046 8.14067C14.9359 8.16739 14.9663 8.1932 14.9976 8.22085C15.0308 8.25034 15.0649 8.27891 15.0981 8.3084L15.1635 8.37108C15.2032 8.40979 15.2437 8.44757 15.2824 8.48721C15.2953 8.50011 15.3082 8.51485 15.3211 8.52776C15.3672 8.57568 15.4142 8.62453 15.4575 8.67338L15.4732 8.69181C16.024 9.31419 16.4177 10.0594 16.6216 10.8651C16.6225 10.8697 16.6234 10.8734 16.6244 10.877C16.6437 10.9535 16.6603 11.03 16.676 11.1075C16.6806 11.1305 16.6833 11.1526 16.6879 11.1757C16.699 11.2356 16.7101 11.2936 16.7184 11.3535C16.7248 11.3969 16.7294 11.4402 16.7349 11.4844C16.7396 11.525 16.746 11.5655 16.7497 11.6061C16.7552 11.666 16.7589 11.725 16.7626 11.7849C16.7644 11.8116 16.7672 11.8374 16.7681 11.8641C16.7718 11.9296 16.7727 11.995 16.7737 12.0604C16.7737 12.0835 16.7746 12.1056 16.7746 12.1296C16.7746 12.1784 16.7727 12.2273 16.7709 12.2761C16.77 12.3176 16.77 12.3581 16.7672 12.3987C16.7663 12.4199 16.7644 12.4383 16.7635 12.4586C16.7589 12.5286 16.7543 12.5978 16.7469 12.6678C16.7414 12.7203 16.7359 12.7729 16.7276 12.8245C16.722 12.8669 16.7156 12.9084 16.7082 12.9498C16.6999 12.9996 16.6916 13.0503 16.6815 13.0991C16.6806 13.1085 16.6788 13.1178 16.676 13.1268C16.6667 13.1766 16.6548 13.2282 16.6437 13.2779C16.6059 13.4392 16.5617 13.5996 16.5091 13.7572L16.5082 13.759C16.4566 13.913 16.3985 14.0641 16.3322 14.2125C16.2916 14.3056 16.2483 14.3968 16.2013 14.4872C16.1903 14.5083 16.1792 14.5286 16.1681 14.5498C16.1626 14.56 16.1571 14.5719 16.1506 14.583C16.1211 14.6392 16.0898 14.6936 16.0566 14.7489C15.6138 15.4965 14.9921 16.1224 14.2474 16.5701C13.615 16.9502 12.9079 17.1894 12.1746 17.2715V23.0935C13.7124 23.0141 15.216 22.6102 16.5866 21.9083C16.652 21.876 16.7165 21.8419 16.7792 21.8069C16.8428 21.7737 16.9055 21.7387 16.9681 21.7037L16.9737 21.7009C18.7669 20.6967 20.2403 19.2067 21.2243 17.4023C21.3432 17.1857 21.4547 16.9645 21.5579 16.7406C21.5847 16.6834 21.6096 16.6272 21.6344 16.5701H21.6354C21.6492 16.5387 21.663 16.5074 21.6759 16.4761C21.7036 16.4125 21.7294 16.3498 21.7561 16.2853C21.7819 16.2235 21.8059 16.1618 21.8298 16.0991C21.8492 16.053 21.8667 16.006 21.8833 15.959C21.8833 15.9581 21.8842 15.9581 21.8833 15.9572C21.9441 15.7987 21.9994 15.6364 22.051 15.4742C22.0667 15.4272 22.0824 15.3784 22.0962 15.3305C22.1681 15.0954 22.2326 14.8567 22.2879 14.6171C22.6496 13.0779 22.6726 11.4785 22.3552 9.92959L22.3579 9.92314Z" fill="#0D2B57"/>
<path id="Path 6144" d="M37.2732 17.2256H6.44674C4.91094 17.2256 3.43805 17.8357 2.35207 18.9217C1.2661 20.0076 0.656006 21.4805 0.656006 23.0163V34.2337H6.01356V24.5896C6.01356 24.3947 6.05194 24.2018 6.12651 24.0217C6.20108 23.8417 6.31038 23.6781 6.44817 23.5403C6.58596 23.4025 6.74954 23.2932 6.92957 23.2187C7.1096 23.1441 7.30256 23.1057 7.49742 23.1057H39.0004L37.2732 17.2256Z" fill="#0D2B57"/>
<path id="Path 6145" d="M49.7132 11.0489H43.8468C43.9221 11.4009 43.9601 11.7599 43.9602 12.1199C43.9602 13.145 43.6562 14.1472 43.0867 14.9996C42.5171 15.852 41.7076 16.5163 40.7604 16.9087C39.8133 17.301 38.7711 17.4036 37.7656 17.2036C36.7602 17.0036 35.8366 16.51 35.1117 15.7851C34.3868 15.0601 33.8931 14.1366 33.6931 13.1311C33.4931 12.1256 33.5957 11.0834 33.988 10.1363C34.3804 9.18914 35.0447 8.37961 35.8971 7.81005C36.7495 7.2405 37.7517 6.9365 38.7768 6.9365V1.13379C36.604 1.13379 34.48 1.77811 32.6733 2.98527C30.8667 4.19244 29.4586 5.90823 28.627 7.91568C27.7955 9.92312 27.578 12.132 28.0019 14.2631C28.4258 16.3942 29.4721 18.3518 31.0085 19.8882C32.545 21.4246 34.5025 22.4709 36.6336 22.8948C38.7647 23.3187 40.9736 23.1012 42.981 22.2697C44.9885 21.4382 46.7043 20.03 47.9114 18.2234C49.1186 16.4167 49.7629 14.2927 49.7629 12.1199C49.7629 11.7586 49.7445 11.4028 49.7122 11.0489" fill="#0D2B57"/>
<g id="Clip path group">
<mask id="mask0_78_1552" style="mask-type:luminance" maskUnits="userSpaceOnUse" x="38" y="0" width="14" height="7">
<g id="a">
<path id="Path 6146" d="M44.8056 0.917899L38.7771 6.9455H45.084L51.1291 0.900391L44.8056 0.917899Z" fill="white"/>
</g>
</mask>
<g mask="url(#mask0_78_1552)">
<g id="Group 56">
<path id="Rectangle 9" d="M51.1291 0.900391H38.7771V0.912372H51.1291V0.900391Z" fill="#2BC6AC"/>
<path id="Rectangle 10" d="M51.1288 0.912598H38.7769V1.01951H51.1288V0.912598Z" fill="#2BC5AD"/>
<path id="Rectangle 11" d="M51.1288 1.01904H38.7769V1.12595H51.1288V1.01904Z" fill="#2BC4AD"/>
<path id="Rectangle 12" d="M51.1288 1.12695H38.7769V1.23386H51.1288V1.12695Z" fill="#2CC3AE"/>
<path id="Rectangle 13" d="M51.1288 1.23389H38.7769V1.3408H51.1288V1.23389Z" fill="#2CC2AF"/>
<path id="Rectangle 14" d="M51.1288 1.34082H38.7769V1.44773H51.1288V1.34082Z" fill="#2CC1B0"/>
<path id="Rectangle 15" d="M51.1288 1.44873H38.7769V1.55564H51.1288V1.44873Z" fill="#2CC0B1"/>
<path id="Rectangle 16" d="M51.1288 1.55566H38.7769V1.66258H51.1288V1.55566Z" fill="#2CBFB2"/>
<path id="Rectangle 17" d="M51.1288 1.66357H38.7769V1.77049H51.1288V1.66357Z" fill="#2CBEB2"/>
<path id="Rectangle 18" d="M51.1288 1.77051H38.7769V1.87742H51.1288V1.77051Z" fill="#2CBDB3"/>
<path id="Rectangle 19" d="M51.1288 1.87842H38.7769V1.98533H51.1288V1.87842Z" fill="#2CBCB4"/>
<path id="Rectangle 20" d="M51.1288 1.98535H38.7769V2.09226H51.1288V1.98535Z" fill="#2DBBB5"/>
<path id="Rectangle 21" d="M51.1288 2.09277H38.7769V2.19968H51.1288V2.09277Z" fill="#2DBAB6"/>
<path id="Rectangle 22" d="M51.1288 2.19971H38.7769V2.30662H51.1288V2.19971Z" fill="#2DB9B7"/>
<path id="Rectangle 23" d="M51.1288 2.30664H38.7769V2.41355H51.1288V2.30664Z" fill="#2DB8B8"/>
<path id="Rectangle 24" d="M51.1288 2.41455H38.7769V2.52146H51.1288V2.41455Z" fill="#2DB7B8"/>
<path id="Rectangle 25" d="M51.1288 2.52148H38.7769V2.6284H51.1288V2.52148Z" fill="#2DB6B9"/>
<path id="Rectangle 26" d="M51.1288 2.62939H38.7769V2.73631H51.1288V2.62939Z" fill="#2DB5BA"/>
<path id="Rectangle 27" d="M51.1288 2.73633H38.7769V2.84324H51.1288V2.73633Z" fill="#2DB4BB"/>
<path id="Rectangle 28" d="M51.1288 2.84424H38.7769V2.95115H51.1288V2.84424Z" fill="#2DB3BC"/>
<path id="Rectangle 29" d="M51.1288 2.95117H38.7769V3.05808H51.1288V2.95117Z" fill="#2EB2BD"/>
<path id="Rectangle 30" d="M51.1288 3.05811H38.7769V3.16502H51.1288V3.05811Z" fill="#2EB1BD"/>
<path id="Rectangle 31" d="M51.1288 3.16602H38.7769V3.27293H51.1288V3.16602Z" fill="#2EB0BE"/>
<path id="Rectangle 32" d="M51.1288 3.27295H38.7769V3.37986H51.1288V3.27295Z" fill="#2EAFBF"/>
<path id="Rectangle 33" d="M51.1288 3.38037H38.7769V3.48728H51.1288V3.38037Z" fill="#2EAEC0"/>
<path id="Rectangle 34" d="M51.1288 3.4873H38.7769V3.59422H51.1288V3.4873Z" fill="#2EADC1"/>
<path id="Rectangle 35" d="M51.1288 3.59521H38.7769V3.70213H51.1288V3.59521Z" fill="#2EACC2"/>
<path id="Rectangle 36" d="M51.1288 3.70215H38.7769V3.80906H51.1288V3.70215Z" fill="#2EABC3"/>
<path id="Rectangle 37" d="M51.1288 3.81006H38.7769V3.91697H51.1288V3.81006Z" fill="#2FA9C3"/>
<path id="Rectangle 38" d="M51.1288 3.91699H38.7769V4.0239H51.1288V3.91699Z" fill="#2FA8C4"/>
<path id="Rectangle 39" d="M51.1288 4.02393H38.7769V4.13084H51.1288V4.02393Z" fill="#2FA7C5"/>
<path id="Rectangle 40" d="M51.1288 4.13184H38.7769V4.23875H51.1288V4.13184Z" fill="#2FA6C6"/>
<path id="Rectangle 41" d="M51.1288 4.23877H38.7769V4.34568H51.1288V4.23877Z" fill="#2FA5C7"/>
<path id="Rectangle 42" d="M51.1288 4.34668H38.7769V4.45359H51.1288V4.34668Z" fill="#2FA4C8"/>
<path id="Rectangle 43" d="M51.1288 4.45312H38.7769V4.56004H51.1288V4.45312Z" fill="#2FA3C9"/>
<path id="Rectangle 44" d="M51.1288 4.56104H38.7769V4.66795H51.1288V4.56104Z" fill="#2FA2C9"/>
<path id="Rectangle 45" d="M51.1288 4.66797H38.7769V4.77488H51.1288V4.66797Z" fill="#30A1CA"/>
<path id="Rectangle 46" d="M51.1288 4.7749H38.7769V4.88181H51.1288V4.7749Z" fill="#30A0CB"/>
<path id="Rectangle 47" d="M51.1288 4.88281H38.7769V4.98972H51.1288V4.88281Z" fill="#309FCC"/>
<path id="Rectangle 48" d="M51.1288 4.98975H38.7769V5.09666H51.1288V4.98975Z" fill="#309ECD"/>
<path id="Rectangle 49" d="M51.1288 5.09766H38.7769V5.20457H51.1288V5.09766Z" fill="#309DCE"/>
<path id="Rectangle 50" d="M51.1288 5.20459H38.7769V5.3115H51.1288V5.20459Z" fill="#309CCE"/>
<path id="Rectangle 51" d="M51.1288 5.3125H38.7769V5.41941H51.1288V5.3125Z" fill="#309BCF"/>
<path id="Rectangle 52" d="M51.1288 5.41943H38.7769V5.52635H51.1288V5.41943Z" fill="#309AD0"/>
<path id="Rectangle 53" d="M51.1288 5.52686H38.7769V5.63377H51.1288V5.52686Z" fill="#3099D1"/>
<path id="Rectangle 54" d="M51.1288 5.63379H38.7769V5.7407H51.1288V5.63379Z" fill="#3198D2"/>
<path id="Rectangle 55" d="M51.1288 5.74072H38.7769V5.84763H51.1288V5.74072Z" fill="#3197D3"/>
<path id="Rectangle 56" d="M51.1288 5.84863H38.7769V5.95554H51.1288V5.84863Z" fill="#3196D4"/>
<path id="Rectangle 57" d="M51.1288 5.95557H38.7769V6.06248H51.1288V5.95557Z" fill="#3195D4"/>
<path id="Rectangle 58" d="M51.1288 6.06348H38.7769V6.17039H51.1288V6.06348Z" fill="#3194D5"/>
<path id="Rectangle 59" d="M51.1288 6.17041H38.7769V6.27732H51.1288V6.17041Z" fill="#3193D6"/>
<path id="Rectangle 60" d="M51.1288 6.27832H38.7769V6.38523H51.1288V6.27832Z" fill="#3192D7"/>
<path id="Rectangle 61" d="M51.1288 6.38525H38.7769V6.49217H51.1288V6.38525Z" fill="#3191D8"/>
<path id="Rectangle 62" d="M51.1288 6.49219H38.7769V6.5991H51.1288V6.49219Z" fill="#3290D9"/>
<path id="Rectangle 63" d="M51.1288 6.6001H38.7769V6.70701H51.1288V6.6001Z" fill="#328FD9"/>
<path id="Rectangle 64" d="M51.1288 6.70703H38.7769V6.81394H51.1288V6.70703Z" fill="#328EDA"/>
<path id="Rectangle 65" d="M51.1288 6.81445H38.7769V6.92136H51.1288V6.81445Z" fill="#328DDB"/>
<path id="Rectangle 66" d="M51.1288 6.92139H38.7769V6.94535H51.1288V6.92139Z" fill="#328CDC"/>
</g>
</g>
</g>
<path id="Path 6147" d="M52.0261 32.24H49.7634V27.3507H51.0556C52.1597 27.3507 52.9477 27.0677 53.4196 26.5018C53.8906 25.9359 54.1262 25.0739 54.1265 23.9157V6.94531H59.8638V24.1175C59.8638 26.8917 59.2174 28.939 57.9246 30.2594C56.6319 31.5798 54.6654 32.2397 52.0252 32.2391L52.0261 32.24Z" fill="#0D2B57"/>
<g id="Group 59">
<g id="Group 57">
<path id="Path 6148" d="M14.54 32.1489H13.729C13.729 31.8131 13.5955 31.491 13.358 31.2535C13.1206 31.016 12.7985 30.8826 12.4626 30.8826C12.1267 30.8826 11.8046 31.016 11.5672 31.2535C11.3297 31.491 11.1963 31.8131 11.1963 32.1489H10.3843C10.3836 31.6439 10.5678 31.156 10.9022 30.7775C10.9909 30.6761 11.0894 30.5838 11.1963 30.5019C11.3065 30.4175 11.4247 30.344 11.5492 30.2826C11.8659 30.1279 12.2168 30.0563 12.5687 30.0746C12.9207 30.0928 13.2622 30.2004 13.5612 30.387C13.8601 30.5737 14.1067 30.8334 14.2776 31.1416C14.4485 31.4498 14.5382 31.7965 14.5382 32.1489H14.54Z" fill="#0D2B57"/>
<path id="Path 6149" d="M14.5399 29.406C14.5405 29.9109 14.3566 30.3986 14.0228 30.7774C13.8424 30.5709 13.6224 30.4026 13.3758 30.2825C13.5192 30.1332 13.6238 29.951 13.6804 29.7519C13.737 29.5528 13.7439 29.3428 13.7005 29.1404C13.657 28.938 13.5646 28.7493 13.4312 28.591C13.2979 28.4326 13.1278 28.3094 12.9357 28.2321C12.7437 28.1548 12.5356 28.1258 12.3297 28.1477C12.1239 28.1695 11.9265 28.2416 11.755 28.3574C11.5834 28.4733 11.443 28.6295 11.3458 28.8123C11.2487 28.9951 11.1979 29.199 11.198 29.406V30.5019C11.0911 30.5837 10.9926 30.6761 10.904 30.7774C10.5695 31.1559 10.3853 31.6438 10.386 32.1488V29.406C10.386 28.8551 10.6049 28.3267 10.9944 27.9371C11.384 27.5475 11.9124 27.3286 12.4634 27.3286C13.0144 27.3286 13.5427 27.5475 13.9323 27.9371C14.3219 28.3267 14.5408 28.8551 14.5408 29.406H14.5399Z" fill="#0D2B57"/>
</g>
<path id="Path 6150" d="M21.0105 29.7129C21.0108 30.0775 20.9272 30.4373 20.7663 30.7645H19.6271C19.801 30.5988 19.931 30.3927 20.0057 30.1645C20.0804 29.9362 20.0974 29.6931 20.0551 29.4567C20.0128 29.2203 19.9126 28.9981 19.7634 28.8099C19.6142 28.6217 19.4207 28.4735 19.2002 28.3784C18.9797 28.2833 18.7391 28.2443 18.4999 28.265C18.2606 28.2856 18.0302 28.3652 17.8293 28.4967C17.6284 28.6282 17.4631 28.8074 17.3484 29.0183C17.2337 29.2293 17.173 29.4654 17.1718 29.7055V29.7129C17.1723 30.0981 17.3256 30.4674 17.5981 30.7398C17.8706 31.0121 18.24 31.1652 18.6253 31.1654V32.0972C18.1536 32.0971 17.6926 31.9571 17.3004 31.695C16.9083 31.4329 16.6027 31.0604 16.4223 30.6246C16.2419 30.1888 16.1948 29.7093 16.2869 29.2467C16.379 28.7841 16.6062 28.3593 16.9398 28.0258C17.2734 27.6923 17.6983 27.4653 18.1609 27.3734C18.6236 27.2814 19.1031 27.3288 19.5388 27.5093C19.9745 27.6899 20.3469 27.9957 20.6089 28.3879C20.8708 28.7801 21.0106 29.2412 21.0105 29.7129Z" fill="#0D2B57"/>
<g id="Clip path group_2">
<mask id="mask1_78_1552" style="mask-type:luminance" maskUnits="userSpaceOnUse" x="18" y="31" width="4" height="2">
<g id="b">
<path id="Path 6213" d="M21.0337 32.2401H19.7158L19.4273 31.9507L18.6328 31.1562H19.9508L20.2466 31.453L21.0337 32.2401Z" fill="white"/>
</g>
</mask>
<g mask="url(#mask1_78_1552)">
<g id="Group 58">
<path id="Path 6151" d="M20.9451 32.2399L21.0335 32.0454V32.2399H20.9451Z" fill="#2BC8AA"/>
<path id="Path 6152" d="M20.9009 32.2399L21.0336 31.9478V32.0454L20.9451 32.2399H20.9009Z" fill="#2BC8AA"/>
<path id="Path 6153" d="M20.856 32.24L21.0338 31.8511V31.9478L20.9011 32.24H20.856Z" fill="#2BC7AB"/>
<path id="Path 6154" d="M20.8118 32.2401L21.0339 31.7534V31.8511L20.856 32.2401H20.8118Z" fill="#2BC6AC"/>
<path id="Path 6155" d="M20.7661 32.2401L21.0334 31.6558V31.7535L20.8113 32.2401H20.7661Z" fill="#2BC5AD"/>
<path id="Path 6156" d="M20.7219 32.2401L21.0334 31.5581V31.6558L20.7662 32.2401H20.7219Z" fill="#2BC4AD"/>
<path id="Path 6157" d="M20.6775 32.2402L21.0332 31.4614V31.5582L20.7217 32.2402H20.6775Z" fill="#2CC3AE"/>
<path id="Path 6158" d="M20.6326 32.2403L21.0335 31.3638V31.4615L20.6777 32.2403H20.6326Z" fill="#2CC2AF"/>
<path id="Path 6159" d="M20.5884 32.2403L21.0335 31.2661V31.3638L20.6326 32.2403H20.5884Z" fill="#2CC1B0"/>
<path id="Path 6160" d="M20.5435 32.2403L21.0338 31.1685V31.2662L20.5886 32.2403H20.5435Z" fill="#2CC0B1"/>
<path id="Path 6161" d="M20.4993 32.2401L20.9951 31.1562H21.0338V31.1682L20.5435 32.2401H20.4993Z" fill="#2CBFB2"/>
<path id="Path 6162" d="M20.4536 32.2401L20.9495 31.1562H20.9946L20.4988 32.2401H20.4536Z" fill="#2CBEB2"/>
<path id="Path 6163" d="M20.4094 32.2401L20.9053 31.1562H20.9495L20.4537 32.2401H20.4094Z" fill="#2CBDB3"/>
<path id="Path 6164" d="M20.365 32.2401L20.8608 31.1562H20.9051L20.4092 32.2401H20.365Z" fill="#2CBCB4"/>
<path id="Path 6165" d="M20.3201 32.2401L20.8159 31.1562H20.8611L20.3652 32.2401H20.3201Z" fill="#2DBBB5"/>
<path id="Path 6166" d="M20.2759 32.2401L20.7717 31.1562H20.816L20.3201 32.2401H20.2759Z" fill="#2DBAB6"/>
<path id="Path 6167" d="M20.231 32.2401L20.7268 31.1562H20.772L20.2761 32.2401H20.231Z" fill="#2DB9B7"/>
<path id="Path 6168" d="M20.1868 32.2401L20.6826 31.1562H20.7269L20.231 32.2401H20.1868Z" fill="#2DB8B8"/>
<path id="Path 6169" d="M20.1411 32.2401L20.6379 31.1562H20.6821L20.1863 32.2401H20.1411Z" fill="#2DB7B8"/>
<path id="Path 6170" d="M20.0969 32.2401L20.5928 31.1562H20.6379L20.1412 32.2401H20.0969Z" fill="#2DB6B9"/>
<path id="Path 6171" d="M20.0532 32.2401L20.5491 31.1562H20.5933L20.0975 32.2401H20.0532Z" fill="#2DB5BA"/>
<path id="Path 6172" d="M20.0076 32.2401L20.5034 31.1562H20.5486L20.0527 32.2401H20.0076Z" fill="#2DB4BB"/>
<path id="Path 6173" d="M19.9634 32.2401L20.4592 31.1562H20.5035L20.0076 32.2401H19.9634Z" fill="#2DB3BC"/>
<path id="Path 6174" d="M19.9185 32.2401L20.4143 31.1562H20.4595L19.9636 32.2401H19.9185Z" fill="#2EB2BD"/>
<path id="Path 6175" d="M19.8743 32.2401L20.3701 31.1562H20.4144L19.9185 32.2401H19.8743Z" fill="#2EB1BD"/>
<path id="Path 6176" d="M19.8298 32.2401L20.3257 31.1562H20.3699L19.8741 32.2401H19.8298Z" fill="#2EB0BE"/>
<path id="Path 6177" d="M19.7849 32.2401L20.2808 31.1562H20.3259L19.8301 32.2401H19.7849Z" fill="#2EAFBF"/>
<path id="Path 6178" d="M19.7407 32.2401L20.2366 31.1562H20.2808L19.785 32.2401H19.7407Z" fill="#2EAEC0"/>
<path id="Path 6179" d="M19.6958 32.2401L20.1916 31.1562H20.2368L19.741 32.2401H19.6958Z" fill="#2EADC1"/>
<path id="Path 6180" d="M19.6509 32.2401L20.1467 31.1562H20.191L19.6951 32.2401H19.6509Z" fill="#2EACC2"/>
<path id="Path 6181" d="M19.606 32.2401L20.1027 31.1562H20.147L19.6511 32.2401H19.606Z" fill="#2EABC3"/>
<path id="Path 6182" d="M19.5618 32.2401L20.0576 31.1562H20.1028L19.606 32.2401H19.5618Z" fill="#2FA9C3"/>
<path id="Path 6183" d="M19.5173 32.2401L20.0132 31.1562H20.0574L19.5616 32.2401H19.5173Z" fill="#2FA8C4"/>
<path id="Path 6184" d="M19.4724 32.2401L19.9683 31.1562H20.0134L19.5176 32.2401H19.4724Z" fill="#2FA7C5"/>
<path id="Path 6185" d="M19.4282 32.2401L19.9241 31.1562H19.9683L19.4725 32.2401H19.4282Z" fill="#2FA6C6"/>
<path id="Path 6186" d="M19.3826 32.2401L19.8784 31.1562H19.9236L19.4277 32.2401H19.3826Z" fill="#2FA5C7"/>
<path id="Path 6187" d="M19.3384 32.2401L19.8342 31.1562H19.8785L19.3826 32.2401H19.3384Z" fill="#2FA4C8"/>
<path id="Path 6188" d="M19.2942 32.2401L19.79 31.1562H19.8343L19.3384 32.2401H19.2942Z" fill="#2FA3C9"/>
<path id="Path 6189" d="M19.2493 32.2401L19.7451 31.1562H19.7903L19.2944 32.2401H19.2493Z" fill="#2FA2C9"/>
<path id="Path 6190" d="M19.2048 32.2401L19.7007 31.1562H19.7449L19.2491 32.2401H19.2048Z" fill="#30A1CA"/>
<path id="Path 6191" d="M19.1599 32.2401L19.6558 31.1562H19.7009L19.2051 32.2401H19.1599Z" fill="#30A0CB"/>
<path id="Path 6192" d="M19.1157 32.2401L19.6116 31.1562H19.6558L19.16 32.2401H19.1157Z" fill="#309FCC"/>
<path id="Path 6193" d="M19.0701 32.2401L19.5659 31.1562H19.6111L19.1152 32.2401H19.0701Z" fill="#309ECD"/>
<path id="Path 6194" d="M19.0259 32.2401L19.5217 31.1562H19.566L19.0701 32.2401H19.0259Z" fill="#309DCE"/>
<path id="Path 6195" d="M18.9822 32.2401L19.478 31.1562H19.5223L19.0264 32.2401H18.9822Z" fill="#309CCE"/>
<path id="Path 6196" d="M18.9368 32.2401L19.4326 31.1562H19.4778L18.9819 32.2401H18.9368Z" fill="#309BCF"/>
<path id="Path 6197" d="M18.8923 32.2401L19.3882 31.1562H19.4324L18.9366 32.2401H18.8923Z" fill="#309AD0"/>
<path id="Path 6198" d="M18.8474 32.2401L19.3433 31.1562H19.3884L18.8926 32.2401H18.8474Z" fill="#3099D1"/>
<path id="Path 6199" d="M18.8032 32.2401L19.2991 31.1562H19.3433L18.8475 32.2401H18.8032Z" fill="#3198D2"/>
<path id="Path 6200" d="M18.7583 32.2401L19.2551 31.1562H19.2993L18.8035 32.2401H18.7583Z" fill="#3197D3"/>
<path id="Path 6201" d="M18.7141 32.2401L19.21 31.1562H19.2551L18.7584 32.2401H18.7141Z" fill="#3196D4"/>
<path id="Path 6202" d="M18.6694 32.2401L19.1653 31.1562H19.2095L18.7137 32.2401H18.6694Z" fill="#3195D4"/>
<path id="Path 6203" d="M18.6328 32.2226L19.1204 31.1562H19.1655L18.6697 32.2401H18.6328V32.2226Z" fill="#3194D5"/>
<path id="Path 6204" d="M18.6328 32.1249L19.0761 31.1562H19.1204L18.6328 32.2226V32.1249Z" fill="#3193D6"/>
<path id="Path 6205" d="M18.6328 32.0272L19.031 31.1562H19.0761L18.6328 32.1249V32.0272Z" fill="#3192D7"/>
<path id="Path 6206" d="M18.6328 31.9295L18.9867 31.1562H19.031L18.6328 32.0272V31.9295Z" fill="#3191D8"/>
<path id="Path 6207" d="M18.6328 31.8327L18.9425 31.1562H18.9867L18.6328 31.9295V31.8327Z" fill="#3290D9"/>
<path id="Path 6208" d="M18.6328 31.735L18.8973 31.1562H18.9425L18.6328 31.8327V31.735Z" fill="#328FD9"/>
<path id="Path 6209" d="M18.6328 31.6373L18.8531 31.1562H18.8973L18.6328 31.735V31.6373Z" fill="#328EDA"/>
<path id="Path 6210" d="M18.6328 31.5397L18.8079 31.1562H18.8531L18.6328 31.6373V31.5397Z" fill="#328DDB"/>
<path id="Path 6211" d="M18.6328 31.442L18.7637 31.1562H18.8079L18.6328 31.5397V31.442Z" fill="#328CDC"/>
<path id="Path 6212" d="M18.7637 31.1562L18.6328 31.442V31.1562H18.7637Z" fill="#328CDC"/>
</g>
</g>
</g>
<path id="Path 6214" d="M27.3949 28.0023V32.1488H26.464V28.8161L26.0262 29.7138L25.6705 30.4401L25.4741 30.8391L25.4529 30.8824L25.4281 30.9331C25.3937 31.0045 25.3418 31.0658 25.2771 31.1115C25.2124 31.1571 25.1372 31.1855 25.0585 31.194C25.0417 31.1962 25.0247 31.1974 25.0078 31.1977C24.9908 31.1973 24.9739 31.196 24.9571 31.194C24.8834 31.1858 24.8128 31.1602 24.7509 31.1193C24.689 31.0785 24.6378 31.0235 24.6013 30.9589L24.5765 30.9083L24.5645 30.8824L24.5414 30.8373L24.347 30.4382L23.9931 29.7138L23.5534 28.8124V32.1488H22.6226V28.0023C22.6227 27.8523 22.6728 27.7066 22.765 27.5883C22.8572 27.47 22.9863 27.3858 23.1317 27.3491C23.2772 27.3124 23.4307 27.3253 23.568 27.3856C23.7053 27.446 23.8186 27.5505 23.8898 27.6825C23.8898 27.6843 23.8917 27.6862 23.8917 27.688L23.911 27.7286L24.5414 29.017L24.6078 29.1534L24.7073 29.358L24.8806 29.7147L25.0087 29.9737L25.135 29.7147L25.3082 29.358L25.4078 29.1553L25.4723 29.0207L26.0972 27.7415C26.0973 27.74 26.098 27.7387 26.099 27.7378L26.1248 27.6834C26.1248 27.6829 26.125 27.6824 26.1254 27.6821C26.1257 27.6817 26.1262 27.6816 26.1267 27.6816C26.1845 27.575 26.2701 27.4861 26.3744 27.4242C26.4786 27.3623 26.5977 27.3297 26.7189 27.3299C26.8402 27.3301 26.9591 27.3631 27.0632 27.4253C27.1672 27.4875 27.2525 27.5767 27.3101 27.6834C27.3119 27.6852 27.3119 27.6871 27.3138 27.6889L27.3331 27.7295C27.3728 27.8156 27.3932 27.9093 27.393 28.0041L27.3949 28.0023Z" fill="#0D2B57"/>
</g>
</g>
</g>
<defs>
<clipPath id="clip0_78_1552">
<rect width="59.2557" height="33.3333" fill="white" transform="translate(0.60791 0.900391)"/>
</clipPath>
</defs>
</svg>
